<svg width="24" height="24" viewBox="0 0 24 24" fill="none" xmlns="http://www.w3.org/2000/svg">
<path d="M12 16.6667C13.933 16.6667 15.5 15.0997 15.5 13.1667C15.5 11.2336 13.933 9.66669 12 9.66669C10.0669 9.66669 8.5 11.2336 8.5 13.1667C8.5 15.0997 10.0669 16.6667 12 16.6667Z" stroke="black" stroke-width="1.75"/>
<path d="M1.5 17.6V8.73335C1.5 7.42657 1.5 6.77317 1.75432 6.27404C1.97802 5.83499 2.33497 5.47804 2.77402 5.25434C3.27315 5.00002 3.92655 5.00002 5.23333 5.00002H6.46375C6.60718 5.00002 6.67889 5.00002 6.74505 4.99244C7.09027 4.9529 7.39989 4.76154 7.58964 4.47046C7.626 4.41467 7.65809 4.35051 7.72222 4.22224C7.8505 3.96568 7.91465 3.83739 7.98739 3.72581C8.36688 3.14364 8.98613 2.76093 9.67658 2.68184C9.80888 2.66669 9.95227 2.66669 10.2391 2.66669H13.7608C14.0477 2.66669 14.1911 2.66669 14.3234 2.68184C15.0138 2.76093 15.6331 3.14364 16.0126 3.72581C16.0853 3.83738 16.1495 3.96571 16.2778 4.22224C16.3419 4.35053 16.3739 4.41467 16.4103 4.47046C16.6002 4.76154 16.9097 4.9529 17.2549 4.99244C17.3212 5.00002 17.3928 5.00002 17.5363 5.00002H18.7667C20.0734 5.00002 20.7269 5.00002 21.226 5.25434C21.665 5.47804 22.022 5.83499 22.2457 6.27404C22.5 6.77317 22.5 7.42657 22.5 8.73335V17.6C22.5 18.9068 22.5 19.5603 22.2457 20.0594C22.022 20.4984 21.665 20.8554 21.226 21.079C20.7269 21.3334 20.0734 21.3334 18.7667 21.3334H5.23333C3.92655 21.3334 3.27315 21.3334 2.77402 21.079C2.33497 20.8554 1.97802 20.4984 1.75432 20.0594C1.5 19.5603 1.5 18.9068 1.5 17.6Z" stroke="black" stroke-width="1.75"/>
</svg>
