<svg width="24" height="24" viewBox="0 0 24 24" fill="none" xmlns="http://www.w3.org/2000/svg">
<path d="M4.50054 1.5C4.50054 0.670312 5.17085 0 6.00054 0H18.0005C18.8302 0 19.5005 0.670312 19.5005 1.5C19.5005 2.32969 18.8302 3 18.0005 3H16.6177L17.1521 9.94687C18.8724 10.8797 20.2318 12.4406 20.8787 14.3859L20.9255 14.5266C21.0802 14.9859 21.0005 15.4875 20.7193 15.8766C20.438 16.2656 19.9833 16.5 19.5005 16.5H4.50054C4.01773 16.5 3.56773 16.2703 3.28179 15.8766C2.99585 15.4828 2.92085 14.9812 3.07554 14.5266L3.12241 14.3859C3.76929 12.4406 5.12866 10.8797 6.84898 9.94687L7.38335 3H6.00054C5.17085 3 4.50054 2.32969 4.50054 1.5ZM10.5005 18H13.5005V22.5C13.5005 23.3297 12.8302 24 12.0005 24C11.1708 24 10.5005 23.3297 10.5005 22.5V18Z" fill="black"/>
</svg>
