<svg width="24" height="24" viewBox="0 0 24 24" fill="none" xmlns="http://www.w3.org/2000/svg">
<path d="M14.3571 10.6476C14.1488 10.6476 13.9489 10.7304 13.8016 10.8777C13.6542 11.0251 13.5714 11.2249 13.5714 11.4333C13.5714 11.6417 13.6542 11.8416 13.8016 11.9889C13.9489 12.1363 14.1488 12.219 14.3571 12.219C14.5655 12.219 14.7654 12.1363 14.9127 11.9889C15.0601 11.8416 15.1429 11.6417 15.1429 11.4333C15.1429 11.2249 15.0601 11.0251 14.9127 10.8777C14.7654 10.7304 14.5655 10.6476 14.3571 10.6476ZM5.71428 8.29048C5.71428 8.08209 5.79706 7.88224 5.94441 7.73489C6.09176 7.58754 6.29161 7.50476 6.49999 7.50476H17.5C17.7084 7.50476 17.9082 7.58754 18.0556 7.73489C18.2029 7.88224 18.2857 8.08209 18.2857 8.29048C18.2857 8.49886 18.2029 8.69871 18.0556 8.84606C17.9082 8.99341 17.7084 9.07619 17.5 9.07619H6.49999C6.29161 9.07619 6.09176 8.99341 5.94441 8.84606C5.79706 8.69871 5.71428 8.49886 5.71428 8.29048ZM6.49999 10.6476C6.29161 10.6476 6.09176 10.7304 5.94441 10.8777C5.79706 11.0251 5.71428 11.2249 5.71428 11.4333C5.71428 11.6417 5.79706 11.8416 5.94441 11.9889C6.09176 12.1363 6.29161 12.219 6.49999 12.219H11.2143C11.4227 12.219 11.6225 12.1363 11.7699 11.9889C11.9172 11.8416 12 11.6417 12 11.4333C12 11.2249 11.9172 11.0251 11.7699 10.8777C11.6225 10.7304 11.4227 10.6476 11.2143 10.6476H6.49999Z" fill="black"/>
<path fill-rule="evenodd" clip-rule="evenodd" d="M6.5 2.00476C5.04131 2.00476 3.64236 2.58422 2.61091 3.61567C1.57946 4.64712 1 6.04607 1 7.50476V14.969C1 15.6984 1.28973 16.3979 1.80546 16.9136C2.32118 17.4293 3.02065 17.719 3.75 17.719C4.40057 17.719 4.92857 18.247 4.92857 18.8976V19.7808C4.92857 21.7503 7.30876 22.735 8.7 21.3438L11.1745 18.8693C11.5394 18.5046 11.9725 18.2152 12.4492 18.0179C12.9259 17.8205 13.4368 17.719 13.9528 17.719H17.5C20.5381 17.719 23 15.2571 23 12.219V7.50476C23 4.46667 20.5381 2.00476 17.5 2.00476H6.5ZM2.57143 7.50476C2.57143 6.46284 2.98533 5.46359 3.72208 4.72684C4.45883 3.99009 5.45808 3.57619 6.5 3.57619H17.5C18.5419 3.57619 19.5412 3.99009 20.2779 4.72684C21.0147 5.46359 21.4286 6.46284 21.4286 7.50476V12.219C21.4286 13.261 21.0147 14.2602 20.2779 14.997C19.5412 15.7337 18.5419 16.1476 17.5 16.1476H13.9528C12.4941 16.1478 11.0953 16.7274 10.064 17.7589L7.58952 20.2323C7.50016 20.3211 7.38655 20.3815 7.26295 20.4059C7.13935 20.4304 7.0113 20.4177 6.89487 20.3696C6.77844 20.3214 6.67884 20.24 6.60858 20.1354C6.53833 20.0308 6.50055 19.9078 6.5 19.7818V18.8976C6.5 18.1683 6.21027 17.4688 5.69454 16.9531C5.17882 16.4373 4.47935 16.1476 3.75 16.1476C3.43742 16.1476 3.13765 16.0234 2.91662 15.8024C2.6956 15.5814 2.57143 15.2816 2.57143 14.969V7.50476Z" fill="black"/>
</svg>
