<svg width="24" height="24" viewBox="0 0 24 24" fill="none" xmlns="http://www.w3.org/2000/svg">
<path d="M15.0938 3H20.1562C20.6238 3 21 3.37617 21 3.84375V8.90625C21 9.24727 20.7961 9.55664 20.4797 9.68672C20.1633 9.8168 19.8012 9.74648 19.5586 9.50391L18.1875 8.13281L15.1289 11.1914C14.7984 11.5219 14.2641 11.5219 13.9371 11.1914L12.8121 10.0664C12.4816 9.73594 12.4816 9.20156 12.8121 8.87461L15.8707 5.81602L14.4961 4.44141C14.2535 4.19883 14.1832 3.83672 14.3133 3.52031C14.4434 3.20391 14.7527 3 15.0938 3ZM8.90625 21H3.84375C3.37617 21 3 20.6238 3 20.1562V15.0938C3 14.7527 3.20391 14.4434 3.52031 14.3133C3.83672 14.1832 4.19883 14.2535 4.44141 14.4961L5.8125 15.8672L8.87109 12.8086C9.20156 12.4781 9.73594 12.4781 10.0629 12.8086L11.1879 13.9336C11.5184 14.2641 11.5184 14.7984 11.1879 15.1254L8.1293 18.184L9.50039 19.5551C9.74297 19.7977 9.81328 20.1598 9.6832 20.4762C9.55313 20.7926 9.24375 20.9965 8.90273 20.9965L8.90625 21Z" fill="black"/>
</svg>
