<svg width="24" height="24" viewBox="0 0 24 24" fill="none" xmlns="http://www.w3.org/2000/svg">
<path d="M8.80715 12C8.80715 12.8176 9.13194 13.6017 9.71007 14.1798C10.2882 14.7579 11.0723 15.0827 11.8899 15.0827C12.7075 15.0827 13.4916 14.7579 14.0697 14.1798C14.6479 13.6017 14.9727 12.8176 14.9727 12C14.9727 11.1824 14.6479 10.3983 14.0697 9.82015C13.4916 9.24202 12.7075 8.91723 11.8899 8.91723C11.0723 8.91723 10.2882 9.24202 9.71007 9.82015C9.13194 10.3983 8.80715 11.1824 8.80715 12ZM23.8411 11.2898C21.2317 5.79319 17.2875 3.02698 12 3.02698C6.71253 3.02698 2.76827 5.79319 0.158941 11.2926C0.0542802 11.5142 0 11.7563 0 12.0014C0 12.2464 0.0542802 12.4885 0.158941 12.7101C2.76827 18.2068 6.71253 20.973 12 20.973C17.2875 20.973 21.2317 18.2068 23.8411 12.7074C23.9457 12.4857 24 12.2437 24 11.9986C24 11.7535 23.9457 11.5115 23.8411 11.2898ZM11.8899 16.8443C9.21452 16.8443 7.04558 14.6754 7.04558 12C7.04558 9.32459 9.21452 7.15566 11.8899 7.15566C14.5653 7.15566 16.7342 9.32459 16.7342 12C16.7342 14.6754 14.5653 16.8443 11.8899 16.8443Z" fill="black"/>
</svg>
