<svg width="24" height="24" viewBox="0 0 24 24" fill="none" xmlns="http://www.w3.org/2000/svg">
<path d="M1.16129 1.93549C0.517742 1.93549 0 2.45323 0 3.09678V5.41936C0 6.06291 0.517742 6.58065 1.16129 6.58065H3.48387C4.12742 6.58065 4.64516 6.06291 4.64516 5.41936V3.09678C4.64516 2.45323 4.12742 1.93549 3.48387 1.93549H1.16129ZM8.51613 2.70968C7.65968 2.70968 6.96774 3.40161 6.96774 4.25807C6.96774 5.11452 7.65968 5.80645 8.51613 5.80645H22.4516C23.3081 5.80645 24 5.11452 24 4.25807C24 3.40161 23.3081 2.70968 22.4516 2.70968H8.51613ZM8.51613 10.4516C7.65968 10.4516 6.96774 11.1436 6.96774 12C6.96774 12.8565 7.65968 13.5484 8.51613 13.5484H22.4516C23.3081 13.5484 24 12.8565 24 12C24 11.1436 23.3081 10.4516 22.4516 10.4516H8.51613ZM8.51613 18.1935C7.65968 18.1935 6.96774 18.8855 6.96774 19.7419C6.96774 20.5984 7.65968 21.2903 8.51613 21.2903H22.4516C23.3081 21.2903 24 20.5984 24 19.7419C24 18.8855 23.3081 18.1935 22.4516 18.1935H8.51613ZM0 10.8387V13.1613C0 13.8048 0.517742 14.3226 1.16129 14.3226H3.48387C4.12742 14.3226 4.64516 13.8048 4.64516 13.1613V10.8387C4.64516 10.1952 4.12742 9.67742 3.48387 9.67742H1.16129C0.517742 9.67742 0 10.1952 0 10.8387ZM1.16129 17.4194C0.517742 17.4194 0 17.9371 0 18.5806V20.9032C0 21.5468 0.517742 22.0645 1.16129 22.0645H3.48387C4.12742 22.0645 4.64516 21.5468 4.64516 20.9032V18.5806C4.64516 17.9371 4.12742 17.4194 3.48387 17.4194H1.16129Z" fill="black"/>
</svg>
