<svg width="24" height="24" viewBox="0 0 24 24" fill="none" xmlns="http://www.w3.org/2000/svg">
<g clip-path="url(#clip0_356_2605)">
<path d="M9.55447 16.942L16.1438 12.1741C16.1711 12.1544 16.1934 12.1284 16.2088 12.0984C16.2242 12.0684 16.2322 12.0351 16.2322 12.0013C16.2322 11.9676 16.2242 11.9343 16.2088 11.9043C16.1934 11.8743 16.1711 11.8483 16.1438 11.8286L9.55447 7.06072C9.4125 6.95893 9.21429 7.06072 9.21429 7.23482L9.21429 8.49107C9.21429 8.76429 9.34554 9.02411 9.56786 9.18482L13.4625 12L9.56786 14.8179C9.34554 14.9786 9.21429 15.2357 9.21429 15.5116L9.21429 16.7679C9.21429 16.942 9.4125 17.0438 9.55447 16.942Z" fill="black"/>
<path d="M12 24C18.6268 24 24 18.6268 24 12C24 5.37322 18.6268 1.38999e-06 12 8.10655e-07C5.37322 2.31323e-07 1.38999e-06 5.37321 8.10655e-07 12C2.31323e-07 18.6268 5.37321 24 12 24ZM12 2.03572C17.5018 2.03572 21.9643 6.49822 21.9643 12C21.9643 17.5018 17.5018 21.9643 12 21.9643C6.49821 21.9643 2.03571 17.5018 2.03572 12C2.03572 6.49821 6.49822 2.03571 12 2.03572Z" fill="black"/>
</g>
<defs>
<clipPath id="clip0_356_2605">
<rect width="24" height="24" fill="white" transform="translate(24 24) rotate(-180)"/>
</clipPath>
</defs>
</svg>
