<svg width="24" height="24" viewBox="0 0 24 24" fill="none" xmlns="http://www.w3.org/2000/svg">
<g clip-path="url(#clip0_356_2587)">
<path d="M3.78122 23.0848C1.26442 23.0848 0 21.8444 0 19.3517V4.64831C0 2.15559 1.26442 0.915253 3.78122 0.915253H20.2308C22.7476 0.915253 24 2.16764 24 4.64831V19.3517C24 21.8324 22.7476 23.0848 20.2308 23.0848H3.78122ZM3.6006 21.146H20.3873C21.4591 21.146 22.0612 20.5801 22.0612 19.4602V8.10442C22.0612 6.99654 21.4591 6.4185 20.3873 6.4185H3.6006C2.52886 6.4185 1.93879 6.99654 1.93879 8.10442V19.4602C1.93879 20.5801 2.52886 21.146 3.6006 21.146ZM9.65779 10.7416C9.23631 10.7416 9.09181 10.6212 9.09181 10.1997V9.48925C9.09181 9.06777 9.23631 8.93532 9.65779 8.93532H10.3683C10.7898 8.93532 10.9222 9.06777 10.9222 9.48925V10.1997C10.9222 10.6212 10.7898 10.7416 10.3683 10.7416H9.65779ZM13.6558 10.7416C13.2343 10.7416 13.0898 10.6212 13.0898 10.1997V9.48925C13.0898 9.06777 13.2343 8.93532 13.6558 8.93532H14.3663C14.7877 8.93532 14.9322 9.06777 14.9322 9.48925V10.1997C14.9322 10.6212 14.7877 10.7416 14.3663 10.7416H13.6558ZM17.6537 10.7416C17.2323 10.7416 17.0998 10.6212 17.0998 10.1997V9.48925C17.0998 9.06777 17.2323 8.93532 17.6537 8.93532H18.3643C18.7857 8.93532 18.9303 9.06777 18.9303 9.48925V10.1997C18.9303 10.6212 18.7857 10.7416 18.3643 10.7416H17.6537ZM5.6598 14.6794C5.22629 14.6794 5.09382 14.559 5.09382 14.1375V13.427C5.09382 13.0056 5.22629 12.8851 5.6598 12.8851H6.35825C6.79177 12.8851 6.92422 13.0056 6.92422 13.427V14.1375C6.92422 14.559 6.79177 14.6794 6.35825 14.6794H5.6598ZM9.65779 14.6794C9.23631 14.6794 9.09181 14.559 9.09181 14.1375V13.427C9.09181 13.0056 9.23631 12.8851 9.65779 12.8851H10.3683C10.7898 12.8851 10.9222 13.0056 10.9222 13.427V14.1375C10.9222 14.559 10.7898 14.6794 10.3683 14.6794H9.65779ZM13.6558 14.6794C13.2343 14.6794 13.0898 14.559 13.0898 14.1375V13.427C13.0898 13.0056 13.2343 12.8851 13.6558 12.8851H14.3663C14.7877 12.8851 14.9322 13.0056 14.9322 13.427V14.1375C14.9322 14.559 14.7877 14.6794 14.3663 14.6794H13.6558ZM17.6537 14.6794C17.2323 14.6794 17.0998 14.559 17.0998 14.1375V13.427C17.0998 13.0056 17.2323 12.8851 17.6537 12.8851H18.3643C18.7857 12.8851 18.9303 13.0056 18.9303 13.427V14.1375C18.9303 14.559 18.7857 14.6794 18.3643 14.6794H17.6537ZM5.6598 18.6293C5.22629 18.6293 5.09382 18.4967 5.09382 18.0753V17.3647C5.09382 16.9433 5.22629 16.8228 5.6598 16.8228H6.35825C6.79177 16.8228 6.92422 16.9433 6.92422 17.3647V18.0753C6.92422 18.4967 6.79177 18.6293 6.35825 18.6293H5.6598ZM9.65779 18.6293C9.23631 18.6293 9.09181 18.4967 9.09181 18.0753V17.3647C9.09181 16.9433 9.23631 16.8228 9.65779 16.8228H10.3683C10.7898 16.8228 10.9222 16.9433 10.9222 17.3647V18.0753C10.9222 18.4967 10.7898 18.6293 10.3683 18.6293H9.65779ZM13.6558 18.6293C13.2343 18.6293 13.0898 18.4967 13.0898 18.0753V17.3647C13.0898 16.9433 13.2343 16.8228 13.6558 16.8228H14.3663C14.7877 16.8228 14.9322 16.9433 14.9322 17.3647V18.0753C14.9322 18.4967 14.7877 18.6293 14.3663 18.6293H13.6558Z" fill="black"/>
</g>
<defs>
<clipPath id="clip0_356_2587">
<rect width="24" height="24" fill="white"/>
</clipPath>
</defs>
</svg>
