<svg width="24" height="24" viewBox="0 0 24 24" fill="none" xmlns="http://www.w3.org/2000/svg">
<path d="M3.19592 21.3689C1.0687 21.3689 0 20.3206 0 18.2239V5.78628C0 3.68959 1.0687 2.63107 3.19592 2.63107H20.8041C22.9414 2.63107 24 3.68959 24 5.78628V18.2239C24 20.3206 22.9414 21.3689 20.8041 21.3689H3.19592ZM3.21627 19.7302H7.45037V4.26974H3.21627C2.19847 4.26974 1.63868 4.81936 1.63868 5.87789V18.1323C1.63868 19.1908 2.19847 19.7302 3.21627 19.7302ZM9.08904 19.7302H14.9109V4.26974H9.08904V19.7302ZM20.7837 4.26974H16.5495V19.7302H20.7837C21.7913 19.7302 22.3613 19.1908 22.3613 18.1323V5.87789C22.3613 4.81936 21.7913 4.26974 20.7837 4.26974Z" fill="black"/>
</svg>
