<svg width="24" height="24" viewBox="0 0 24 24" fill="none" xmlns="http://www.w3.org/2000/svg">
<path d="M7.89614 4.12022C7.89614 3.36248 8.0783 2.67395 8.44259 2.05465C8.81418 1.42806 9.30963 0.928962 9.92894 0.557378C10.5482 0.185792 11.2368 0 11.9945 0C12.7595 0 13.4517 0.185792 14.0711 0.557378C14.6903 0.928962 15.1822 1.42806 15.5465 2.05465C15.918 2.67395 16.1038 3.36248 16.1038 4.12022C16.1038 4.76138 15.969 5.35519 15.6995 5.90164C15.4298 6.44809 15.062 6.9144 14.5956 7.30055C14.1293 7.68671 13.6011 7.95265 13.0109 8.09837V15.0164C13.0109 15.8251 12.9781 16.5391 12.9125 17.1584C12.847 17.7778 12.7632 18.2988 12.6612 18.7213C12.5665 19.1439 12.4572 19.4645 12.3333 19.6831C12.2167 19.8944 12.1038 20 11.9945 20C11.8852 20 11.7723 19.8944 11.6557 19.6831C11.5391 19.4645 11.4298 19.1439 11.3278 18.7213C11.2258 18.2988 11.1421 17.7778 11.0765 17.1584C11.0109 16.5391 10.9781 15.8251 10.9781 15.0164V8.09837C10.388 7.95265 9.85972 7.68671 9.39342 7.30055C8.92711 6.9144 8.55917 6.44809 8.28959 5.90164C8.02729 5.35519 7.89614 4.76138 7.89614 4.12022ZM10.8251 4.3388C11.2113 4.3388 11.5428 4.20037 11.8196 3.9235C12.0965 3.63935 12.2349 3.30784 12.2349 2.92897C12.2349 2.55009 12.0965 2.22223 11.8196 1.94536C11.5428 1.66849 11.2113 1.53006 10.8251 1.53006C10.4535 1.53006 10.1257 1.66849 9.8415 1.94536C9.56464 2.22223 9.4262 2.55009 9.4262 2.92897C9.4262 3.30784 9.56464 3.63935 9.8415 3.9235C10.1257 4.20037 10.4535 4.3388 10.8251 4.3388ZM12.0054 24C10.3588 24 8.89068 23.8689 7.60106 23.6066C6.31873 23.3516 5.23312 23.0019 4.34423 22.5574C3.45534 22.1203 2.77774 21.6211 2.31144 21.0601C1.85243 20.5063 1.62292 19.9272 1.62292 19.3224C1.62292 18.7468 1.78685 18.2186 2.11472 17.7378C2.44259 17.2496 2.87974 16.816 3.42619 16.4372C3.97264 16.0583 4.57738 15.7377 5.2404 15.4754C5.91072 15.2059 6.58832 15.0018 7.2732 14.8634C7.96537 14.7177 8.61017 14.6448 9.20763 14.6448V16.2405C8.68303 16.2477 8.11108 16.3242 7.49177 16.47C6.87247 16.6084 6.28594 16.8015 5.73221 17.0492C5.17848 17.297 4.7231 17.592 4.36609 17.9345C4.01637 18.2769 3.84149 18.6522 3.84149 19.0602C3.84149 19.5338 4.04186 19.9672 4.4426 20.3607C4.8506 20.7541 5.41891 21.0929 6.14751 21.377C6.8834 21.6612 7.74678 21.8798 8.73767 22.0328C9.73585 22.1931 10.8251 22.2733 12.0054 22.2733C13.1785 22.2733 14.2604 22.1931 15.2513 22.0328C16.2495 21.8798 17.1128 21.6576 17.8415 21.3661C18.5775 21.082 19.1494 20.7432 19.5574 20.3498C19.9654 19.9636 20.1694 19.5338 20.1694 19.0602C20.1694 18.6522 19.9908 18.2769 19.6339 17.9345C19.2768 17.592 18.8214 17.297 18.2678 17.0492C17.714 16.8015 17.1275 16.6084 16.5081 16.47C15.8962 16.3242 15.3242 16.2477 14.7923 16.2405V14.6448C15.397 14.6448 16.0419 14.7177 16.7268 14.8634C17.419 15.0018 18.0965 15.2059 18.7595 15.4754C19.4298 15.7377 20.0382 16.0583 20.5846 16.4372C21.1312 16.816 21.5646 17.2496 21.8852 17.7378C22.213 18.2186 22.3771 18.7468 22.3771 19.3224C22.3771 19.9272 22.1475 20.5063 21.6885 21.0601C21.2295 21.6211 20.5555 22.1203 19.6667 22.5574C18.7777 23.0019 17.6885 23.3516 16.3988 23.6066C15.1166 23.8689 13.6521 24 12.0054 24Z" fill="black"/>
</svg>
