<svg width="24" height="24" viewBox="0 0 24 24" fill="none" xmlns="http://www.w3.org/2000/svg">
<path d="M4.09003 9.99842V6.11095C4.09003 4.12383 5.09325 3.12061 7.10933 3.12061H20.2862C22.3022 3.12061 23.3151 4.11417 23.3151 6.11095V9.99842H21.7621V6.02415C21.7621 5.12703 21.2894 4.67367 20.4308 4.67367H6.98393C6.1254 4.67367 5.64309 5.12703 5.64309 6.02415V9.99842H4.09003ZM1.32154 5.49359C0.675241 5.49359 0.144694 4.9727 0.144694 4.31675C0.144694 3.67045 0.675241 3.14954 1.32154 3.14954C1.96784 3.14954 2.48875 3.67045 2.48875 4.31675C2.48875 4.9727 1.96784 5.49359 1.32154 5.49359ZM1.32154 9.32318C0.675241 9.32318 0.144694 8.79264 0.144694 8.14634C0.144694 7.50003 0.675241 6.97912 1.32154 6.97912C1.96784 6.97912 2.48875 7.50003 2.48875 8.14634C2.48875 8.79264 1.96784 9.32318 1.32154 9.32318ZM24 11.9952C24 12.3714 23.6913 12.6801 23.3151 12.6801H2.42122C2.19935 13.0563 1.78456 13.2975 1.32154 13.2975C0.59807 13.2975 0 12.709 0 11.9856C0 11.2621 0.59807 10.6737 1.32154 10.6737C1.78456 10.6737 2.21865 10.9245 2.44052 11.32H23.3151C23.6913 11.32 24 11.619 24 11.9952ZM5.64309 13.992V17.976C5.64309 18.873 6.1254 19.3263 6.98393 19.3263H20.4308C21.2894 19.3263 21.7621 18.873 21.7621 17.976V13.992H23.3151V17.8891C23.3151 19.8858 22.3022 20.8794 20.2862 20.8794H7.10933C5.09325 20.8794 4.09003 19.8762 4.09003 17.8891V13.992H5.64309ZM1.32154 16.963C0.675241 16.963 0.144694 16.4421 0.144694 15.7959C0.144694 15.1399 0.675241 14.619 1.32154 14.619C1.96784 14.619 2.48875 15.1399 2.48875 15.7959C2.48875 16.4421 1.96784 16.963 1.32154 16.963ZM1.32154 20.7926C0.675241 20.7926 0.144694 20.2621 0.144694 19.6158C0.144694 18.9694 0.675241 18.4485 1.32154 18.4485C1.96784 18.4485 2.48875 18.9694 2.48875 19.6158C2.48875 20.2621 1.96784 20.7926 1.32154 20.7926Z" fill="black"/>
</svg>
