<svg width="24" height="24" viewBox="0 0 24 24" fill="none" xmlns="http://www.w3.org/2000/svg">
<path d="M4.20001 15.1C3.41922 14.3631 2.8184 13.4565 2.444 12.4503C2.0696 11.4441 1.93166 10.3653 2.04084 9.29728C2.15003 8.22925 2.50342 7.20064 3.07368 6.29102C3.64393 5.3814 4.41578 4.61513 5.32952 4.05149C6.24325 3.48785 7.27439 3.14193 8.34318 3.0405C9.41198 2.93907 10.4898 3.08483 11.4932 3.46652C12.4967 3.84821 13.3989 4.4556 14.1301 5.24171C14.8613 6.02782 15.4019 6.97158 15.71 8H17.5C18.4539 8.01286 19.379 8.32852 20.1418 8.90141C20.9046 9.4743 21.4655 10.2748 21.7437 11.1873C22.0219 12.0998 22.003 13.0771 21.6895 13.9781C21.3761 14.8791 20.7845 15.6572 20 16.2" stroke="black" stroke-width="1.5" stroke-linecap="round" stroke-linejoin="round"/>
<path d="M12 13V21" stroke="black" stroke-width="1.5" stroke-linecap="round" stroke-linejoin="round"/>
<path d="M8 17L12 21L16 17" stroke="black" stroke-width="1.5" stroke-linecap="round" stroke-linejoin="round"/>
</svg>
