<svg width="24" height="24" viewBox="0 0 24 24" fill="none" xmlns="http://www.w3.org/2000/svg"><path d="M11.601 0.064 C 11.045 0.214,10.632 0.671,10.524 1.259 C 10.493 1.422,10.480 3.248,10.480 7.176 L 10.480 12.858 8.670 11.051 C 6.575 8.960,6.655 9.021,6.000 9.021 C 5.672 9.021,5.589 9.035,5.391 9.128 C 4.765 9.420,4.395 10.103,4.520 10.736 C 4.619 11.237,4.523 11.130,7.916 14.532 C 10.787 17.410,11.125 17.736,11.351 17.844 C 11.818 18.069,12.365 18.036,12.800 17.758 C 12.899 17.695,14.395 16.225,16.124 14.492 C 19.531 11.076,19.394 11.230,19.479 10.706 C 19.580 10.079,19.210 9.413,18.600 9.125 C 18.411 9.036,18.326 9.021,18.000 9.021 C 17.344 9.021,17.425 8.960,15.330 11.051 L 13.520 12.859 13.520 7.177 C 13.520 3.249,13.507 1.422,13.476 1.259 C 13.366 0.662,12.954 0.211,12.381 0.062 C 12.091 -0.014,11.888 -0.013,11.601 0.064 M2.320 16.582 C 1.985 16.654,1.405 16.942,1.101 17.188 C 0.657 17.548,0.310 18.067,0.117 18.660 C 0.033 18.919,0.025 19.028,0.009 20.090 C -0.009 21.361,0.020 21.625,0.233 22.149 C 0.514 22.839,1.161 23.486,1.850 23.767 C 2.459 24.014,1.827 24.000,12.000 24.000 C 22.173 24.000,21.541 24.014,22.150 23.767 C 22.839 23.486,23.486 22.839,23.767 22.149 C 23.981 21.624,24.009 21.361,23.989 20.090 C 23.973 19.036,23.964 18.917,23.882 18.660 C 23.611 17.817,23.088 17.207,22.300 16.817 C 21.702 16.520,21.717 16.521,18.801 16.521 L 16.223 16.520 15.021 17.714 C 13.718 19.010,13.556 19.137,12.947 19.340 C 12.328 19.546,11.701 19.547,11.060 19.344 C 10.466 19.155,10.323 19.044,8.998 17.731 L 7.776 16.520 5.178 16.523 C 3.119 16.526,2.526 16.538,2.320 16.582 M20.730 19.244 C 21.125 19.441,21.322 19.742,21.352 20.190 C 21.369 20.456,21.360 20.503,21.244 20.738 C 21.037 21.158,20.704 21.361,20.225 21.359 C 19.614 21.357,19.149 20.884,19.143 20.257 C 19.138 19.758,19.415 19.362,19.888 19.193 C 20.149 19.100,20.484 19.120,20.730 19.244 " stroke="none" fill-rule="evenodd"></path></svg>