<svg width="24" height="24" viewBox="0 0 24 24" fill="none" xmlns="http://www.w3.org/2000/svg"><path d="M2.805 4.762 C 2.037 4.963,1.421 5.536,1.130 6.323 L 1.020 6.620 1.020 12.000 L 1.020 17.380 1.131 17.680 C 1.351 18.280,1.794 18.786,2.334 19.056 C 2.893 19.336,2.536 19.320,8.333 19.320 C 12.970 19.320,13.597 19.313,13.814 19.257 C 14.661 19.040,15.320 18.394,15.590 17.518 C 15.652 17.319,15.659 16.841,15.670 12.140 C 15.681 7.542,15.676 6.946,15.619 6.664 C 15.463 5.893,15.002 5.283,14.312 4.936 C 13.781 4.668,14.081 4.681,8.320 4.683 C 3.291 4.684,3.089 4.687,2.805 4.762 M21.532 5.921 C 21.439 5.940,21.322 5.976,21.272 6.001 C 21.221 6.027,20.213 6.689,19.031 7.474 L 16.882 8.900 16.882 12.000 L 16.882 15.100 19.040 16.536 C 20.534 17.530,21.270 17.996,21.429 18.050 C 22.017 18.250,22.687 17.914,22.914 17.306 L 23.000 17.077 23.000 12.000 L 23.000 6.923 22.915 6.695 C 22.707 6.141,22.105 5.804,21.532 5.921 " stroke="none" fill-rule="evenodd"></path></svg>