<svg width="24" height="24" viewBox="0 0 24 24" fill="none" xmlns="http://www.w3.org/2000/svg"><path d="M2.980 0.965 C 1.368 1.169,0.434 2.009,0.094 3.560 C 0.023 3.885,0.020 4.252,0.020 12.000 C 0.020 19.748,0.023 20.115,0.094 20.440 C 0.440 22.021,1.386 22.851,3.059 23.043 C 3.300 23.070,6.353 23.080,12.260 23.071 L 21.100 23.057 21.440 22.972 C 22.858 22.618,23.595 21.861,23.906 20.440 C 23.977 20.115,23.980 19.748,23.980 12.000 C 23.980 4.252,23.977 3.885,23.906 3.560 C 23.562 1.987,22.638 1.167,20.980 0.964 C 20.538 0.910,3.410 0.911,2.980 0.965 M21.180 6.557 C 21.492 6.682,21.798 6.990,21.926 7.308 L 22.020 7.540 22.020 13.780 L 22.020 20.020 21.929 20.246 C 21.737 20.720,21.308 21.035,20.740 21.120 C 20.550 21.149,17.687 21.159,11.820 21.151 L 3.180 21.140 2.914 21.050 C 2.448 20.891,2.107 20.499,2.002 20.000 C 1.967 19.837,1.959 18.192,1.968 13.660 L 1.980 7.540 2.070 7.317 C 2.235 6.911,2.575 6.609,2.997 6.495 C 3.140 6.456,5.112 6.447,12.060 6.453 L 20.940 6.460 21.180 6.557 M9.298 9.005 C 9.134 9.085,9.102 9.196,9.087 9.742 C 9.061 10.695,9.102 10.740,10.022 10.740 C 10.916 10.740,10.932 10.722,10.913 9.767 L 10.900 9.153 10.788 9.056 C 10.679 8.963,10.657 8.960,10.028 8.963 C 9.671 8.964,9.343 8.983,9.298 9.005 M13.272 9.022 C 13.122 9.103,13.080 9.289,13.082 9.860 C 13.086 10.656,13.144 10.726,13.830 10.753 C 14.428 10.777,14.668 10.738,14.810 10.597 L 14.925 10.481 14.913 9.817 L 14.900 9.153 14.788 9.056 C 14.679 8.963,14.656 8.960,14.028 8.962 C 13.536 8.963,13.354 8.977,13.272 9.022 M17.293 9.008 C 17.141 9.081,17.100 9.258,17.100 9.840 C 17.100 10.666,17.145 10.722,17.830 10.751 C 18.425 10.777,18.667 10.739,18.810 10.597 L 18.925 10.481 18.913 9.817 L 18.900 9.153 18.788 9.056 C 18.679 8.963,18.657 8.960,18.028 8.963 C 17.662 8.964,17.342 8.984,17.293 9.008 M5.370 12.923 C 5.134 12.995,5.100 13.101,5.100 13.780 C 5.100 14.662,5.118 14.680,5.997 14.680 C 6.898 14.680,6.920 14.658,6.920 13.784 C 6.920 12.911,6.914 12.904,6.080 12.892 C 5.761 12.887,5.442 12.901,5.370 12.923 M9.370 12.923 C 9.141 12.992,9.101 13.106,9.088 13.738 C 9.075 14.358,9.119 14.529,9.320 14.629 C 9.448 14.693,10.497 14.698,10.675 14.636 C 10.883 14.563,10.920 14.438,10.920 13.808 C 10.920 13.209,10.888 13.051,10.749 12.960 C 10.642 12.889,9.577 12.860,9.370 12.923 M13.360 12.930 C 13.131 13.011,13.080 13.166,13.080 13.780 C 13.080 14.195,13.094 14.328,13.150 14.439 C 13.257 14.653,13.349 14.679,13.991 14.679 C 14.632 14.680,14.813 14.635,14.880 14.459 C 14.934 14.318,14.931 13.229,14.877 13.110 C 14.794 12.928,14.699 12.901,14.080 12.891 C 13.697 12.884,13.453 12.898,13.360 12.930 M17.370 12.923 C 17.134 12.995,17.100 13.101,17.100 13.780 C 17.100 14.662,17.118 14.680,17.997 14.680 C 18.898 14.680,18.920 14.658,18.920 13.784 C 18.920 12.911,18.914 12.904,18.080 12.892 C 17.761 12.887,17.442 12.901,17.370 12.923 M5.271 16.902 C 5.113 16.988,5.070 17.202,5.086 17.820 C 5.107 18.611,5.165 18.658,6.100 18.634 C 6.906 18.613,6.932 18.581,6.913 17.647 L 6.900 17.033 6.788 16.936 C 6.679 16.843,6.656 16.840,6.028 16.842 C 5.535 16.843,5.354 16.857,5.271 16.902 M9.298 16.885 C 9.134 16.965,9.102 17.076,9.087 17.622 C 9.070 18.228,9.113 18.448,9.270 18.550 C 9.433 18.657,10.482 18.674,10.679 18.572 C 10.903 18.457,10.923 18.378,10.911 17.666 L 10.900 17.033 10.788 16.936 C 10.679 16.843,10.657 16.840,10.028 16.843 C 9.671 16.844,9.343 16.863,9.298 16.885 M13.271 16.902 C 13.113 16.988,13.070 17.202,13.086 17.820 C 13.107 18.600,13.152 18.639,14.031 18.640 C 14.881 18.640,14.920 18.600,14.920 17.708 L 14.920 17.074 14.803 16.957 L 14.686 16.840 14.033 16.842 C 13.536 16.843,13.354 16.857,13.271 16.902 " stroke="none" fill-rule="evenodd"></path></svg>