<svg width="24" height="24" viewBox="0 0 24 24" fill="none" xmlns="http://www.w3.org/2000/svg"><path d="M11.380 0.059 C 10.730 0.180,10.279 0.430,9.760 0.958 C 9.335 1.391,9.122 1.719,8.896 2.291 L 8.746 2.673 8.405 2.821 C 7.716 3.120,7.207 3.476,6.671 4.033 C 5.824 4.913,5.244 6.131,4.905 7.748 C 4.710 8.672,4.620 9.459,4.561 10.740 C 4.477 12.580,4.206 13.874,3.763 14.546 C 3.679 14.675,3.318 15.086,2.961 15.460 C 1.751 16.730,1.423 17.281,1.423 18.040 C 1.423 18.307,1.442 18.423,1.513 18.580 C 1.705 19.005,2.141 19.310,2.680 19.397 C 3.043 19.456,20.957 19.456,21.320 19.397 C 22.029 19.283,22.510 18.826,22.583 18.197 C 22.662 17.515,22.308 16.831,21.334 15.786 C 20.323 14.701,20.243 14.603,20.060 14.220 C 19.708 13.485,19.519 12.427,19.439 10.740 C 19.279 7.361,18.565 5.212,17.150 3.854 C 16.671 3.394,16.019 2.979,15.378 2.725 C 15.273 2.684,15.234 2.622,15.105 2.293 C 15.021 2.083,14.878 1.783,14.787 1.627 C 14.572 1.262,13.940 0.617,13.613 0.428 C 12.961 0.052,12.145 -0.083,11.380 0.059 M8.560 21.074 C 8.560 21.222,8.725 21.787,8.841 22.036 C 9.174 22.747,9.870 23.412,10.611 23.727 C 11.215 23.984,12.009 24.065,12.686 23.937 C 14.067 23.676,15.191 22.539,15.419 21.170 L 15.447 21.000 12.004 21.000 C 8.686 21.000,8.560 21.003,8.560 21.074 " stroke="none" fill-rule="evenodd"></path></svg>