<svg width="24" height="24" viewBox="0 0 24 24" fill="none" xmlns="http://www.w3.org/2000/svg"><path d="M5.060 3.604 C 4.789 3.659,4.343 3.878,4.085 4.083 C 3.446 4.592,3.129 5.551,3.337 6.344 C 3.371 6.474,3.795 7.768,4.279 9.220 C 4.764 10.671,5.160 11.922,5.160 11.999 C 5.160 12.076,4.742 13.390,4.232 14.919 L 3.304 17.700 3.288 18.111 C 3.273 18.469,3.284 18.563,3.374 18.853 C 3.611 19.613,4.245 20.200,5.030 20.385 C 5.365 20.464,5.884 20.438,6.200 20.327 C 6.366 20.269,19.714 14.127,21.260 13.397 C 21.628 13.224,21.918 12.946,22.065 12.629 C 22.166 12.410,22.180 12.334,22.180 12.000 C 22.180 11.666,22.166 11.590,22.065 11.371 C 21.927 11.073,21.667 10.815,21.335 10.648 C 20.741 10.348,6.468 3.776,6.220 3.689 C 5.902 3.576,5.386 3.538,5.060 3.604 M13.218 8.540 C 17.321 10.432,20.678 11.989,20.678 12.000 C 20.678 12.011,17.313 13.572,13.199 15.470 C 6.347 18.631,5.702 18.920,5.513 18.920 C 5.252 18.920,5.012 18.786,4.893 18.574 C 4.704 18.237,4.675 18.360,5.646 15.443 L 6.539 12.760 10.799 12.760 C 13.785 12.760,15.108 12.746,15.219 12.715 C 15.431 12.657,15.660 12.422,15.719 12.204 C 15.808 11.873,15.689 11.566,15.394 11.372 L 15.226 11.260 10.882 11.249 L 6.538 11.238 5.645 8.556 C 4.675 5.641,4.704 5.763,4.893 5.427 C 5.022 5.196,5.247 5.076,5.529 5.089 C 5.738 5.099,6.398 5.395,13.218 8.540 " stroke="none" fill-rule="evenodd"></path></svg>