<svg width="24" height="24" viewBox="0 0 24 24" fill="none" xmlns="http://www.w3.org/2000/svg"><path d="M17.421 2.725 C 16.636 2.839,15.834 3.145,15.120 3.603 C 14.542 3.973,14.342 4.281,14.341 4.800 C 14.340 5.135,14.390 5.292,14.586 5.564 C 14.746 5.787,14.956 5.932,15.241 6.017 C 15.641 6.135,15.973 6.073,16.395 5.800 C 16.781 5.550,17.101 5.402,17.434 5.316 C 19.221 4.859,21.002 5.959,21.382 7.754 C 21.491 8.269,21.433 9.075,21.255 9.508 C 21.124 9.827,20.948 10.141,20.780 10.357 C 20.534 10.673,15.817 15.364,15.600 15.509 C 15.311 15.702,15.029 15.832,14.652 15.945 C 14.353 16.035,14.225 16.051,13.800 16.051 C 13.375 16.051,13.247 16.035,12.948 15.945 C 12.065 15.679,11.379 15.128,10.986 14.368 C 10.705 13.822,10.623 13.483,10.623 12.860 C 10.623 12.117,10.758 11.678,11.201 10.994 C 11.290 10.856,11.391 10.645,11.426 10.525 C 11.588 9.967,11.309 9.358,10.760 9.073 C 10.484 8.930,9.996 8.919,9.712 9.050 C 9.421 9.183,9.268 9.323,9.043 9.656 C 7.541 11.882,7.780 14.836,9.620 16.791 C 10.444 17.666,11.481 18.240,12.721 18.507 C 13.198 18.610,14.397 18.610,14.880 18.507 C 15.357 18.406,15.973 18.194,16.366 17.997 C 17.156 17.601,17.239 17.526,20.084 14.683 C 22.477 12.292,22.776 11.979,23.013 11.618 C 23.453 10.950,23.751 10.227,23.908 9.451 C 24.015 8.923,24.005 7.794,23.890 7.273 C 23.362 4.894,21.582 3.163,19.246 2.759 C 18.760 2.675,17.878 2.658,17.421 2.725 M9.580 5.425 C 8.492 5.591,7.791 5.852,6.958 6.402 C 6.629 6.619,6.232 7.000,3.916 9.316 C 1.601 11.631,1.219 12.029,1.003 12.358 C 0.560 13.028,0.275 13.696,0.115 14.442 C -0.005 14.997,-0.017 16.113,0.092 16.651 C 0.455 18.448,1.572 19.924,3.180 20.730 C 5.008 21.647,7.258 21.502,8.940 20.359 C 9.492 19.984,9.661 19.706,9.657 19.180 C 9.655 18.932,9.634 18.818,9.563 18.671 C 9.307 18.139,8.673 17.823,8.132 17.957 C 8.027 17.983,7.769 18.108,7.560 18.235 C 6.848 18.669,6.272 18.829,5.581 18.786 C 5.077 18.755,4.795 18.681,4.340 18.460 C 3.716 18.157,3.241 17.694,2.923 17.080 C 2.682 16.614,2.595 16.287,2.571 15.758 C 2.538 15.030,2.695 14.421,3.065 13.849 C 3.248 13.565,7.995 8.790,8.344 8.537 C 9.256 7.880,10.528 7.761,11.549 8.238 C 12.397 8.635,13.023 9.381,13.288 10.308 C 13.360 10.559,13.377 10.722,13.377 11.140 C 13.377 11.883,13.242 12.322,12.799 13.006 C 12.401 13.623,12.448 14.254,12.926 14.701 C 13.295 15.047,13.691 15.145,14.148 15.006 C 14.486 14.904,14.696 14.731,14.961 14.339 C 16.270 12.399,16.266 9.883,14.952 7.913 C 14.464 7.182,13.587 6.414,12.780 6.010 C 11.982 5.611,11.286 5.442,10.360 5.421 C 9.997 5.413,9.646 5.415,9.580 5.425 " stroke="none" fill-rule="evenodd"></path></svg>