<svg width="24" height="24" viewBox="0 0 24 24" fill="none" xmlns="http://www.w3.org/2000/svg"><path d="M3.499 3.043 C 2.380 3.232,1.461 4.048,1.114 5.160 C 1.023 5.451,1.020 5.503,1.020 6.883 L 1.020 8.306 1.141 8.503 C 1.543 9.156,2.457 9.156,2.859 8.503 L 2.980 8.307 3.000 7.023 C 3.023 5.581,3.025 5.571,3.321 5.283 C 3.636 4.978,2.950 5.000,12.000 5.000 C 21.108 5.000,20.368 4.974,20.697 5.303 C 21.023 5.629,21.000 5.126,21.000 12.001 C 21.000 17.059,20.991 18.139,20.945 18.290 C 20.872 18.533,20.707 18.740,20.484 18.872 L 20.300 18.980 17.020 19.000 C 14.517 19.015,13.713 19.032,13.627 19.070 C 13.428 19.158,13.239 19.328,13.128 19.516 C 13.037 19.672,13.020 19.746,13.020 20.000 C 13.020 20.257,13.036 20.327,13.133 20.492 C 13.261 20.711,13.502 20.901,13.726 20.962 C 13.828 20.989,15.011 20.999,17.230 20.992 L 20.580 20.980 20.887 20.875 C 21.841 20.550,22.550 19.841,22.875 18.887 L 22.980 18.580 22.980 12.020 L 22.980 5.460 22.886 5.160 C 22.581 4.182,21.832 3.428,20.861 3.121 L 20.540 3.020 12.120 3.014 C 7.489 3.011,3.609 3.024,3.499 3.043 M1.670 11.057 C 1.041 11.281,0.805 12.049,1.198 12.591 C 1.388 12.853,1.595 12.949,2.163 13.036 C 3.955 13.312,5.463 14.064,6.699 15.301 C 7.934 16.535,8.689 18.047,8.964 19.837 C 9.051 20.405,9.147 20.612,9.409 20.802 C 9.979 21.215,10.771 20.936,10.961 20.256 C 11.059 19.907,10.874 18.832,10.542 17.820 C 9.672 15.172,7.707 12.987,5.160 11.838 C 4.336 11.467,3.396 11.191,2.515 11.062 C 2.005 10.988,1.867 10.987,1.670 11.057 M1.650 15.066 C 1.293 15.193,1.000 15.614,1.000 16.002 C 1.000 16.316,1.196 16.677,1.453 16.836 C 1.527 16.882,1.766 16.965,1.983 17.022 C 2.794 17.233,3.346 17.542,3.902 18.098 C 4.459 18.655,4.769 19.208,4.978 20.021 C 5.098 20.483,5.223 20.689,5.486 20.851 C 6.007 21.173,6.738 20.915,6.934 20.340 C 7.019 20.090,7.017 19.933,6.922 19.540 C 6.381 17.291,4.640 15.571,2.388 15.062 C 2.055 14.986,1.873 14.988,1.650 15.066 M1.670 19.058 C 1.446 19.144,1.249 19.311,1.128 19.516 C 1.037 19.672,1.020 19.746,1.020 20.000 C 1.020 20.257,1.036 20.327,1.133 20.492 C 1.651 21.374,2.998 21.018,2.998 20.000 C 2.998 19.622,2.792 19.281,2.461 19.111 C 2.259 19.007,1.871 18.981,1.670 19.058 " stroke="none" fill-rule="evenodd" fill="black"></path></svg>