<svg width="24" height="24" viewBox="0 0 24 24" fill="none" xmlns="http://www.w3.org/2000/svg"><path d="M11.616 0.636 C 11.526 0.677,11.395 0.780,11.324 0.865 C 11.229 0.981,8.067 7.299,7.991 7.526 C 7.984 7.548,7.250 7.672,6.359 7.802 C 5.469 7.932,3.820 8.172,2.695 8.335 C 0.486 8.657,0.433 8.670,0.210 8.941 C -0.025 9.226,-0.063 9.596,0.110 9.911 C 0.191 10.059,0.902 10.775,2.800 12.621 C 4.219 14.002,5.402 15.152,5.429 15.176 C 5.468 15.212,5.347 15.989,4.859 18.833 C 4.519 20.819,4.240 22.511,4.240 22.592 C 4.241 22.819,4.408 23.136,4.599 23.275 C 4.808 23.426,5.084 23.489,5.315 23.437 C 5.410 23.415,6.942 22.633,8.718 21.699 C 10.495 20.765,11.972 20.000,12.000 20.000 C 12.028 20.000,13.505 20.765,15.282 21.699 C 17.058 22.633,18.590 23.415,18.685 23.437 C 18.913 23.488,19.191 23.427,19.393 23.281 C 19.580 23.145,19.760 22.808,19.760 22.594 C 19.760 22.511,19.481 20.818,19.140 18.833 C 18.650 15.978,18.531 15.213,18.570 15.177 C 19.099 14.693,23.771 10.102,23.848 9.990 C 24.133 9.578,23.986 8.983,23.539 8.732 C 23.348 8.625,23.597 8.666,19.441 8.063 C 17.561 7.790,16.016 7.548,16.009 7.526 C 15.933 7.299,12.771 0.981,12.676 0.865 C 12.434 0.573,11.974 0.474,11.616 0.636 " stroke="none" fill-rule="evenodd"></path></svg>