<svg width="24" height="24" viewBox="0 0 24 24" fill="none" xmlns="http://www.w3.org/2000/svg"><path d="M11.800 0.195 C 11.481 0.299,11.285 0.490,11.201 0.780 C 11.169 0.891,11.159 1.324,11.168 2.180 C 11.179 3.343,11.185 3.430,11.263 3.578 C 11.441 3.917,11.836 4.100,12.190 4.006 C 12.425 3.944,12.629 3.785,12.737 3.578 C 12.815 3.430,12.821 3.343,12.832 2.180 C 12.846 0.856,12.832 0.726,12.654 0.490 C 12.479 0.258,12.056 0.112,11.800 0.195 M3.860 3.436 C 3.447 3.627,3.252 4.105,3.422 4.511 C 3.505 4.711,5.160 6.374,5.383 6.481 C 6.057 6.808,6.808 6.057,6.481 5.383 C 6.374 5.160,4.711 3.505,4.511 3.422 C 4.314 3.340,4.056 3.345,3.860 3.436 M19.459 3.440 C 19.237 3.549,17.584 5.213,17.502 5.409 C 17.218 6.089,17.958 6.801,18.617 6.481 C 18.840 6.374,20.495 4.711,20.578 4.511 C 20.863 3.830,20.116 3.115,19.459 3.440 M11.620 6.784 C 10.410 6.899,9.407 7.325,8.511 8.106 C 7.168 9.276,6.504 11.237,6.860 12.980 C 7.108 14.193,7.644 15.117,8.590 15.961 C 9.538 16.807,10.925 17.291,12.220 17.228 C 14.936 17.095,17.071 14.976,17.225 12.261 C 17.246 11.877,17.242 11.851,17.134 11.640 C 16.913 11.213,16.440 11.053,16.026 11.267 C 15.962 11.300,15.809 11.410,15.685 11.510 C 15.292 11.831,14.805 12.000,14.282 11.999 C 13.630 11.998,13.145 11.794,12.676 11.325 C 12.174 10.822,11.961 10.251,12.013 9.543 C 12.049 9.040,12.198 8.672,12.528 8.271 C 12.891 7.829,12.930 7.463,12.652 7.090 C 12.468 6.842,12.114 6.737,11.620 6.784 M10.372 9.140 C 10.294 9.571,10.328 10.183,10.458 10.697 C 10.750 11.848,11.549 12.809,12.628 13.307 C 13.290 13.613,14.212 13.746,14.860 13.628 C 15.036 13.596,15.184 13.573,15.190 13.578 C 15.195 13.583,15.132 13.697,15.050 13.833 C 14.574 14.618,13.916 15.127,13.000 15.419 C 12.555 15.561,11.855 15.599,11.378 15.509 C 9.727 15.195,8.542 13.852,8.452 12.192 C 8.407 11.370,8.610 10.654,9.086 9.951 C 9.255 9.702,9.578 9.359,9.800 9.191 C 9.958 9.072,10.410 8.796,10.422 8.810 C 10.427 8.816,10.404 8.964,10.372 9.140 M0.800 11.196 C 0.472 11.299,0.278 11.496,0.194 11.811 C 0.100 12.163,0.283 12.559,0.622 12.737 C 0.773 12.816,0.843 12.820,2.100 12.820 C 3.357 12.820,3.427 12.816,3.578 12.737 C 3.917 12.559,4.100 12.163,4.006 11.811 C 3.941 11.567,3.798 11.382,3.588 11.270 C 3.425 11.183,3.381 11.180,2.160 11.172 C 1.467 11.168,0.855 11.179,0.800 11.196 M20.600 11.196 C 20.272 11.299,20.078 11.496,19.994 11.811 C 19.900 12.163,20.083 12.559,20.422 12.737 C 20.573 12.816,20.643 12.820,21.900 12.820 C 23.157 12.820,23.227 12.816,23.378 12.737 C 23.717 12.559,23.900 12.163,23.806 11.811 C 23.741 11.567,23.598 11.382,23.388 11.270 C 23.225 11.183,23.181 11.180,21.960 11.172 C 21.267 11.168,20.655 11.179,20.600 11.196 M5.379 17.520 C 5.157 17.629,3.504 19.293,3.422 19.489 C 3.138 20.169,3.878 20.881,4.537 20.561 C 4.760 20.454,6.415 18.791,6.498 18.591 C 6.783 17.910,6.036 17.195,5.379 17.520 M17.940 17.516 C 17.527 17.707,17.332 18.185,17.502 18.591 C 17.585 18.791,19.240 20.454,19.463 20.561 C 20.137 20.888,20.888 20.137,20.561 19.463 C 20.454 19.240,18.791 17.585,18.591 17.502 C 18.394 17.420,18.136 17.425,17.940 17.516 M11.800 19.995 C 11.481 20.099,11.285 20.290,11.201 20.580 C 11.169 20.691,11.159 21.124,11.168 21.980 C 11.179 23.143,11.185 23.230,11.263 23.378 C 11.371 23.585,11.575 23.744,11.810 23.806 C 12.164 23.900,12.559 23.717,12.737 23.378 C 12.815 23.230,12.821 23.143,12.832 21.980 C 12.846 20.656,12.832 20.526,12.654 20.290 C 12.479 20.058,12.056 19.912,11.800 19.995 " stroke="none" fill-rule="evenodd" fill="black"></path></svg>