<svg width="24" height="24" viewBox="0 0 24 24" fill="none" xmlns="http://www.w3.org/2000/svg"><path d="M11.616 0.636 C 11.526 0.677,11.395 0.780,11.324 0.865 C 11.229 0.980,8.067 7.299,7.992 7.525 C 7.978 7.567,7.853 7.586,3.655 8.196 C 1.340 8.533,0.614 8.651,0.492 8.714 C -0.010 8.970,-0.157 9.621,0.189 10.054 C 0.244 10.122,5.204 14.971,5.429 15.177 C 5.468 15.212,5.346 15.992,4.857 18.841 C 4.409 21.443,4.240 22.513,4.255 22.647 C 4.312 23.169,4.768 23.522,5.280 23.442 C 5.405 23.423,6.443 22.897,8.704 21.707 C 10.489 20.768,11.972 20.000,12.000 20.000 C 12.028 20.000,13.502 20.763,15.275 21.696 C 17.049 22.629,18.579 23.413,18.675 23.439 C 18.899 23.499,19.176 23.438,19.394 23.280 C 19.580 23.145,19.760 22.807,19.760 22.594 C 19.760 22.512,19.481 20.819,19.141 18.833 C 18.554 15.416,18.525 15.218,18.591 15.156 C 19.284 14.510,23.770 10.102,23.848 9.990 C 23.986 9.791,24.028 9.519,23.960 9.281 C 23.931 9.181,23.897 9.011,23.884 8.902 L 23.860 8.705 19.947 8.136 C 17.795 7.824,16.031 7.562,16.026 7.554 C 16.021 7.546,15.290 6.064,14.402 4.260 C 13.430 2.285,12.738 0.926,12.664 0.845 C 12.410 0.569,11.962 0.479,11.616 0.636 M13.528 5.889 L 15.030 8.938 18.368 9.423 C 20.204 9.690,21.728 9.916,21.754 9.925 C 21.781 9.934,20.704 11.011,19.361 12.318 C 18.019 13.626,16.920 14.715,16.920 14.738 C 16.920 14.761,17.175 16.269,17.487 18.090 C 17.798 19.910,18.044 21.409,18.033 21.420 C 18.022 21.431,16.660 20.729,15.006 19.859 L 12.000 18.278 8.994 19.859 C 7.340 20.729,5.978 21.431,5.967 21.420 C 5.956 21.409,6.202 19.910,6.513 18.090 C 6.825 16.269,7.080 14.761,7.080 14.738 C 7.080 14.715,5.981 13.626,4.639 12.318 C 3.296 11.011,2.219 9.934,2.245 9.925 C 2.271 9.916,3.795 9.691,5.631 9.424 L 8.970 8.938 10.472 5.889 C 11.298 4.212,11.986 2.840,12.000 2.840 C 12.014 2.840,12.702 4.212,13.528 5.889 " stroke="none" fill-rule="evenodd" fill="black"></path></svg>