<svg width="24" height="24" viewBox="0 0 24 24" fill="none" xmlns="http://www.w3.org/2000/svg"><path d="M11.040 0.841 C 8.780 1.056,6.759 1.867,4.980 3.275 C 4.578 3.593,3.805 4.354,3.411 4.820 C 2.702 5.657,1.978 6.885,1.534 8.000 C 1.394 8.353,1.383 8.410,1.382 8.801 C 1.380 9.197,1.388 9.237,1.511 9.487 C 1.677 9.825,2.025 10.157,2.349 10.285 C 2.531 10.358,2.660 10.377,2.960 10.378 C 3.306 10.380,3.364 10.369,3.610 10.252 C 3.919 10.106,4.218 9.826,4.349 9.560 C 4.398 9.461,4.519 9.182,4.619 8.940 C 5.364 7.123,6.768 5.647,8.580 4.774 C 10.756 3.727,13.354 3.750,15.541 4.836 C 16.483 5.304,17.042 5.720,17.938 6.620 L 18.496 7.180 17.478 7.203 C 16.918 7.216,16.405 7.245,16.339 7.268 C 15.895 7.420,15.575 7.698,15.371 8.111 C 15.228 8.399,15.220 8.437,15.220 8.798 C 15.220 9.142,15.232 9.206,15.344 9.442 C 15.558 9.894,15.857 10.164,16.312 10.317 C 16.552 10.398,16.631 10.400,19.595 10.400 C 22.511 10.400,22.642 10.397,22.886 10.321 C 23.319 10.185,23.719 9.812,23.901 9.371 C 23.977 9.187,23.980 9.064,23.991 6.120 C 23.998 4.158,23.988 2.992,23.962 2.871 C 23.857 2.381,23.556 2.001,23.089 1.771 C 22.801 1.628,22.763 1.620,22.402 1.620 C 22.057 1.620,21.995 1.632,21.755 1.746 C 21.444 1.893,21.212 2.091,21.046 2.352 C 20.826 2.699,20.800 2.871,20.799 3.977 L 20.798 4.980 20.569 4.723 C 20.214 4.324,19.227 3.427,18.740 3.060 C 18.120 2.594,17.677 2.323,16.940 1.960 C 15.775 1.387,14.737 1.071,13.458 0.899 C 12.887 0.822,11.571 0.791,11.040 0.841 M1.210 13.662 C 0.722 13.793,0.393 14.062,0.171 14.510 L 0.020 14.816 0.009 17.917 C -0.002 20.925,0.000 21.026,0.078 21.279 C 0.277 21.927,0.920 22.400,1.600 22.400 C 2.277 22.400,2.920 21.929,3.121 21.286 C 3.191 21.061,3.200 20.917,3.200 20.051 L 3.200 19.070 3.750 19.605 C 5.068 20.887,5.882 21.480,7.180 22.103 C 9.861 23.390,12.873 23.549,15.746 22.557 C 16.334 22.354,17.445 21.814,17.991 21.466 C 19.364 20.590,20.640 19.308,21.501 17.940 C 21.788 17.485,22.309 16.422,22.501 15.900 C 22.639 15.527,22.648 15.477,22.632 15.140 C 22.613 14.703,22.498 14.422,22.219 14.123 C 21.761 13.633,21.105 13.481,20.477 13.718 C 20.020 13.890,19.726 14.220,19.483 14.830 C 19.151 15.666,18.730 16.397,18.211 17.040 C 17.925 17.394,17.239 18.066,16.900 18.326 C 14.417 20.222,11.174 20.528,8.380 19.130 C 7.558 18.718,7.088 18.364,6.120 17.430 L 5.467 16.800 6.449 16.800 C 7.317 16.800,7.461 16.791,7.686 16.721 C 8.517 16.461,8.994 15.532,8.717 14.712 C 8.528 14.151,8.099 13.766,7.528 13.645 C 7.187 13.573,1.485 13.588,1.210 13.662 " stroke="none" fill-rule="evenodd"></path></svg>