<svg width="24" height="24" viewBox="0 0 24 24" fill="none" xmlns="http://www.w3.org/2000/svg"><path d="M9.820 1.384 C 8.088 1.560,6.568 2.052,5.204 2.877 C 0.979 5.434,-0.958 10.425,0.461 15.098 C 1.312 17.903,3.303 20.244,5.940 21.540 C 7.472 22.292,8.963 22.640,10.660 22.640 C 14.536 22.640,18.070 20.566,19.972 17.174 C 20.224 16.725,20.255 16.563,20.111 16.462 C 19.988 16.376,18.428 16.371,18.224 16.456 C 18.127 16.496,18.001 16.637,17.759 16.977 C 16.249 19.094,14.040 20.383,11.486 20.639 C 7.480 21.039,3.682 18.554,2.420 14.705 C 2.117 13.782,2.001 13.025,2.000 11.979 C 2.000 10.968,2.119 10.216,2.429 9.268 C 3.440 6.174,6.129 3.916,9.400 3.414 C 10.032 3.317,11.288 3.317,11.920 3.414 C 13.544 3.663,15.016 4.330,16.280 5.390 C 16.851 5.868,17.469 6.564,17.915 7.230 C 18.162 7.598,18.169 7.600,19.169 7.600 C 19.876 7.600,20.037 7.589,20.111 7.538 C 20.262 7.432,20.226 7.272,19.935 6.763 C 18.297 3.894,15.527 1.986,12.260 1.475 C 11.760 1.397,10.250 1.341,9.820 1.384 M9.658 6.938 L 9.560 7.036 9.560 10.516 L 9.560 13.996 9.650 14.095 C 9.812 14.274,13.777 17.135,13.886 17.152 C 13.945 17.161,14.021 17.152,14.056 17.133 C 14.145 17.083,14.878 16.079,14.906 15.967 C 14.919 15.916,14.911 15.833,14.888 15.782 C 14.865 15.731,14.073 15.133,13.105 14.435 L 11.363 13.180 11.362 10.148 C 11.360 6.936,11.360 6.935,11.178 6.865 C 11.143 6.851,10.808 6.840,10.435 6.840 C 9.768 6.840,9.755 6.842,9.658 6.938 M16.662 9.344 C 16.607 9.398,16.600 9.516,16.609 10.173 L 16.620 10.938 16.720 10.989 C 16.799 11.029,17.557 11.037,20.353 11.030 C 23.799 11.020,23.888 11.018,23.943 10.942 C 23.987 10.882,24.000 10.703,24.000 10.139 C 24.000 9.486,23.993 9.406,23.927 9.346 C 23.860 9.286,23.550 9.280,20.290 9.280 C 17.083 9.280,16.719 9.286,16.662 9.344 M16.648 13.048 C 16.614 13.082,16.600 13.316,16.600 13.845 C 16.600 14.473,16.610 14.604,16.663 14.657 C 16.718 14.712,16.939 14.720,18.481 14.720 L 20.235 14.720 20.298 14.631 C 20.348 14.559,20.360 14.411,20.360 13.837 C 20.360 13.205,20.352 13.126,20.287 13.066 C 20.221 13.007,20.035 13.000,18.455 13.000 C 17.140 13.000,16.684 13.012,16.648 13.048 " stroke="none" fill-rule="evenodd"></path></svg>