<svg width="24" height="24" viewBox="0 0 24 24" fill="none" xmlns="http://www.w3.org/2000/svg"><path d="M11.285 1.281 C 6.006 1.636,1.807 5.731,1.301 11.020 C 1.226 11.811,1.225 12.216,1.299 12.960 C 1.440 14.387,1.763 15.524,2.381 16.780 C 3.959 19.984,7.026 22.170,10.640 22.666 C 11.252 22.750,12.546 22.759,13.180 22.684 C 14.503 22.527,15.848 22.116,17.000 21.515 C 17.545 21.231,18.437 20.643,18.578 20.475 C 18.864 20.135,18.782 19.628,18.400 19.375 C 18.268 19.288,18.190 19.267,17.997 19.267 C 17.766 19.267,17.743 19.277,17.309 19.568 C 16.102 20.376,15.098 20.803,13.755 21.076 C 12.531 21.325,10.961 21.282,9.740 20.965 C 8.065 20.531,6.621 19.700,5.412 18.474 C 4.085 17.128,3.239 15.479,2.891 13.562 C 2.796 13.039,2.785 12.883,2.785 12.020 C 2.784 10.980,2.847 10.445,3.062 9.651 C 3.816 6.868,5.792 4.581,8.376 3.501 C 9.654 2.967,10.619 2.779,12.060 2.782 C 12.833 2.784,13.062 2.798,13.492 2.875 C 15.540 3.237,17.258 4.146,18.673 5.618 C 19.836 6.827,20.611 8.258,21.004 9.920 C 21.162 10.587,21.207 11.039,21.228 12.160 C 21.251 13.398,21.224 13.613,20.989 14.056 C 20.824 14.369,20.370 14.823,20.060 14.987 C 19.413 15.328,18.587 15.328,17.940 14.987 C 17.630 14.823,17.176 14.369,17.011 14.056 C 16.762 13.585,16.761 13.576,16.760 10.620 C 16.760 8.902,16.745 7.887,16.718 7.791 C 16.668 7.610,16.513 7.419,16.345 7.332 C 16.183 7.248,15.817 7.248,15.655 7.332 C 15.363 7.484,15.241 7.748,15.240 8.230 L 15.240 8.521 15.010 8.334 C 14.258 7.721,13.388 7.368,12.425 7.284 C 10.958 7.157,9.592 7.669,8.575 8.729 C 7.043 10.326,6.822 12.728,8.034 14.600 C 8.320 15.041,8.959 15.680,9.400 15.966 C 11.003 17.004,12.997 17.004,14.600 15.966 C 14.796 15.840,15.117 15.570,15.356 15.333 C 15.585 15.105,15.775 14.924,15.779 14.930 C 15.782 14.935,15.879 15.069,15.994 15.227 C 16.688 16.178,17.801 16.737,19.000 16.737 C 20.017 16.737,20.922 16.362,21.642 15.642 C 22.008 15.276,22.266 14.894,22.452 14.440 C 22.711 13.810,22.740 13.596,22.740 12.340 C 22.739 11.155,22.704 10.720,22.538 9.895 C 21.483 4.616,16.656 0.921,11.285 1.281 M12.914 8.878 C 13.422 9.024,13.807 9.250,14.235 9.658 C 14.681 10.083,14.968 10.548,15.129 11.108 C 15.258 11.558,15.258 12.442,15.129 12.892 C 14.962 13.474,14.671 13.934,14.188 14.384 C 13.555 14.972,12.869 15.240,12.000 15.240 C 11.131 15.240,10.445 14.972,9.812 14.384 C 9.329 13.934,9.038 13.474,8.871 12.892 C 8.742 12.442,8.742 11.558,8.871 11.108 C 9.023 10.578,9.246 10.198,9.658 9.765 C 10.164 9.233,10.725 8.928,11.433 8.798 C 11.754 8.740,12.585 8.785,12.914 8.878 " stroke="none" fill-rule="evenodd" fill="black"></path></svg>