<svg width="24" height="24" viewBox="0 0 24 24" fill="none" xmlns="http://www.w3.org/2000/svg"><path d="M11.200 0.025 C 7.677 0.288,4.535 1.992,2.410 4.793 C 1.201 6.386,0.442 8.222,0.109 10.359 C -0.013 11.143,-0.013 12.857,0.109 13.641 C 0.563 16.554,1.872 19.025,3.948 20.887 C 5.791 22.541,7.832 23.497,10.359 23.891 C 11.143 24.013,12.857 24.013,13.641 23.891 C 16.557 23.436,19.036 22.122,20.896 20.043 C 22.545 18.200,23.498 16.163,23.891 13.641 C 24.013 12.857,24.013 11.143,23.891 10.359 C 23.557 8.220,22.799 6.386,21.588 4.790 C 19.607 2.180,16.766 0.532,13.500 0.099 C 13.032 0.037,11.640 -0.007,11.200 0.025 M13.280 2.120 C 13.816 2.197,14.410 2.325,14.880 2.467 C 18.065 3.430,20.570 5.935,21.533 9.120 C 21.829 10.100,21.938 10.877,21.938 12.000 C 21.938 13.123,21.829 13.900,21.533 14.880 C 20.530 18.198,17.887 20.741,14.507 21.639 C 13.600 21.880,13.125 21.937,12.000 21.937 C 10.902 21.937,10.448 21.885,9.556 21.659 C 8.208 21.317,6.829 20.625,5.720 19.734 C 3.975 18.331,2.678 16.191,2.245 14.000 C 2.096 13.242,2.062 12.872,2.062 12.000 C 2.062 10.877,2.171 10.100,2.467 9.120 C 3.419 5.971,5.864 3.497,9.007 2.501 C 9.536 2.334,10.235 2.183,10.760 2.123 C 10.969 2.099,11.203 2.072,11.280 2.063 C 11.524 2.035,12.968 2.076,13.280 2.120 M11.200 9.405 C 9.407 10.703,7.899 11.803,7.850 11.850 C 7.731 11.961,7.736 12.043,7.870 12.167 C 8.026 12.311,14.445 16.941,14.532 16.973 C 14.580 16.990,14.637 16.966,14.702 16.901 C 14.798 16.806,14.800 16.791,14.800 16.140 C 14.800 15.361,14.763 15.177,14.565 14.961 C 14.485 14.873,13.556 14.179,12.500 13.418 C 11.444 12.656,10.576 12.021,10.571 12.007 C 10.566 11.992,11.445 11.342,12.525 10.562 C 13.604 9.782,14.538 9.082,14.600 9.007 C 14.764 8.809,14.800 8.603,14.800 7.871 C 14.800 7.145,14.770 7.038,14.568 7.042 C 14.490 7.043,13.542 7.708,11.200 9.405 " stroke="none" fill-rule="evenodd"></path></svg>