<svg width="24" height="24" viewBox="0 0 24 24" fill="none" xmlns="http://www.w3.org/2000/svg"><path d="M11.500 1.266 C 8.070 1.428,4.905 3.231,3.017 6.100 C 2.155 7.410,1.605 8.861,1.354 10.488 C 1.228 11.307,1.228 12.693,1.354 13.512 C 1.721 15.893,2.746 17.936,4.405 19.595 C 5.638 20.828,7.048 21.689,8.724 22.233 C 9.359 22.438,9.777 22.536,10.488 22.646 C 11.247 22.762,12.655 22.772,13.380 22.666 C 15.112 22.412,16.595 21.853,17.960 20.940 C 20.264 19.399,21.925 16.972,22.499 14.309 C 22.686 13.437,22.736 12.957,22.736 12.000 C 22.736 10.468,22.483 9.210,21.895 7.805 C 20.651 4.836,18.079 2.569,14.923 1.661 C 13.895 1.365,12.590 1.214,11.500 1.266 M12.926 2.801 C 16.076 3.112,18.885 5.060,20.279 7.900 C 20.732 8.823,20.981 9.602,21.147 10.620 C 21.248 11.241,21.248 12.759,21.147 13.380 C 20.813 15.424,19.926 17.153,18.473 18.589 C 17.731 19.323,17.014 19.834,16.100 20.281 C 15.184 20.729,14.406 20.980,13.407 21.148 C 12.800 21.250,11.200 21.250,10.593 21.148 C 9.594 20.980,8.816 20.729,7.900 20.281 C 6.177 19.438,4.727 18.027,3.822 16.312 C 2.099 13.044,2.489 9.062,4.814 6.180 C 5.128 5.791,5.839 5.083,6.220 4.780 C 7.581 3.695,9.321 2.977,11.000 2.805 C 11.488 2.755,12.444 2.753,12.926 2.801 M11.427 6.282 C 10.113 6.435,8.844 7.445,8.414 8.681 C 8.307 8.990,8.312 9.106,8.444 9.367 C 8.535 9.547,8.691 9.662,8.931 9.726 C 9.307 9.827,9.622 9.628,9.840 9.152 C 10.250 8.257,10.986 7.761,11.900 7.761 C 12.890 7.761,13.701 8.327,14.031 9.247 C 14.117 9.487,14.137 9.612,14.138 9.940 C 14.140 10.302,14.129 10.363,14.024 10.580 C 13.741 11.164,12.632 11.977,11.708 12.278 C 11.488 12.350,11.258 12.584,11.201 12.795 C 11.086 13.223,11.321 13.610,11.765 13.726 C 11.930 13.769,11.981 13.764,12.225 13.683 C 13.321 13.320,14.622 12.408,15.135 11.643 C 15.521 11.069,15.654 10.632,15.655 9.940 C 15.656 9.167,15.450 8.514,14.999 7.862 C 14.203 6.711,12.857 6.116,11.427 6.282 M11.805 16.279 C 11.538 16.344,11.308 16.596,11.261 16.876 C 11.184 17.329,11.564 17.759,12.042 17.760 C 12.199 17.760,12.483 17.596,12.618 17.426 C 12.727 17.289,12.740 17.244,12.740 17.000 C 12.740 16.755,12.728 16.712,12.616 16.574 C 12.404 16.312,12.110 16.205,11.805 16.279 " stroke="none" fill-rule="evenodd" fill="black"></path></svg>