<svg width="24" height="24" viewBox="0 0 24 24" fill="none" xmlns="http://www.w3.org/2000/svg"><path d="M10.940 3.064 C 8.806 3.278,7.302 3.743,5.753 4.667 C 3.577 5.966,1.704 8.136,0.321 10.961 C -0.104 11.829,-0.104 12.171,0.321 13.039 C 1.865 16.194,4.012 18.523,6.499 19.739 C 7.698 20.326,8.666 20.626,10.080 20.847 C 10.598 20.928,10.804 20.937,12.000 20.937 C 13.196 20.937,13.402 20.928,13.920 20.847 C 16.402 20.459,18.271 19.584,20.107 17.951 C 21.404 16.799,22.718 14.994,23.666 13.065 C 24.105 12.170,24.107 11.836,23.679 10.961 C 22.728 9.017,21.419 7.218,20.107 6.047 C 18.257 4.397,16.265 3.484,13.760 3.138 C 13.321 3.077,11.331 3.025,10.940 3.064 M13.020 7.296 C 15.222 7.842,16.720 9.747,16.720 12.000 C 16.720 15.442,13.271 17.762,10.057 16.482 C 8.988 16.056,8.066 15.185,7.538 14.102 C 6.631 12.243,7.021 10.000,8.504 8.550 C 8.894 8.170,9.197 7.952,9.680 7.704 C 10.479 7.294,11.119 7.152,12.040 7.179 C 12.478 7.192,12.718 7.221,13.020 7.296 M11.365 8.962 C 10.756 9.071,10.173 9.380,9.717 9.837 C 9.248 10.305,8.989 10.798,8.857 11.474 C 8.592 12.833,9.389 14.293,10.692 14.834 C 12.735 15.682,14.959 14.204,14.959 12.000 C 14.959 11.079,14.573 10.246,13.870 9.648 C 13.588 9.408,13.020 9.112,12.660 9.017 C 12.367 8.940,11.658 8.910,11.365 8.962 " stroke="none" fill-rule="evenodd"></path></svg>