<svg width="24" height="24" viewBox="0 0 24 24" fill="none" xmlns="http://www.w3.org/2000/svg"><path d="M9.320 1.860 C 8.663 1.992,8.087 2.312,7.616 2.806 C 7.363 3.070,7.218 3.284,7.006 3.708 C 6.915 3.889,6.809 4.053,6.770 4.074 C 6.732 4.094,5.998 4.120,5.140 4.131 C 3.957 4.147,3.496 4.168,3.231 4.216 C 1.978 4.446,1.085 5.269,0.756 6.500 C 0.630 6.971,0.617 7.877,0.641 14.100 C 0.662 19.461,0.663 19.502,0.748 19.820 C 0.918 20.454,1.181 20.902,1.636 21.331 C 2.080 21.750,2.572 21.996,3.220 22.125 C 3.637 22.207,20.363 22.207,20.780 22.125 C 21.426 21.997,21.895 21.762,22.351 21.340 C 22.811 20.915,23.090 20.440,23.246 19.820 C 23.364 19.350,23.395 17.982,23.395 13.200 C 23.396 8.356,23.364 6.966,23.243 6.500 C 22.958 5.398,22.124 4.552,21.054 4.278 C 20.628 4.169,19.842 4.121,18.467 4.121 C 17.747 4.120,17.286 4.104,17.237 4.078 C 17.194 4.056,17.085 3.889,16.994 3.708 C 16.782 3.284,16.637 3.070,16.384 2.806 C 15.902 2.301,15.330 1.988,14.646 1.856 C 14.238 1.778,9.712 1.781,9.320 1.860 M14.680 3.684 C 15.003 3.836,15.207 4.067,15.470 4.574 C 15.760 5.136,16.054 5.447,16.486 5.653 C 16.648 5.729,16.875 5.812,16.992 5.836 C 17.122 5.863,17.741 5.880,18.593 5.880 C 20.090 5.880,20.559 5.915,20.839 6.050 C 21.086 6.169,21.347 6.441,21.470 6.710 C 21.571 6.930,21.574 6.963,21.610 8.198 C 21.657 9.816,21.619 19.023,21.565 19.311 C 21.456 19.883,21.052 20.285,20.458 20.410 C 20.111 20.483,3.889 20.483,3.542 20.410 C 2.950 20.285,2.548 19.888,2.440 19.322 C 2.388 19.047,2.385 7.347,2.437 7.034 C 2.485 6.743,2.603 6.515,2.814 6.304 C 3.193 5.925,3.470 5.880,5.407 5.880 C 6.259 5.880,6.878 5.863,7.008 5.836 C 7.659 5.701,8.160 5.291,8.517 4.599 C 8.828 3.996,8.990 3.821,9.392 3.655 L 9.620 3.561 12.040 3.570 L 14.460 3.580 14.680 3.684 M11.221 8.864 C 9.630 9.164,8.347 10.288,7.846 11.822 C 7.670 12.361,7.626 12.715,7.652 13.370 C 7.697 14.485,8.070 15.368,8.836 16.171 C 10.033 17.427,11.789 17.854,13.440 17.292 C 14.206 17.031,14.963 16.486,15.459 15.840 C 15.869 15.306,16.215 14.515,16.318 13.880 C 16.377 13.509,16.370 12.738,16.303 12.390 C 15.972 10.661,14.646 9.277,12.960 8.900 C 12.538 8.806,11.628 8.787,11.221 8.864 M12.628 10.620 C 13.528 10.832,14.310 11.600,14.539 12.498 C 14.610 12.778,14.620 13.460,14.556 13.768 C 14.532 13.885,14.440 14.133,14.351 14.319 C 14.216 14.601,14.127 14.720,13.824 15.020 C 13.260 15.580,12.785 15.777,12.000 15.777 C 11.215 15.777,10.740 15.580,10.176 15.020 C 9.873 14.720,9.784 14.601,9.649 14.319 C 9.560 14.133,9.467 13.881,9.442 13.760 C 9.377 13.448,9.387 12.785,9.460 12.500 C 9.689 11.610,10.466 10.836,11.346 10.623 C 11.655 10.548,12.318 10.546,12.628 10.620 " stroke="none" fill-rule="evenodd" fill="black"></path></svg>