<svg width="24" height="24" viewBox="0 0 24 24" fill="none" xmlns="http://www.w3.org/2000/svg"><path d="M4.250 3.062 C 3.377 3.297,2.843 4.170,3.042 5.035 C 3.151 5.507,3.541 5.982,3.989 6.191 C 4.195 6.287,4.267 6.299,4.660 6.299 C 5.073 6.300,5.117 6.292,5.370 6.172 C 5.719 6.007,6.007 5.719,6.172 5.370 C 6.292 5.117,6.300 5.072,6.300 4.660 C 6.300 4.246,6.292 4.205,6.171 3.957 C 5.822 3.243,5.000 2.860,4.250 3.062 M11.561 3.064 C 10.930 3.234,10.469 3.754,10.354 4.427 C 10.315 4.658,10.318 4.747,10.375 5.005 C 10.551 5.794,11.201 6.320,12.000 6.320 C 12.799 6.320,13.449 5.794,13.625 5.005 C 13.682 4.747,13.685 4.658,13.646 4.427 C 13.474 3.424,12.527 2.805,11.561 3.064 M18.974 3.039 C 18.524 3.135,18.042 3.522,17.829 3.957 C 17.708 4.205,17.700 4.246,17.700 4.660 C 17.700 5.072,17.708 5.117,17.828 5.370 C 17.993 5.719,18.281 6.007,18.630 6.172 C 18.883 6.292,18.927 6.300,19.340 6.299 C 19.733 6.299,19.805 6.287,20.011 6.191 C 20.138 6.132,20.347 5.984,20.475 5.862 C 20.945 5.413,21.108 4.799,20.920 4.188 C 20.709 3.508,20.129 3.055,19.420 3.018 C 19.266 3.010,19.065 3.020,18.974 3.039 M4.392 10.364 C 3.788 10.450,3.267 10.909,3.076 11.524 C 2.704 12.719,3.804 13.907,5.019 13.622 C 5.803 13.439,6.320 12.794,6.320 12.000 C 6.320 10.963,5.439 10.216,4.392 10.364 M11.749 10.363 C 10.887 10.462,10.204 11.387,10.355 12.250 C 10.514 13.156,11.385 13.797,12.250 13.645 C 12.968 13.519,13.518 12.966,13.646 12.243 C 13.728 11.777,13.561 11.249,13.214 10.878 C 12.822 10.458,12.353 10.294,11.749 10.363 M19.061 10.366 C 18.621 10.427,18.176 10.719,17.928 11.109 C 17.510 11.767,17.630 12.700,18.198 13.213 C 18.949 13.892,20.076 13.789,20.665 12.988 C 21.551 11.785,20.556 10.158,19.061 10.366 M4.160 17.753 C 3.127 18.095,2.696 19.262,3.253 20.211 C 3.592 20.790,4.363 21.113,5.035 20.958 C 5.507 20.849,5.982 20.459,6.191 20.011 C 6.287 19.805,6.299 19.733,6.299 19.340 C 6.300 18.927,6.292 18.883,6.172 18.630 C 6.010 18.287,5.735 18.012,5.383 17.838 C 5.142 17.720,5.064 17.702,4.744 17.691 C 4.474 17.683,4.323 17.699,4.160 17.753 M11.540 17.734 C 11.115 17.875,10.828 18.093,10.595 18.453 C 10.005 19.364,10.464 20.595,11.514 20.921 C 12.718 21.295,13.896 20.214,13.623 18.986 C 13.505 18.458,13.183 18.060,12.682 17.826 C 12.461 17.722,12.364 17.701,12.060 17.692 C 11.839 17.685,11.638 17.701,11.540 17.734 M18.817 17.753 C 18.356 17.912,18.020 18.216,17.811 18.663 C 17.711 18.877,17.700 18.942,17.701 19.340 C 17.701 19.733,17.713 19.805,17.809 20.011 C 18.153 20.750,19.014 21.158,19.763 20.936 C 20.367 20.756,20.739 20.391,20.925 19.795 C 21.192 18.935,20.684 18.005,19.803 17.744 C 19.518 17.660,19.074 17.664,18.817 17.753 " stroke="none" fill-rule="evenodd"></path></svg>