<svg width="24" height="24" viewBox="0 0 24 24" fill="none" xmlns="http://www.w3.org/2000/svg"><path d="M6.600 3.147 C 5.609 3.253,4.838 3.695,4.483 4.361 C 4.112 5.056,4.081 5.337,4.080 7.910 L 4.080 10.000 4.860 10.000 L 5.640 10.000 5.640 7.947 C 5.640 5.842,5.657 5.559,5.800 5.281 C 5.902 5.084,6.105 4.900,6.340 4.792 L 6.540 4.700 13.618 4.689 C 19.988 4.680,20.718 4.685,20.914 4.742 C 21.288 4.851,21.482 5.021,21.651 5.388 C 21.739 5.578,21.740 5.605,21.752 7.790 L 21.764 10.000 22.544 10.000 L 23.325 10.000 23.310 7.710 C 23.295 5.509,23.291 5.407,23.207 5.088 C 22.989 4.256,22.585 3.751,21.876 3.424 C 21.224 3.123,21.813 3.144,13.860 3.138 C 9.944 3.134,6.677 3.139,6.600 3.147 M0.948 3.215 C 0.444 3.403,0.160 3.800,0.160 4.318 C 0.160 4.659,0.261 4.906,0.497 5.143 C 0.817 5.463,1.288 5.568,1.728 5.418 C 2.320 5.216,2.653 4.443,2.391 3.874 C 2.258 3.584,2.126 3.438,1.876 3.302 C 1.622 3.163,1.194 3.124,0.948 3.215 M0.910 7.057 C 0.613 7.163,0.323 7.453,0.217 7.750 C 0.188 7.832,0.163 8.017,0.162 8.160 C 0.157 9.164,1.397 9.697,2.115 9.000 C 2.341 8.780,2.448 8.551,2.471 8.235 C 2.495 7.895,2.409 7.627,2.197 7.387 C 1.964 7.122,1.693 7.000,1.342 7.002 C 1.187 7.003,0.992 7.028,0.910 7.057 M0.888 10.753 C 0.203 10.998,-0.165 11.756,0.082 12.415 C 0.282 12.951,0.748 13.282,1.306 13.287 C 1.685 13.290,1.934 13.188,2.216 12.914 L 2.457 12.680 12.950 12.680 C 24.485 12.680,23.588 12.701,23.829 12.427 C 24.052 12.172,24.052 11.828,23.829 11.573 C 23.588 11.299,24.485 11.320,12.951 11.320 L 2.460 11.320 2.291 11.123 C 1.957 10.736,1.371 10.581,0.888 10.753 M4.080 16.090 C 4.080 18.304,4.104 18.674,4.276 19.171 C 4.590 20.076,5.212 20.594,6.240 20.806 C 6.625 20.886,20.775 20.886,21.160 20.806 C 21.951 20.643,22.505 20.298,22.855 19.751 C 23.030 19.477,23.104 19.298,23.210 18.900 C 23.291 18.595,23.296 18.470,23.310 16.290 L 23.325 14.000 22.544 14.000 L 21.764 14.000 21.752 16.210 L 21.740 18.420 21.636 18.643 C 21.485 18.963,21.281 19.145,20.963 19.242 C 20.704 19.320,20.589 19.321,13.620 19.311 L 6.540 19.300 6.340 19.208 C 6.105 19.100,5.902 18.916,5.800 18.719 C 5.657 18.441,5.640 18.158,5.640 16.053 L 5.640 14.000 4.860 14.000 L 4.080 14.000 4.080 16.090 M0.910 14.697 C 0.588 14.812,0.293 15.128,0.201 15.457 C 0.135 15.692,0.164 16.098,0.261 16.300 C 0.379 16.545,0.636 16.778,0.895 16.875 C 1.649 17.157,2.414 16.673,2.471 15.879 C 2.495 15.535,2.410 15.268,2.197 15.027 C 1.964 14.762,1.693 14.640,1.342 14.642 C 1.187 14.643,0.992 14.668,0.910 14.697 M1.080 18.475 C 0.736 18.551,0.391 18.832,0.243 19.160 C 0.126 19.420,0.131 19.836,0.254 20.100 C 0.361 20.327,0.641 20.604,0.867 20.704 C 0.965 20.748,1.127 20.773,1.320 20.774 C 1.695 20.775,1.927 20.673,2.177 20.395 C 2.701 19.812,2.524 18.920,1.813 18.565 C 1.625 18.471,1.289 18.430,1.080 18.475 " stroke="none" fill-rule="evenodd"></path></svg>