<svg width="24" height="24" viewBox="0 0 24 24" fill="none" xmlns="http://www.w3.org/2000/svg"><path d="M11.002 0.045 C 10.773 0.064,10.369 0.115,10.105 0.158 C 9.719 0.220,9.593 0.258,9.462 0.350 C 9.196 0.537,9.144 0.681,8.941 1.780 C 8.651 3.358,8.706 3.179,8.488 3.261 C 7.910 3.479,6.925 4.036,6.344 4.475 L 6.028 4.713 5.464 4.513 C 3.504 3.819,3.612 3.848,3.302 3.938 C 3.065 4.006,2.876 4.187,2.441 4.759 C 1.557 5.920,0.601 7.842,0.650 8.360 C 0.683 8.714,0.755 8.798,1.764 9.653 C 2.607 10.367,2.714 10.471,2.698 10.560 C 2.590 11.170,2.569 12.453,2.657 13.120 C 2.688 13.351,2.710 13.542,2.706 13.543 C 2.703 13.545,2.275 13.909,1.756 14.351 C 0.756 15.202,0.683 15.288,0.650 15.640 C 0.613 16.033,1.269 17.497,1.949 18.538 C 2.534 19.434,2.994 19.963,3.268 20.057 C 3.582 20.163,3.458 20.195,5.407 19.507 L 6.033 19.286 6.267 19.469 C 6.831 19.911,7.666 20.400,8.340 20.683 C 8.516 20.757,8.665 20.820,8.672 20.824 C 8.678 20.827,8.783 21.368,8.904 22.025 C 9.146 23.333,9.190 23.459,9.464 23.651 C 9.843 23.917,11.681 24.075,13.013 23.957 C 13.854 23.882,14.350 23.782,14.536 23.651 C 14.809 23.460,14.855 23.329,15.079 22.100 C 15.191 21.484,15.298 20.944,15.316 20.900 C 15.336 20.853,15.449 20.779,15.585 20.723 C 16.257 20.449,17.090 19.973,17.663 19.537 L 17.986 19.290 19.101 19.686 C 19.714 19.904,20.283 20.092,20.364 20.105 C 20.601 20.143,20.884 20.027,21.087 19.808 C 21.849 18.988,22.801 17.394,23.212 16.247 C 23.385 15.765,23.394 15.613,23.265 15.340 C 23.184 15.169,23.036 15.026,22.246 14.360 L 21.322 13.580 21.337 13.420 C 21.444 12.297,21.454 11.981,21.405 11.370 C 21.376 11.024,21.344 10.675,21.333 10.596 L 21.313 10.452 22.251 9.648 C 23.243 8.797,23.318 8.710,23.350 8.360 C 23.363 8.224,23.333 8.085,23.227 7.794 C 22.772 6.544,21.922 5.105,21.120 4.227 C 20.952 4.044,20.870 3.988,20.695 3.937 C 20.410 3.854,20.346 3.869,19.042 4.334 L 17.985 4.710 17.676 4.475 C 17.104 4.038,16.232 3.539,15.585 3.276 C 15.448 3.221,15.336 3.147,15.316 3.100 C 15.298 3.056,15.191 2.516,15.079 1.900 C 14.855 0.672,14.809 0.540,14.538 0.350 C 14.170 0.091,12.351 -0.065,11.002 0.045 M13.020 1.995 L 13.140 2.021 13.377 3.306 L 13.614 4.592 14.317 4.860 C 15.502 5.313,16.073 5.644,17.040 6.437 C 17.337 6.680,17.599 6.880,17.623 6.880 C 17.646 6.880,18.195 6.691,18.843 6.460 C 19.490 6.229,20.041 6.040,20.066 6.040 C 20.142 6.040,20.661 6.856,20.960 7.444 L 21.237 7.989 20.239 8.840 C 19.689 9.308,19.240 9.715,19.240 9.744 C 19.240 9.773,19.287 10.081,19.344 10.429 C 19.535 11.594,19.534 12.438,19.337 13.628 C 19.275 14.007,19.232 14.324,19.242 14.332 C 19.991 14.957,21.200 16.016,21.200 16.048 C 21.200 16.202,20.229 17.890,20.095 17.970 C 20.076 17.981,19.507 17.794,18.830 17.553 L 17.601 17.115 17.061 17.560 C 16.069 18.377,15.457 18.729,14.236 19.186 L 13.611 19.420 13.373 20.720 L 13.135 22.020 12.877 22.045 C 12.548 22.078,11.504 22.078,11.141 22.045 L 10.862 22.020 10.627 20.740 C 10.497 20.036,10.378 19.445,10.361 19.427 C 10.344 19.409,10.032 19.279,9.667 19.139 C 8.511 18.693,7.922 18.347,6.943 17.540 C 6.551 17.217,6.407 17.120,6.343 17.136 C 6.298 17.148,5.738 17.346,5.100 17.575 L 3.940 17.992 3.849 17.886 C 3.608 17.607,2.800 16.186,2.800 16.043 C 2.800 16.022,3.236 15.632,3.770 15.176 C 4.304 14.721,4.754 14.336,4.772 14.320 C 4.789 14.305,4.758 14.024,4.703 13.696 C 4.487 12.418,4.479 11.746,4.663 10.564 C 4.716 10.221,4.770 9.892,4.782 9.832 C 4.804 9.732,4.732 9.661,3.787 8.853 L 2.769 7.982 2.984 7.552 C 3.325 6.871,3.852 6.040,3.941 6.040 C 3.967 6.040,4.517 6.229,5.164 6.460 C 5.811 6.691,6.364 6.880,6.394 6.880 C 6.423 6.880,6.671 6.696,6.946 6.470 C 7.834 5.739,8.544 5.308,9.400 4.978 C 9.587 4.906,9.885 4.792,10.063 4.724 L 10.386 4.600 10.623 3.302 L 10.860 2.004 10.980 1.988 C 11.183 1.962,12.893 1.968,13.020 1.995 M11.146 7.101 C 9.002 7.506,7.405 9.337,7.295 11.517 C 7.242 12.570,7.578 13.680,8.204 14.520 C 8.795 15.314,9.584 15.889,10.520 16.207 C 11.433 16.517,12.531 16.522,13.460 16.219 C 15.927 15.415,17.298 12.716,16.480 10.273 C 15.961 8.725,14.743 7.586,13.162 7.171 C 12.673 7.043,11.646 7.007,11.146 7.101 M12.931 8.890 C 13.872 9.199,14.576 9.931,14.886 10.921 C 15.020 11.352,15.020 12.128,14.886 12.559 C 14.467 13.899,13.354 14.729,11.982 14.724 C 10.628 14.720,9.448 13.803,9.095 12.480 C 8.991 12.087,8.999 11.351,9.113 10.948 C 9.411 9.890,10.185 9.129,11.260 8.836 C 11.679 8.722,12.501 8.748,12.931 8.890 " stroke="none" fill-rule="evenodd"></path></svg>