<svg width="24" height="24" viewBox="0 0 24 24" fill="none" xmlns="http://www.w3.org/2000/svg"><path d="M7.820 1.276 C 7.554 1.342,7.353 1.534,7.282 1.791 C 7.259 1.873,7.240 2.232,7.240 2.590 L 7.240 3.240 6.130 3.240 C 5.520 3.241,4.863 3.259,4.671 3.281 C 4.026 3.355,3.537 3.593,3.065 4.064 C 2.732 4.396,2.521 4.735,2.369 5.180 L 2.260 5.500 2.260 13.000 L 2.260 20.500 2.369 20.820 C 2.520 21.265,2.731 21.603,3.064 21.936 C 3.397 22.269,3.735 22.480,4.180 22.631 L 4.500 22.740 12.000 22.740 L 19.500 22.740 19.820 22.631 C 20.265 22.480,20.603 22.269,20.936 21.936 C 21.269 21.603,21.480 21.265,21.631 20.820 L 21.740 20.500 21.740 13.000 L 21.740 5.500 21.631 5.180 C 21.479 4.735,21.268 4.396,20.935 4.064 C 20.463 3.593,19.974 3.355,19.329 3.281 C 19.137 3.259,18.480 3.241,17.870 3.240 L 16.760 3.240 16.760 2.590 C 16.760 1.879,16.729 1.705,16.574 1.520 C 16.425 1.343,16.253 1.267,16.000 1.267 C 15.747 1.267,15.575 1.343,15.426 1.520 C 15.271 1.705,15.240 1.879,15.240 2.590 L 15.240 3.240 12.000 3.240 L 8.760 3.240 8.760 2.590 C 8.760 1.879,8.729 1.705,8.574 1.520 C 8.398 1.311,8.087 1.210,7.820 1.276 M7.240 5.410 C 7.240 5.768,7.259 6.127,7.282 6.209 C 7.390 6.599,7.802 6.827,8.202 6.719 C 8.422 6.660,8.656 6.432,8.715 6.219 C 8.740 6.132,8.760 5.768,8.760 5.410 L 8.760 4.760 12.000 4.760 L 15.240 4.760 15.240 5.410 C 15.240 5.768,15.259 6.127,15.282 6.209 C 15.390 6.599,15.802 6.827,16.202 6.719 C 16.422 6.660,16.656 6.432,16.715 6.219 C 16.740 6.132,16.760 5.767,16.760 5.408 L 16.760 4.757 18.050 4.768 C 19.306 4.780,19.345 4.782,19.528 4.873 C 19.767 4.991,20.009 5.233,20.127 5.472 C 20.219 5.659,20.220 5.671,20.231 7.450 L 20.242 9.240 12.001 9.240 L 3.760 9.240 3.760 7.505 C 3.760 5.610,3.762 5.591,3.996 5.272 C 4.061 5.185,4.185 5.060,4.273 4.996 C 4.575 4.774,4.632 4.766,5.990 4.763 L 7.240 4.760 7.240 5.410 M20.230 15.550 L 20.220 20.340 20.127 20.529 C 19.995 20.797,19.711 21.063,19.453 21.159 C 19.239 21.239,19.159 21.240,12.000 21.240 C 4.841 21.240,4.761 21.239,4.547 21.159 C 4.289 21.063,4.005 20.797,3.873 20.529 L 3.780 20.340 3.770 15.550 L 3.759 10.760 12.000 10.760 L 20.241 10.760 20.230 15.550 M7.664 13.063 C 7.436 13.146,7.257 13.297,7.131 13.511 C 7.036 13.672,7.020 13.744,7.020 14.000 C 7.020 14.256,7.036 14.328,7.131 14.489 C 7.470 15.065,8.234 15.168,8.701 14.701 C 9.092 14.310,9.092 13.690,8.701 13.299 C 8.429 13.027,8.018 12.933,7.664 13.063 M11.664 13.063 C 11.436 13.146,11.257 13.297,11.131 13.511 C 11.036 13.672,11.020 13.744,11.020 14.000 C 11.020 14.256,11.036 14.328,11.131 14.489 C 11.470 15.065,12.234 15.168,12.701 14.701 C 12.881 14.521,13.000 14.242,13.000 14.000 C 13.000 13.326,12.295 12.832,11.664 13.063 M15.664 13.063 C 15.436 13.146,15.257 13.297,15.131 13.511 C 15.036 13.672,15.020 13.744,15.020 14.000 C 15.020 14.256,15.036 14.328,15.131 14.489 C 15.470 15.065,16.234 15.168,16.701 14.701 C 16.881 14.521,17.000 14.242,17.000 14.000 C 17.000 13.326,16.295 12.832,15.664 13.063 M7.664 17.063 C 7.436 17.146,7.257 17.297,7.131 17.511 C 7.036 17.672,7.020 17.744,7.020 18.000 C 7.020 18.256,7.036 18.328,7.131 18.489 C 7.470 19.065,8.234 19.168,8.701 18.701 C 9.092 18.310,9.092 17.690,8.701 17.299 C 8.429 17.027,8.018 16.933,7.664 17.063 M11.664 17.063 C 11.436 17.146,11.257 17.297,11.131 17.511 C 11.036 17.672,11.020 17.744,11.020 18.000 C 11.020 18.256,11.036 18.328,11.131 18.489 C 11.470 19.065,12.234 19.168,12.701 18.701 C 12.881 18.521,13.000 18.242,13.000 18.000 C 13.000 17.326,12.295 16.832,11.664 17.063 M15.664 17.063 C 15.436 17.146,15.257 17.297,15.131 17.511 C 15.036 17.672,15.020 17.744,15.020 18.000 C 15.020 18.256,15.036 18.328,15.131 18.489 C 15.470 19.065,16.234 19.168,16.701 18.701 C 16.881 18.521,17.000 18.242,17.000 18.000 C 17.000 17.326,16.295 16.832,15.664 17.063 " stroke="none" fill-rule="evenodd" fill="black"></path></svg>