<svg width="24" height="24" viewBox="0 0 24 24" fill="none" xmlns="http://www.w3.org/2000/svg"><path d="M10.773 0.060 C 10.002 0.228,9.376 0.791,9.112 1.552 L 9.020 1.820 9.020 9.000 L 9.020 16.180 9.112 16.448 C 9.339 17.104,9.865 17.637,10.531 17.887 L 10.780 17.980 15.630 17.991 C 19.833 18.000,20.514 17.994,20.739 17.942 C 21.540 17.756,22.178 17.150,22.426 16.340 C 22.496 16.112,22.500 15.825,22.500 10.600 C 22.500 5.377,22.496 5.088,22.427 4.862 C 22.244 4.270,22.249 4.276,20.226 2.257 C 18.509 0.543,18.316 0.363,18.071 0.245 C 17.561 0.000,17.573 0.001,14.140 0.004 C 11.684 0.006,10.967 0.018,10.773 0.060 M3.251 6.060 C 2.486 6.227,1.818 6.864,1.574 7.660 C 1.503 7.889,1.500 8.221,1.500 15.000 C 1.500 21.779,1.503 22.111,1.574 22.340 C 1.820 23.145,2.457 23.753,3.250 23.940 C 3.625 24.028,14.375 24.028,14.750 23.940 C 15.534 23.755,16.170 23.154,16.422 22.360 C 16.481 22.175,16.495 21.931,16.510 20.830 L 16.528 19.520 15.004 19.520 L 13.480 19.520 13.480 20.260 L 13.480 21.000 9.000 21.000 L 4.520 21.000 4.520 15.000 L 4.520 9.000 6.020 9.000 L 7.520 9.000 7.520 7.500 L 7.520 6.000 5.510 6.003 C 3.980 6.006,3.441 6.019,3.251 6.060 " stroke="none" fill-rule="evenodd"></path></svg>