<svg width="24" height="24" viewBox="0 0 24 24" fill="none" xmlns="http://www.w3.org/2000/svg"><path d="M2.209 2.080 C 2.137 2.124,2.060 2.206,2.039 2.263 C 2.015 2.327,2.000 3.948,2.000 6.607 L 2.000 10.848 2.136 10.984 L 2.272 11.120 6.538 11.120 C 11.173 11.120,10.968 11.130,11.072 10.901 C 11.108 10.822,11.120 9.754,11.120 6.539 L 11.120 2.281 11.003 2.151 L 10.887 2.020 6.613 2.010 C 2.398 2.000,2.338 2.001,2.209 2.080 M13.136 2.039 C 13.089 2.058,13.013 2.122,12.966 2.182 L 12.880 2.291 12.880 6.547 C 12.880 11.172,12.870 10.968,13.099 11.072 C 13.178 11.108,14.246 11.120,17.461 11.120 L 21.719 11.120 21.849 11.003 L 21.980 10.887 21.991 6.627 C 21.997 3.892,21.987 2.331,21.962 2.264 C 21.940 2.207,21.863 2.124,21.791 2.080 C 21.662 2.002,21.589 2.000,17.440 2.003 C 15.119 2.004,13.182 2.020,13.136 2.039 M9.280 6.560 L 9.280 9.280 6.560 9.280 L 3.840 9.280 3.840 6.560 L 3.840 3.840 6.560 3.840 L 9.280 3.840 9.280 6.560 M20.160 6.560 L 20.160 9.280 17.440 9.280 L 14.720 9.280 14.720 6.560 L 14.720 3.840 17.440 3.840 L 20.160 3.840 20.160 6.560 M2.135 13.017 L 1.999 13.153 2.009 17.456 L 2.020 21.758 2.131 21.869 L 2.242 21.980 6.564 21.980 L 10.887 21.980 11.003 21.849 L 11.120 21.719 11.120 17.461 C 11.120 14.246,11.108 13.178,11.072 13.099 C 10.968 12.870,11.173 12.880,6.538 12.880 L 2.272 12.880 2.135 13.017 M13.084 12.936 C 12.875 13.052,12.883 12.866,12.881 17.449 L 12.880 21.719 12.997 21.849 L 13.113 21.980 17.436 21.980 L 21.758 21.980 21.869 21.869 L 21.980 21.758 21.980 17.436 L 21.980 13.113 21.849 12.997 L 21.719 12.880 17.449 12.881 C 13.982 12.883,13.162 12.893,13.084 12.936 M9.280 17.440 L 9.280 20.160 6.560 20.160 L 3.840 20.160 3.840 17.440 L 3.840 14.720 6.560 14.720 L 9.280 14.720 9.280 17.440 M20.160 17.440 L 20.160 20.160 17.440 20.160 L 14.720 20.160 14.720 17.440 L 14.720 14.720 17.440 14.720 L 20.160 14.720 20.160 17.440 " stroke="none" fill-rule="evenodd"></path></svg>