<svg width="24" height="24" viewBox="0 0 24 24" fill="none" xmlns="http://www.w3.org/2000/svg"><path d="M11.540 2.026 C 11.187 2.081,10.722 2.215,10.460 2.336 C 9.274 2.884,8.461 3.974,8.283 5.255 C 8.225 5.676,8.224 12.075,8.282 12.507 C 8.341 12.940,8.552 13.538,8.785 13.929 C 9.047 14.371,9.629 14.953,10.071 15.215 C 11.024 15.782,12.166 15.902,13.209 15.545 C 13.778 15.350,14.187 15.091,14.639 14.639 C 15.248 14.030,15.614 13.299,15.720 12.480 C 15.750 12.248,15.760 11.034,15.751 8.660 C 15.738 5.204,15.737 5.178,15.649 4.864 C 15.458 4.185,15.178 3.673,14.740 3.205 C 14.249 2.680,13.582 2.281,12.920 2.119 C 12.587 2.038,11.800 1.984,11.540 2.026 M5.680 9.584 C 5.480 9.671,5.324 9.830,5.215 10.060 C 5.124 10.254,5.121 10.291,5.120 11.292 C 5.120 12.391,5.157 12.873,5.286 13.476 C 5.659 15.209,6.804 16.845,8.324 17.812 C 8.968 18.222,9.932 18.605,10.670 18.745 L 11.040 18.816 11.040 19.465 L 11.040 20.115 9.990 20.128 C 8.799 20.142,8.749 20.153,8.466 20.484 C 8.044 20.977,8.292 21.786,8.918 21.960 C 9.108 22.013,14.892 22.014,15.076 21.961 C 15.710 21.779,15.957 20.978,15.533 20.482 C 15.251 20.153,15.200 20.142,14.010 20.128 L 12.960 20.115 12.960 19.465 L 12.960 18.816 13.330 18.745 C 14.068 18.605,15.032 18.222,15.676 17.812 C 17.196 16.845,18.341 15.209,18.714 13.476 C 18.843 12.873,18.880 12.391,18.880 11.292 C 18.879 10.293,18.876 10.253,18.785 10.058 C 18.621 9.705,18.325 9.519,17.931 9.521 C 17.637 9.522,17.417 9.621,17.234 9.834 C 17.018 10.087,17.000 10.199,17.000 11.286 C 17.000 11.823,16.981 12.415,16.958 12.601 C 16.723 14.522,15.375 16.158,13.539 16.753 C 12.973 16.936,12.676 16.980,12.000 16.980 C 11.325 16.980,11.027 16.936,10.465 16.754 C 8.624 16.158,7.277 14.524,7.042 12.601 C 7.019 12.415,7.000 11.823,7.000 11.286 C 7.000 10.660,6.983 10.254,6.954 10.154 C 6.892 9.947,6.662 9.686,6.462 9.595 C 6.263 9.505,5.875 9.499,5.680 9.584 " stroke="none" fill-rule="evenodd"></path></svg>