<svg width="24" height="24" viewBox="0 0 24 24" fill="none" xmlns="http://www.w3.org/2000/svg"><path d="M11.440 2.264 C 10.820 2.319,10.452 2.367,10.097 2.438 C 7.905 2.878,5.909 4.070,4.500 5.780 C 3.356 7.169,2.629 8.809,2.355 10.620 C 2.255 11.283,2.236 12.469,2.316 13.100 C 2.429 13.997,2.705 15.030,3.040 15.808 L 3.189 16.156 2.235 18.968 C 1.710 20.514,1.270 21.836,1.257 21.904 C 1.172 22.345,1.655 22.828,2.096 22.743 C 2.164 22.730,3.486 22.290,5.032 21.765 L 7.844 20.811 8.192 20.960 C 8.988 21.303,10.044 21.582,10.920 21.683 C 11.494 21.749,12.682 21.741,13.221 21.667 C 15.507 21.354,17.487 20.354,19.048 18.725 C 22.698 14.915,22.649 8.882,18.938 5.149 C 18.118 4.323,17.351 3.774,16.300 3.257 C 15.296 2.764,14.375 2.480,13.320 2.338 C 12.890 2.280,11.762 2.235,11.440 2.264 M13.040 3.820 C 13.974 3.941,14.761 4.175,15.590 4.578 C 16.993 5.261,18.105 6.244,18.941 7.540 C 20.555 10.041,20.675 13.290,19.251 15.920 C 18.334 17.613,16.796 18.980,15.046 19.656 C 13.916 20.092,12.893 20.269,11.740 20.227 C 10.554 20.184,9.499 19.927,8.420 19.417 C 8.175 19.301,8.053 19.266,7.900 19.269 C 7.752 19.271,7.120 19.469,5.460 20.033 C 4.228 20.451,3.217 20.790,3.213 20.787 C 3.210 20.783,3.549 19.772,3.969 18.540 C 4.541 16.859,4.731 16.250,4.733 16.100 C 4.735 15.943,4.696 15.812,4.547 15.488 C 3.778 13.817,3.577 12.086,3.947 10.304 C 4.653 6.896,7.451 4.294,10.916 3.821 C 11.444 3.749,12.484 3.748,13.040 3.820 " stroke="none" fill-rule="evenodd" fill="black"></path></svg>