<svg width="24" height="24" viewBox="0 0 24 24" fill="none" xmlns="http://www.w3.org/2000/svg"><path d="M22.149 0.041 C 22.067 0.062,21.923 0.118,21.829 0.165 C 21.736 0.213,16.926 2.957,11.140 6.263 C 3.352 10.714,0.574 12.320,0.444 12.447 C 0.348 12.542,0.213 12.737,0.145 12.880 C 0.035 13.111,0.021 13.181,0.021 13.501 C 0.020 13.826,0.032 13.887,0.148 14.121 C 0.388 14.608,0.417 14.626,2.808 15.824 L 4.973 16.907 9.697 12.710 C 12.294 10.401,14.478 8.467,14.549 8.412 C 14.897 8.143,15.466 8.265,15.667 8.652 C 15.772 8.856,15.755 9.204,15.630 9.388 C 15.573 9.472,13.750 11.475,11.579 13.840 C 9.407 16.205,7.601 18.203,7.565 18.280 C 7.508 18.402,7.499 18.675,7.488 20.452 C 7.481 21.742,7.492 22.567,7.518 22.712 C 7.652 23.442,8.194 23.936,8.920 23.988 C 9.214 24.009,9.586 23.913,9.825 23.753 C 9.933 23.682,13.181 20.225,13.282 20.074 C 13.294 20.056,14.608 20.583,16.202 21.246 C 18.891 22.365,19.121 22.454,19.386 22.471 C 19.546 22.482,19.762 22.468,19.878 22.440 C 20.301 22.339,20.755 21.929,20.903 21.514 C 20.937 21.418,21.649 16.903,22.485 11.480 C 23.648 3.932,24.001 1.562,23.987 1.374 C 23.952 0.873,23.583 0.351,23.117 0.142 C 22.848 0.021,22.409 -0.025,22.149 0.041 " stroke="none" fill-rule="evenodd"></path></svg>