<svg width="24" height="24" viewBox="0 0 24 24" fill="none" xmlns="http://www.w3.org/2000/svg"><path d="M0.600 2.450 C 0.405 2.515,0.097 2.834,0.044 3.025 C -0.052 3.369,0.018 3.661,0.254 3.904 C 0.413 4.068,22.314 21.249,22.633 21.460 C 22.976 21.687,23.427 21.629,23.727 21.319 C 24.057 20.979,24.093 20.492,23.813 20.159 C 23.740 20.072,18.475 15.908,17.768 15.377 C 17.721 15.342,17.743 15.273,17.899 14.962 C 18.121 14.520,18.362 13.817,18.482 13.260 C 18.557 12.916,18.571 12.690,18.589 11.640 C 18.612 10.204,18.604 10.148,18.319 9.873 C 17.960 9.525,17.498 9.506,17.126 9.824 C 16.822 10.084,16.824 10.075,16.796 11.420 C 16.769 12.694,16.738 12.954,16.543 13.536 C 16.485 13.706,16.398 13.925,16.349 14.022 L 16.260 14.198 15.931 13.939 L 15.602 13.681 15.591 9.530 L 15.580 5.380 15.468 5.022 C 15.073 3.760,14.141 2.850,12.900 2.515 C 12.442 2.391,11.558 2.391,11.100 2.515 C 9.858 2.850,8.916 3.770,8.535 5.020 C 8.428 5.373,8.425 5.407,8.403 6.701 L 8.380 8.022 4.900 5.292 C 2.986 3.790,1.357 2.531,1.280 2.494 C 1.106 2.409,0.785 2.389,0.600 2.450 M5.411 11.562 C 5.428 12.658,5.444 12.919,5.512 13.240 C 5.799 14.594,6.401 15.719,7.341 16.659 C 7.847 17.165,8.356 17.541,8.968 17.860 C 9.449 18.111,10.302 18.406,10.770 18.484 L 11.080 18.536 11.080 19.168 L 11.080 19.800 10.130 19.800 C 9.583 19.800,9.115 19.818,9.027 19.843 C 8.699 19.934,8.400 20.342,8.400 20.700 C 8.400 21.059,8.694 21.465,9.020 21.555 C 9.244 21.617,14.756 21.617,14.980 21.555 C 15.306 21.465,15.600 21.059,15.600 20.700 C 15.600 20.342,15.301 19.934,14.973 19.843 C 14.885 19.818,14.417 19.800,13.870 19.800 L 12.920 19.800 12.920 19.170 L 12.920 18.540 13.290 18.468 C 13.727 18.384,14.499 18.133,14.819 17.971 L 15.046 17.856 14.241 17.224 L 13.437 16.592 13.168 16.656 C 10.487 17.298,7.873 15.649,7.298 12.954 C 7.263 12.792,7.224 12.435,7.211 12.160 L 7.187 11.660 6.374 11.020 C 5.926 10.668,5.522 10.354,5.476 10.322 L 5.392 10.265 5.411 11.562 " stroke="none" fill-rule="evenodd"></path></svg>