<svg width="24" height="24" viewBox="0 0 24 24" fill="none" xmlns="http://www.w3.org/2000/svg"><path d="M8.489 1.593 C 8.373 1.635,8.202 1.729,8.109 1.804 C 7.720 2.114,0.366 8.760,0.285 8.873 C -0.069 9.370,-0.085 10.048,0.244 10.565 C 0.323 10.689,1.651 11.912,4.220 14.225 C 7.312 17.010,8.131 17.728,8.345 17.840 C 8.596 17.972,8.635 17.980,8.996 17.980 C 9.328 17.980,9.411 17.966,9.607 17.874 C 10.069 17.657,10.396 17.223,10.477 16.719 C 10.501 16.572,10.520 15.823,10.520 14.988 L 10.520 13.516 13.130 13.529 L 15.740 13.542 16.131 13.649 C 16.583 13.773,17.158 14.034,17.525 14.283 C 18.095 14.671,18.693 15.348,18.995 15.950 C 19.340 16.635,19.441 17.043,19.467 17.860 C 19.485 18.401,19.475 18.560,19.407 18.888 C 19.265 19.579,18.997 20.088,18.488 20.640 C 18.172 20.983,18.045 21.206,18.013 21.473 C 17.950 22.008,18.381 22.493,18.920 22.493 C 19.172 22.493,19.321 22.427,19.840 22.085 C 20.608 21.580,21.574 20.683,22.107 19.978 C 23.077 18.698,23.651 17.326,23.906 15.680 C 24.014 14.987,24.005 13.506,23.889 12.880 C 23.459 10.548,22.200 8.629,20.260 7.349 C 19.773 7.028,18.875 6.592,18.346 6.420 C 17.809 6.245,17.080 6.096,16.500 6.041 C 16.246 6.018,14.887 6.000,13.290 6.000 L 10.520 6.000 10.520 4.530 C 10.519 3.018,10.496 2.696,10.361 2.382 C 10.251 2.126,9.945 1.814,9.661 1.669 C 9.455 1.563,9.367 1.543,9.060 1.532 C 8.783 1.521,8.652 1.535,8.489 1.593 " stroke="none" fill-rule="evenodd"></path></svg>