<svg width="24" height="24" viewBox="0 0 24 24" fill="none" xmlns="http://www.w3.org/2000/svg"><path d="M14.600 1.555 C 14.202 1.686,13.787 2.039,13.640 2.372 C 13.506 2.673,13.481 3.022,13.480 4.530 L 13.480 6.000 10.710 6.000 C 7.795 6.000,7.380 6.018,6.574 6.181 C 5.036 6.491,3.555 7.289,2.432 8.411 C 1.205 9.639,0.436 11.119,0.111 12.880 C 0.040 13.262,0.026 13.498,0.024 14.280 C 0.022 15.282,0.069 15.732,0.259 16.540 C 0.570 17.858,1.249 19.223,2.099 20.238 C 2.799 21.073,3.921 22.013,4.680 22.401 C 5.309 22.722,6.070 22.181,5.987 21.473 C 5.955 21.208,5.828 20.983,5.528 20.660 C 4.819 19.898,4.520 19.115,4.520 18.021 C 4.520 17.227,4.654 16.645,4.991 15.980 C 5.525 14.925,6.456 14.117,7.580 13.733 C 8.172 13.531,8.344 13.520,11.005 13.520 L 13.480 13.520 13.480 14.990 C 13.480 15.798,13.498 16.568,13.520 16.700 C 13.671 17.626,14.555 18.194,15.426 17.926 C 15.577 17.880,15.747 17.810,15.805 17.771 C 15.863 17.732,17.645 16.139,19.765 14.231 C 22.223 12.019,23.666 10.692,23.747 10.571 C 24.038 10.135,24.074 9.569,23.840 9.094 C 23.691 8.792,24.013 9.093,19.400 4.942 C 16.793 2.597,15.803 1.729,15.642 1.650 C 15.463 1.562,15.361 1.541,15.062 1.533 C 14.863 1.527,14.655 1.537,14.600 1.555 " stroke="none" fill-rule="evenodd"></path></svg>