<svg width="24" height="24" viewBox="0 0 24 24" fill="none" xmlns="http://www.w3.org/2000/svg"><path d="M11.006 0.042 C 9.782 0.151,9.455 0.285,9.244 0.763 C 9.199 0.862,9.036 1.528,8.880 2.242 C 8.725 2.956,8.584 3.570,8.569 3.607 C 8.553 3.644,8.288 3.801,7.980 3.955 C 7.457 4.218,7.116 4.424,6.680 4.738 L 6.500 4.868 5.160 4.436 C 4.028 4.071,3.779 4.003,3.557 4.002 C 3.024 3.998,2.755 4.235,1.993 5.380 C 1.564 6.025,0.960 7.198,0.778 7.740 C 0.696 7.985,0.676 8.104,0.694 8.254 C 0.741 8.646,0.818 8.739,1.983 9.803 L 3.077 10.803 3.048 11.071 C 3.012 11.417,3.012 12.582,3.048 12.927 L 3.076 13.193 2.086 14.093 C 0.884 15.185,0.822 15.252,0.737 15.544 C 0.650 15.845,0.678 16.021,0.897 16.557 C 1.236 17.385,1.675 18.180,2.208 18.931 C 2.656 19.563,2.853 19.779,3.085 19.895 C 3.454 20.079,3.590 20.057,5.137 19.566 L 6.494 19.135 6.974 19.457 C 7.238 19.635,7.706 19.907,8.014 20.061 L 8.574 20.343 8.866 21.681 C 9.027 22.418,9.188 23.099,9.224 23.195 C 9.303 23.403,9.551 23.663,9.749 23.746 C 10.331 23.990,12.285 24.068,13.560 23.899 C 14.307 23.800,14.573 23.652,14.757 23.236 C 14.802 23.134,14.965 22.468,15.120 21.756 C 15.275 21.043,15.415 20.429,15.431 20.392 C 15.447 20.354,15.676 20.217,15.940 20.088 C 16.475 19.825,16.852 19.603,17.240 19.322 L 17.500 19.134 18.860 19.567 C 20.418 20.062,20.544 20.082,20.923 19.890 C 21.192 19.753,21.460 19.440,22.005 18.624 C 22.616 17.708,23.320 16.224,23.320 15.850 C 23.320 15.632,23.198 15.318,23.049 15.154 C 22.969 15.065,22.458 14.587,21.914 14.093 L 20.924 13.193 20.952 12.927 C 20.984 12.619,20.989 11.468,20.960 11.067 L 20.940 10.794 22.018 9.807 C 23.242 8.686,23.301 8.610,23.298 8.161 C 23.296 7.944,23.265 7.825,23.111 7.454 C 22.651 6.350,22.031 5.307,21.329 4.456 C 21.168 4.260,21.054 4.166,20.891 4.091 C 20.530 3.926,20.320 3.962,18.801 4.447 L 17.503 4.863 17.025 4.542 C 16.762 4.365,16.295 4.094,15.987 3.939 L 15.428 3.658 15.132 2.299 C 14.926 1.351,14.804 0.874,14.728 0.722 C 14.606 0.477,14.361 0.265,14.128 0.203 C 13.576 0.055,11.852 -0.033,11.006 0.042 M12.460 8.283 C 14.018 8.467,15.318 9.655,15.666 11.210 C 15.753 11.598,15.752 12.404,15.665 12.794 C 15.405 13.959,14.561 14.983,13.482 15.442 C 12.576 15.827,11.531 15.841,10.619 15.479 C 9.746 15.133,9.089 14.523,8.661 13.660 C 8.419 13.170,8.343 12.913,8.281 12.373 C 8.235 11.964,8.272 11.458,8.379 11.039 C 8.469 10.687,8.787 10.033,9.014 9.734 C 9.615 8.942,10.532 8.412,11.531 8.283 C 11.895 8.235,12.058 8.235,12.460 8.283 " stroke="none" fill-rule="evenodd"></path></svg>