<svg width="24" height="24" viewBox="0 0 24 24" fill="none" xmlns="http://www.w3.org/2000/svg"><path d="M11.240 0.024 C 9.737 0.153,8.581 0.427,7.348 0.946 C 5.172 1.863,3.328 3.388,2.011 5.360 C 0.334 7.873,-0.335 10.977,0.162 13.947 C 0.950 18.660,4.423 22.446,9.033 23.621 C 13.982 24.882,19.153 22.894,21.988 18.640 C 23.669 16.118,24.335 13.025,23.838 10.053 C 23.263 6.617,21.245 3.609,18.295 1.791 C 16.857 0.905,15.223 0.328,13.500 0.100 C 13.040 0.039,11.617 -0.009,11.240 0.024 M8.831 8.367 C 9.132 8.480,9.478 8.812,9.624 9.129 C 9.726 9.350,9.740 9.425,9.740 9.760 C 9.740 10.094,9.727 10.167,9.630 10.365 C 9.464 10.701,9.236 10.937,8.929 11.089 C 8.681 11.211,8.633 11.220,8.261 11.220 C 7.905 11.220,7.835 11.208,7.638 11.111 C 7.517 11.051,7.332 10.917,7.227 10.812 C 6.510 10.095,6.676 8.914,7.560 8.443 C 7.967 8.226,8.386 8.201,8.831 8.367 M16.385 8.399 C 16.703 8.545,16.918 8.743,17.072 9.031 C 17.405 9.656,17.283 10.369,16.760 10.853 C 16.445 11.145,16.125 11.258,15.684 11.232 C 15.124 11.200,14.675 10.904,14.430 10.406 C 14.310 10.161,14.300 10.112,14.300 9.741 C 14.300 9.369,14.309 9.323,14.426 9.100 C 14.815 8.358,15.646 8.060,16.385 8.399 M7.386 15.060 C 7.465 15.093,7.743 15.326,8.004 15.577 C 8.877 16.419,9.760 16.900,10.882 17.145 C 11.364 17.251,12.636 17.251,13.118 17.145 C 14.240 16.900,15.123 16.419,15.996 15.577 C 16.608 14.987,16.805 14.904,17.185 15.077 C 17.440 15.192,17.574 15.398,17.593 15.703 C 17.614 16.039,17.529 16.183,17.014 16.681 C 16.173 17.494,15.300 18.035,14.270 18.379 C 11.987 19.143,9.562 18.730,7.620 17.246 C 7.259 16.969,6.605 16.323,6.491 16.129 C 6.406 15.983,6.393 15.920,6.407 15.703 C 6.420 15.501,6.446 15.419,6.537 15.300 C 6.739 15.035,7.090 14.936,7.386 15.060 " stroke="none" fill-rule="evenodd"></path></svg>