<svg width="24" height="24" viewBox="0 0 24 24" fill="none" xmlns="http://www.w3.org/2000/svg"><path d="M19.900 0.065 C 19.746 0.098,19.469 0.198,19.285 0.289 C 18.981 0.438,18.867 0.533,18.054 1.316 L 17.158 2.178 19.480 4.499 L 21.802 6.820 22.673 5.940 C 23.441 5.163,23.561 5.025,23.692 4.760 C 24.203 3.729,24.064 2.641,23.308 1.759 C 23.166 1.594,22.804 1.231,22.504 0.953 C 22.063 0.545,21.894 0.416,21.629 0.286 C 21.078 0.016,20.492 -0.059,19.900 0.065 M3.706 2.863 C 2.852 3.019,2.075 3.419,1.425 4.039 C 0.761 4.672,0.360 5.360,0.109 6.296 L 0.022 6.620 0.009 13.200 C -0.002 19.092,0.003 19.821,0.061 20.170 C 0.221 21.142,0.642 21.962,1.340 22.660 C 2.032 23.351,2.847 23.773,3.815 23.939 C 4.338 24.029,16.828 24.031,17.381 23.941 C 18.363 23.782,19.238 23.325,19.921 22.614 C 20.686 21.819,21.102 20.909,21.200 19.820 C 21.251 19.245,21.252 15.014,21.200 14.700 C 21.115 14.179,20.807 13.767,20.325 13.530 C 20.125 13.432,20.056 13.420,19.700 13.420 C 19.338 13.420,19.277 13.431,19.061 13.538 C 18.755 13.688,18.465 13.978,18.328 14.271 L 18.220 14.500 18.199 17.120 C 18.182 19.384,18.170 19.763,18.115 19.906 C 17.947 20.348,17.675 20.652,17.285 20.835 L 17.060 20.940 10.600 20.940 L 4.140 20.940 3.901 20.823 C 3.596 20.673,3.327 20.404,3.177 20.099 L 3.060 19.860 3.060 13.400 L 3.060 6.940 3.164 6.718 C 3.340 6.342,3.629 6.072,4.040 5.897 C 4.209 5.826,4.377 5.820,6.860 5.800 L 9.500 5.780 9.729 5.672 C 10.022 5.535,10.312 5.245,10.462 4.939 C 10.569 4.723,10.580 4.662,10.580 4.299 C 10.580 3.928,10.570 3.879,10.450 3.634 C 10.296 3.321,10.045 3.075,9.727 2.926 L 9.500 2.820 6.760 2.813 C 4.537 2.808,3.961 2.817,3.706 2.863 M11.959 7.410 C 8.422 10.973,7.841 11.575,7.725 11.794 C 7.651 11.934,7.251 13.068,6.835 14.314 C 5.995 16.835,5.989 16.862,6.176 17.264 C 6.371 17.683,6.741 17.927,7.184 17.929 C 7.395 17.930,7.733 17.828,9.724 17.165 C 11.482 16.578,12.086 16.360,12.300 16.234 C 12.536 16.095,13.223 15.427,16.660 11.995 L 20.740 7.921 18.420 5.600 C 17.144 4.324,16.091 3.280,16.079 3.280 C 16.068 3.280,14.213 5.139,11.959 7.410 " stroke="none" fill-rule="evenodd"></path></svg>