<svg width="24" height="24" viewBox="0 0 24 24" fill="none" xmlns="http://www.w3.org/2000/svg"><path d="M6.080 0.080 C 6.004 0.156,6.000 0.213,6.000 1.160 L 6.000 2.160 3.415 2.160 C 1.533 2.160,0.786 2.173,0.671 2.208 C 0.583 2.234,0.425 2.333,0.320 2.428 C -0.032 2.744,-0.000 1.690,-0.000 13.080 C -0.000 24.372,-0.027 23.400,0.291 23.711 C 0.614 24.027,-0.490 24.000,12.000 24.000 C 24.490 24.000,23.386 24.027,23.709 23.711 C 24.027 23.400,24.000 24.372,24.000 13.080 C 24.000 1.683,24.032 2.744,23.678 2.426 C 23.554 2.315,23.417 2.234,23.304 2.205 C 23.180 2.174,22.330 2.160,20.562 2.160 L 18.000 2.160 18.000 1.160 C 18.000 0.213,17.996 0.156,17.920 0.080 C 17.845 0.005,17.787 0.000,16.920 0.000 C 16.053 0.000,15.995 0.005,15.920 0.080 C 15.844 0.156,15.840 0.213,15.840 1.160 L 15.840 2.160 12.000 2.160 L 8.160 2.160 8.160 1.160 C 8.160 0.213,8.156 0.156,8.080 0.080 C 8.005 0.005,7.947 0.000,7.080 0.000 C 6.213 0.000,6.155 0.005,6.080 0.080 M6.000 5.080 C 6.000 5.787,6.006 5.846,6.080 5.920 C 6.155 5.995,6.213 6.000,7.080 6.000 C 7.947 6.000,8.005 5.995,8.080 5.920 C 8.154 5.846,8.160 5.787,8.160 5.080 L 8.160 4.320 12.000 4.320 L 15.840 4.320 15.840 5.080 C 15.840 5.787,15.846 5.846,15.920 5.920 C 15.995 5.995,16.053 6.000,16.920 6.000 C 17.787 6.000,17.845 5.995,17.920 5.920 C 17.994 5.846,18.000 5.787,18.000 5.080 L 18.000 4.320 19.920 4.320 L 21.840 4.320 21.840 6.360 L 21.840 8.400 12.000 8.400 L 2.160 8.400 2.160 6.360 L 2.160 4.320 4.080 4.320 L 6.000 4.320 6.000 5.080 M21.840 16.140 L 21.840 21.840 12.000 21.840 L 2.160 21.840 2.160 16.140 L 2.160 10.440 12.000 10.440 L 21.840 10.440 21.840 16.140 " stroke="none" fill-rule="evenodd"></path></svg>