<svg width="24" height="24" viewBox="0 0 24 24" fill="none" xmlns="http://www.w3.org/2000/svg"><path d="M1.901 0.044 C 1.145 0.156,0.577 0.530,0.301 1.094 C 0.007 1.695,0.020 1.491,0.020 5.460 L 0.020 9.020 0.112 9.339 C 0.346 10.148,0.798 10.599,1.600 10.826 C 1.844 10.895,2.084 10.900,5.460 10.900 C 8.835 10.900,9.076 10.895,9.320 10.826 C 9.949 10.648,10.380 10.317,10.619 9.826 C 10.912 9.227,10.897 9.446,10.910 5.605 C 10.921 2.561,10.915 2.109,10.858 1.806 C 10.724 1.088,10.363 0.563,9.823 0.299 C 9.227 0.009,9.447 0.023,5.600 0.015 C 3.697 0.011,2.033 0.024,1.901 0.044 M14.981 0.044 C 14.194 0.161,13.627 0.551,13.340 1.172 C 13.077 1.741,13.076 1.756,13.090 5.604 C 13.101 8.751,13.108 9.081,13.171 9.300 C 13.414 10.133,13.873 10.598,14.680 10.826 C 14.924 10.895,15.165 10.900,18.540 10.900 C 21.916 10.900,22.156 10.895,22.400 10.826 C 22.786 10.717,23.069 10.565,23.322 10.332 C 23.585 10.088,23.759 9.783,23.888 9.339 L 23.980 9.020 23.980 5.460 L 23.980 1.900 23.888 1.581 C 23.653 0.771,23.214 0.337,22.380 0.093 C 22.160 0.028,21.850 0.022,18.680 0.015 C 16.777 0.011,15.113 0.024,14.981 0.044 M8.745 1.922 C 8.869 1.982,8.938 2.051,8.998 2.175 C 9.079 2.342,9.080 2.397,9.080 5.460 C 9.080 8.563,9.080 8.575,8.994 8.752 C 8.930 8.884,8.866 8.948,8.744 9.004 C 8.588 9.074,8.418 9.078,5.440 9.079 C 1.932 9.080,2.112 9.094,1.941 8.800 C 1.862 8.663,1.860 8.595,1.849 5.508 C 1.838 2.441,1.840 2.351,1.917 2.177 C 1.979 2.037,2.034 1.981,2.168 1.920 C 2.334 1.845,2.454 1.842,5.457 1.841 C 8.524 1.840,8.578 1.841,8.745 1.922 M21.832 1.920 C 21.966 1.981,22.021 2.037,22.083 2.177 C 22.160 2.351,22.162 2.441,22.151 5.508 C 22.140 8.595,22.138 8.663,22.059 8.800 C 21.888 9.094,22.070 9.080,18.540 9.080 C 14.958 9.080,15.181 9.100,15.010 8.762 L 14.920 8.583 14.921 5.462 C 14.922 2.456,14.925 2.334,15.000 2.169 C 15.059 2.038,15.118 1.979,15.249 1.920 C 15.414 1.845,15.535 1.842,18.540 1.842 C 21.547 1.842,21.666 1.845,21.832 1.920 M4.160 4.160 C 4.083 4.237,4.080 4.293,4.080 5.460 C 4.080 6.627,4.083 6.683,4.160 6.760 C 4.236 6.836,4.293 6.840,5.442 6.840 L 6.644 6.840 6.742 6.742 L 6.840 6.644 6.840 5.442 C 6.840 4.293,6.836 4.236,6.760 4.160 C 6.683 4.083,6.627 4.080,5.460 4.080 C 4.293 4.080,4.237 4.083,4.160 4.160 M17.318 4.162 C 17.239 4.241,17.237 4.280,17.248 5.485 C 17.259 6.672,17.263 6.729,17.340 6.785 C 17.407 6.834,17.622 6.841,18.653 6.832 C 19.821 6.821,19.890 6.816,19.943 6.742 C 19.989 6.679,20.000 6.436,20.000 5.452 C 20.000 4.293,19.996 4.236,19.920 4.160 C 19.843 4.083,19.787 4.080,18.620 4.080 C 17.445 4.080,17.397 4.083,17.318 4.162 M1.782 13.145 C 0.930 13.298,0.352 13.821,0.114 14.651 L 0.020 14.980 0.020 18.540 C 0.020 22.507,0.007 22.306,0.299 22.903 C 0.538 23.391,0.962 23.714,1.620 23.908 C 1.840 23.972,2.151 23.979,5.300 23.991 C 8.369 24.003,8.780 23.997,9.114 23.938 C 10.087 23.765,10.674 23.179,10.858 22.195 C 10.915 21.894,10.921 21.436,10.910 18.396 C 10.899 15.230,10.892 14.920,10.828 14.700 C 10.561 13.796,10.012 13.300,9.100 13.141 C 8.598 13.054,2.269 13.057,1.782 13.145 M13.755 13.786 C 13.711 13.839,13.700 14.098,13.700 15.080 C 13.700 16.062,13.711 16.321,13.755 16.374 C 13.804 16.433,13.946 16.440,15.062 16.440 C 16.147 16.440,16.323 16.432,16.377 16.377 C 16.432 16.323,16.440 16.150,16.440 15.095 C 16.440 14.330,16.425 13.846,16.399 13.797 C 16.359 13.723,16.302 13.720,15.083 13.720 C 13.947 13.720,13.804 13.727,13.755 13.786 M20.675 13.786 C 20.632 13.837,20.617 14.088,20.607 14.916 C 20.594 16.050,20.609 16.284,20.705 16.380 C 20.798 16.472,23.204 16.470,23.297 16.377 C 23.352 16.323,23.360 16.147,23.360 15.065 C 23.360 14.147,23.347 13.803,23.312 13.768 C 23.277 13.733,22.929 13.720,21.997 13.720 C 20.868 13.720,20.724 13.727,20.675 13.786 M8.745 15.002 C 8.869 15.062,8.938 15.131,8.998 15.255 C 9.079 15.422,9.080 15.477,9.080 18.540 C 9.080 21.603,9.079 21.658,8.998 21.825 C 8.938 21.949,8.869 22.018,8.745 22.078 C 8.578 22.159,8.524 22.160,5.457 22.159 C 2.456 22.158,2.334 22.155,2.169 22.080 C 2.038 22.021,1.979 21.962,1.920 21.831 C 1.845 21.666,1.842 21.545,1.842 18.540 C 1.842 15.608,1.846 15.410,1.915 15.260 C 1.997 15.079,2.050 15.028,2.220 14.969 C 2.300 14.940,3.381 14.925,5.457 14.923 C 8.527 14.920,8.577 14.921,8.745 15.002 M4.162 17.238 C 4.083 17.317,4.080 17.365,4.080 18.540 C 4.080 19.707,4.083 19.763,4.160 19.840 C 4.236 19.916,4.293 19.920,5.452 19.920 C 6.436 19.920,6.679 19.909,6.742 19.863 C 6.816 19.809,6.820 19.748,6.820 18.545 C 6.820 17.564,6.808 17.272,6.768 17.232 C 6.728 17.192,6.428 17.177,5.480 17.168 C 4.280 17.157,4.241 17.159,4.162 17.238 M17.280 17.240 C 17.203 17.317,17.200 17.373,17.200 18.540 C 17.200 19.707,17.203 19.763,17.280 19.840 C 17.357 19.917,17.413 19.920,18.570 19.919 C 19.235 19.919,19.801 19.905,19.827 19.889 C 19.940 19.817,19.960 19.608,19.960 18.496 L 19.960 17.356 19.862 17.258 L 19.764 17.160 18.562 17.160 C 17.413 17.160,17.356 17.164,17.280 17.240 M13.755 20.706 C 13.711 20.759,13.700 21.018,13.700 22.000 C 13.700 22.982,13.711 23.241,13.755 23.294 C 13.804 23.353,13.946 23.360,15.062 23.360 C 16.147 23.360,16.323 23.352,16.377 23.297 C 16.432 23.243,16.440 23.069,16.440 22.000 C 16.440 20.931,16.432 20.757,16.377 20.703 C 16.323 20.648,16.147 20.640,15.062 20.640 C 13.946 20.640,13.804 20.647,13.755 20.706 M20.675 20.706 C 20.598 20.799,20.594 23.135,20.671 23.270 L 20.723 23.360 22.000 23.360 C 23.222 23.360,23.279 23.357,23.319 23.283 C 23.345 23.234,23.360 22.743,23.360 21.964 C 23.360 20.778,23.357 20.721,23.283 20.681 C 23.234 20.655,22.744 20.640,21.968 20.640 C 20.865 20.640,20.724 20.647,20.675 20.706 " stroke="none" fill-rule="evenodd"></path></svg>