<svg width="24" height="24" viewBox="0 0 24 24" fill="none" xmlns="http://www.w3.org/2000/svg"><path d="M16.020 0.025 C 14.936 0.190,14.231 0.453,13.398 1.002 C 13.062 1.224,12.490 1.781,8.286 5.976 C 5.682 8.574,3.415 10.862,3.248 11.060 C 1.264 13.419,0.851 16.755,2.199 19.540 C 3.280 21.773,5.310 23.339,7.800 23.861 C 8.480 24.003,9.598 24.040,10.293 23.943 C 11.782 23.734,13.122 23.158,14.280 22.228 C 14.445 22.095,16.330 20.239,18.469 18.103 C 22.852 13.726,22.572 14.045,22.577 13.419 C 22.580 13.134,22.565 13.068,22.448 12.831 C 22.305 12.540,22.104 12.341,21.805 12.193 C 21.652 12.117,21.555 12.101,21.240 12.101 C 20.900 12.100,20.837 12.112,20.640 12.214 C 20.462 12.306,19.662 13.083,16.480 16.256 C 13.534 19.194,12.464 20.236,12.240 20.387 C 10.876 21.308,9.227 21.546,7.691 21.043 C 5.906 20.460,4.564 18.931,4.195 17.060 C 4.111 16.635,4.122 15.506,4.213 15.080 C 4.369 14.352,4.697 13.617,5.131 13.025 C 5.292 12.805,6.819 11.247,9.854 8.206 C 12.321 5.734,14.475 3.595,14.640 3.453 C 14.996 3.145,15.540 2.863,15.940 2.780 C 16.304 2.704,16.920 2.704,17.283 2.781 C 17.664 2.861,18.159 3.098,18.480 3.354 C 19.661 4.298,19.960 5.939,19.193 7.260 C 19.054 7.499,18.387 8.184,14.605 11.973 C 12.171 14.411,10.131 16.431,10.071 16.463 C 9.537 16.746,8.874 16.349,8.874 15.747 C 8.874 15.628,8.903 15.461,8.939 15.376 C 8.986 15.262,9.980 14.241,12.598 11.620 C 15.043 9.171,16.219 7.966,16.276 7.851 C 16.486 7.430,16.468 6.956,16.226 6.552 C 16.082 6.313,15.782 6.069,15.523 5.980 C 15.265 5.892,14.849 5.903,14.572 6.005 C 14.351 6.085,14.171 6.258,10.746 9.675 C 8.769 11.647,7.045 13.392,6.915 13.553 C 6.642 13.892,6.403 14.364,6.273 14.820 C 6.195 15.092,6.182 15.229,6.184 15.740 C 6.186 16.271,6.199 16.380,6.294 16.692 C 6.644 17.845,7.453 18.685,8.584 19.072 C 8.985 19.209,9.332 19.252,9.856 19.229 C 10.589 19.196,11.220 18.978,11.766 18.568 C 11.884 18.480,14.042 16.340,16.563 13.814 C 20.012 10.356,21.190 9.151,21.328 8.940 C 21.980 7.942,22.268 7.050,22.307 5.900 C 22.326 5.363,22.316 5.182,22.247 4.780 C 21.842 2.436,20.091 0.613,17.768 0.118 C 17.390 0.038,16.314 -0.020,16.020 0.025 " stroke="none" fill-rule="evenodd"></path></svg>