<svg width="24" height="24" viewBox="0 0 24 24" fill="none" xmlns="http://www.w3.org/2000/svg"><path d="M0.649 2.599 C 0.420 2.654,0.217 2.820,0.105 3.045 L -0.000 3.256 0.000 12.003 L 0.000 20.751 0.112 20.965 C 0.193 21.121,0.277 21.212,0.419 21.299 L 0.614 21.420 12.000 21.420 L 23.386 21.420 23.581 21.299 C 23.723 21.212,23.807 21.121,23.888 20.965 L 24.000 20.751 24.000 12.000 L 24.000 3.249 23.888 3.035 C 23.807 2.879,23.723 2.788,23.581 2.701 L 23.386 2.580 12.083 2.574 C 5.866 2.571,0.721 2.582,0.649 2.599 M20.998 5.218 C 21.025 5.250,21.040 5.317,21.033 5.367 C 21.023 5.434,19.902 6.327,16.740 8.788 C 14.386 10.620,12.399 12.139,12.325 12.164 C 12.224 12.198,12.151 12.198,12.039 12.164 C 11.939 12.134,10.436 10.990,7.614 8.796 C 5.263 6.968,3.325 5.445,3.306 5.412 C 3.285 5.376,3.289 5.312,3.315 5.256 L 3.358 5.160 12.154 5.160 C 19.775 5.160,20.957 5.168,20.998 5.218 " stroke="none" fill-rule="evenodd"></path></svg>