<svg width="24" height="24" viewBox="0 0 24 24" fill="none" xmlns="http://www.w3.org/2000/svg"><path d="M5.620 0.045 C 4.885 0.214,1.246 1.235,1.046 1.329 C 0.584 1.545,0.197 2.022,0.061 2.541 C -0.011 2.819,-0.018 3.504,0.041 4.360 C 0.239 7.187,0.929 9.763,2.159 12.260 C 3.213 14.401,4.465 16.148,6.158 17.842 C 7.852 19.535,9.599 20.787,11.740 21.841 C 14.237 23.071,16.813 23.761,19.640 23.959 C 20.931 24.049,21.458 24.005,21.896 23.769 C 22.172 23.620,22.526 23.258,22.658 22.988 C 22.718 22.864,23.039 21.777,23.372 20.572 C 23.949 18.476,23.976 18.363,23.978 18.000 C 23.980 17.556,23.915 17.328,23.680 16.965 C 23.382 16.503,23.317 16.469,20.612 15.342 C 17.977 14.243,17.868 14.208,17.380 14.278 C 17.064 14.323,16.743 14.449,16.515 14.618 C 16.408 14.696,15.903 15.274,15.319 15.987 C 14.763 16.665,14.300 17.229,14.291 17.240 C 14.265 17.269,13.495 16.863,12.902 16.507 C 11.790 15.839,10.880 15.123,9.897 14.142 C 9.026 13.273,8.524 12.666,7.893 11.720 C 7.357 10.915,6.716 9.734,6.790 9.684 C 6.997 9.546,9.226 7.682,9.320 7.569 C 9.502 7.350,9.668 6.978,9.722 6.665 C 9.808 6.170,9.777 6.072,8.676 3.428 C 8.125 2.104,7.619 0.934,7.552 0.829 C 7.166 0.223,6.327 -0.118,5.620 0.045 " stroke="none" fill-rule="evenodd"></path></svg>