<svg width="24" height="24" viewBox="0 0 24 24" fill="none" xmlns="http://www.w3.org/2000/svg"><path d="M11.765 1.283 C 11.342 1.366,10.995 1.654,10.850 2.043 C 10.805 2.162,10.415 3.637,9.982 5.320 C 9.549 7.003,9.159 8.455,9.115 8.548 C 9.008 8.771,8.751 9.031,8.546 9.121 C 8.455 9.161,6.978 9.556,5.266 9.998 C 3.553 10.440,2.063 10.839,1.956 10.885 C 1.726 10.985,1.466 11.253,1.348 11.513 C 1.232 11.771,1.231 12.228,1.347 12.485 C 1.459 12.733,1.695 12.986,1.917 13.098 C 2.018 13.149,3.513 13.553,5.240 13.998 C 6.967 14.442,8.460 14.843,8.557 14.890 C 8.783 14.997,9.003 15.217,9.110 15.443 C 9.157 15.540,9.558 17.033,10.002 18.760 C 10.446 20.487,10.851 21.982,10.902 22.083 C 11.014 22.304,11.266 22.540,11.515 22.654 C 11.797 22.783,12.232 22.772,12.527 22.628 C 12.810 22.489,13.046 22.235,13.150 21.957 C 13.194 21.838,13.585 20.363,14.018 18.680 C 14.451 16.997,14.843 15.540,14.889 15.443 C 14.997 15.217,15.217 14.997,15.443 14.890 C 15.540 14.843,17.033 14.442,18.760 13.998 C 20.487 13.554,21.982 13.149,22.083 13.098 C 22.305 12.986,22.540 12.734,22.654 12.485 C 22.772 12.227,22.771 11.772,22.653 11.513 C 22.533 11.250,22.273 10.984,22.040 10.884 C 21.931 10.837,20.442 10.438,18.731 9.997 C 17.020 9.555,15.545 9.162,15.454 9.121 C 15.242 9.028,14.997 8.783,14.890 8.557 C 14.843 8.460,14.442 6.967,13.998 5.240 C 13.553 3.513,13.149 2.018,13.098 1.917 C 12.864 1.452,12.292 1.180,11.765 1.283 M19.820 2.276 C 19.554 2.342,19.353 2.534,19.282 2.791 C 19.259 2.873,19.240 3.232,19.240 3.590 L 19.240 4.240 18.610 4.241 C 17.749 4.242,17.580 4.290,17.373 4.595 C 17.105 4.988,17.324 5.588,17.781 5.715 C 17.868 5.740,18.233 5.760,18.590 5.760 L 19.240 5.760 19.240 6.410 C 19.240 6.768,19.260 7.132,19.285 7.219 C 19.344 7.432,19.578 7.660,19.798 7.719 C 20.198 7.827,20.610 7.599,20.718 7.209 C 20.741 7.127,20.760 6.768,20.760 6.410 L 20.760 5.760 21.410 5.760 C 21.768 5.760,22.132 5.740,22.219 5.715 C 22.676 5.588,22.895 4.988,22.627 4.595 C 22.420 4.290,22.251 4.242,21.390 4.241 L 20.760 4.240 20.760 3.590 C 20.760 2.879,20.729 2.705,20.574 2.520 C 20.398 2.311,20.087 2.210,19.820 2.276 M12.674 6.120 C 13.380 8.863,13.449 9.098,13.647 9.429 C 13.818 9.714,14.286 10.182,14.571 10.353 C 14.902 10.551,15.136 10.619,17.869 11.322 C 19.250 11.677,20.392 11.979,20.408 11.994 C 20.423 12.008,19.388 12.288,18.108 12.616 C 15.201 13.361,15.071 13.398,14.735 13.575 C 14.235 13.838,13.812 14.251,13.565 14.718 C 13.420 14.993,13.356 15.221,12.618 18.090 C 12.291 19.361,12.013 20.400,11.999 20.400 C 11.985 20.400,11.682 19.265,11.325 17.877 C 10.968 16.490,10.634 15.230,10.582 15.078 C 10.360 14.420,9.902 13.904,9.240 13.565 C 8.885 13.383,8.947 13.401,5.923 12.624 C 4.616 12.288,3.563 12.003,3.583 11.991 C 3.604 11.979,4.718 11.687,6.060 11.342 C 8.804 10.638,9.139 10.538,9.468 10.324 C 9.766 10.130,10.132 9.764,10.327 9.464 C 10.538 9.138,10.656 8.744,11.362 5.990 C 11.699 4.676,11.986 3.600,12.000 3.600 C 12.014 3.600,12.318 4.734,12.674 6.120 M3.820 16.276 C 3.460 16.366,3.241 16.671,3.240 17.084 L 3.240 17.229 2.999 17.254 C 2.866 17.268,2.707 17.306,2.644 17.338 C 2.382 17.473,2.207 17.829,2.260 18.115 C 2.336 18.517,2.647 18.759,3.090 18.760 C 3.237 18.760,3.240 18.763,3.240 18.910 C 3.241 19.238,3.398 19.535,3.636 19.658 C 4.174 19.936,4.759 19.547,4.760 18.910 C 4.760 18.763,4.763 18.760,4.910 18.760 C 5.353 18.759,5.664 18.517,5.740 18.115 C 5.793 17.829,5.618 17.473,5.356 17.338 C 5.293 17.306,5.134 17.268,5.001 17.254 L 4.760 17.229 4.760 17.084 C 4.759 16.762,4.600 16.463,4.365 16.343 C 4.224 16.271,3.967 16.240,3.820 16.276 " stroke="none" fill-rule="evenodd" fill="black"></path></svg>