<svg width="24" height="24" viewBox="0 0 24 24" fill="none" xmlns="http://www.w3.org/2000/svg"><path d="M11.780 1.364 C 11.670 1.379,9.879 1.818,7.800 2.339 C 5.107 3.013,3.951 3.319,3.780 3.403 C 3.297 3.640,2.916 4.083,2.760 4.588 C 2.681 4.845,2.680 4.950,2.680 12.421 L 2.680 19.993 1.830 20.007 L 0.980 20.020 0.727 20.157 C 0.448 20.308,0.253 20.511,0.113 20.795 C -0.025 21.075,-0.019 21.577,0.127 21.887 C 0.262 22.177,0.551 22.454,0.837 22.570 L 1.060 22.660 7.190 22.671 L 13.320 22.681 13.320 12.542 C 13.320 2.446,13.320 2.402,13.239 2.186 C 13.024 1.611,12.426 1.274,11.780 1.364 M14.680 5.340 L 14.680 6.680 16.680 6.680 L 18.680 6.680 18.680 14.138 C 18.680 21.540,18.681 21.599,18.761 21.814 C 18.876 22.120,19.111 22.371,19.431 22.529 L 19.698 22.660 21.209 22.672 C 22.485 22.683,22.760 22.675,22.970 22.621 C 23.954 22.372,24.320 21.222,23.661 20.452 C 23.587 20.365,23.412 20.233,23.273 20.157 L 23.020 20.020 22.171 20.007 L 21.321 19.993 21.311 13.047 L 21.300 6.100 21.192 5.808 C 20.845 4.874,20.046 4.193,19.120 4.043 C 18.962 4.017,18.042 4.000,16.770 4.000 L 14.680 4.000 14.680 5.340 M10.129 10.823 C 10.315 10.954,10.537 11.287,10.605 11.537 C 10.628 11.623,10.646 11.840,10.646 12.019 C 10.644 12.757,10.222 13.320,9.670 13.320 C 9.409 13.320,9.237 13.233,9.020 12.991 C 8.473 12.384,8.605 11.183,9.260 10.795 C 9.435 10.691,9.491 10.678,9.709 10.690 C 9.908 10.701,9.993 10.728,10.129 10.823 " stroke="none" fill-rule="evenodd"></path></svg>