<svg width="24" height="24" viewBox="0 0 24 24" fill="none" xmlns="http://www.w3.org/2000/svg"><path d="M21.900 1.259 C 21.878 1.267,21.806 1.285,21.740 1.299 C 21.652 1.318,21.269 1.675,20.311 2.631 L 19.001 3.937 18.491 3.435 C 17.929 2.882,17.738 2.739,17.300 2.536 C 16.866 2.336,16.534 2.267,16.000 2.267 C 15.285 2.267,14.709 2.450,14.146 2.856 C 14.011 2.954,13.321 3.615,12.613 4.327 C 11.474 5.472,11.321 5.640,11.280 5.796 C 11.230 5.984,11.253 6.194,11.341 6.359 C 11.370 6.414,12.795 7.858,14.507 9.567 C 17.190 12.244,17.642 12.679,17.780 12.717 C 17.979 12.770,18.021 12.770,18.220 12.716 C 18.354 12.680,18.589 12.465,19.673 11.386 C 20.385 10.679,21.046 9.989,21.144 9.854 C 21.557 9.281,21.736 8.722,21.736 8.000 C 21.736 7.438,21.678 7.165,21.460 6.693 C 21.262 6.263,21.116 6.069,20.565 5.509 L 20.063 4.999 21.368 3.689 C 22.463 2.590,22.680 2.354,22.716 2.220 C 22.770 2.022,22.770 1.978,22.718 1.791 C 22.670 1.617,22.514 1.419,22.365 1.343 C 22.254 1.287,21.968 1.235,21.900 1.259 M16.700 3.914 C 16.959 4.035,17.089 4.154,18.468 5.532 C 19.840 6.905,19.966 7.042,20.088 7.300 C 20.211 7.561,20.220 7.608,20.220 8.000 C 20.220 8.391,20.211 8.439,20.089 8.696 C 19.973 8.941,19.848 9.084,18.980 9.956 L 18.002 10.940 15.531 8.469 L 13.060 5.998 14.040 5.024 C 15.238 3.834,15.373 3.751,16.060 3.772 C 16.369 3.781,16.459 3.801,16.700 3.914 M9.900 10.259 C 9.878 10.267,9.806 10.285,9.740 10.299 C 9.653 10.318,9.327 10.618,8.559 11.383 L 7.498 12.440 6.979 11.917 C 6.694 11.630,6.406 11.366,6.340 11.331 C 6.185 11.248,5.815 11.248,5.660 11.331 C 5.501 11.415,2.966 13.968,2.811 14.200 C 2.615 14.493,2.447 14.855,2.352 15.188 C 2.226 15.630,2.226 16.370,2.352 16.812 C 2.536 17.456,2.761 17.805,3.435 18.491 L 3.937 19.001 2.633 20.311 C 1.229 21.721,1.206 21.751,1.258 22.100 C 1.326 22.552,1.761 22.837,2.205 22.720 C 2.359 22.679,2.534 22.520,3.689 21.368 L 4.999 20.063 5.509 20.565 C 6.069 21.116,6.263 21.262,6.693 21.460 C 7.165 21.678,7.438 21.736,8.000 21.736 C 8.722 21.736,9.281 21.557,9.854 21.144 C 9.989 21.046,10.679 20.385,11.387 19.673 C 12.526 18.528,12.679 18.360,12.720 18.204 C 12.770 18.016,12.747 17.807,12.659 17.641 C 12.630 17.586,12.370 17.306,12.083 17.021 L 11.560 16.502 12.617 15.441 C 13.493 14.560,13.680 14.353,13.716 14.220 C 13.770 14.022,13.770 13.978,13.718 13.791 C 13.668 13.610,13.513 13.419,13.345 13.332 C 13.184 13.248,12.817 13.248,12.660 13.331 C 12.594 13.366,12.081 13.855,11.520 14.417 L 10.501 15.440 9.531 14.471 L 8.561 13.501 9.617 12.441 C 10.493 11.560,10.680 11.353,10.716 11.220 C 10.770 11.022,10.770 10.978,10.718 10.791 C 10.670 10.617,10.514 10.419,10.365 10.343 C 10.254 10.287,9.968 10.235,9.900 10.259 M8.480 15.541 L 10.940 18.002 9.959 18.979 C 9.084 19.850,8.948 19.970,8.699 20.088 C 8.438 20.211,8.392 20.220,8.000 20.220 C 7.608 20.220,7.561 20.211,7.300 20.088 C 7.041 19.966,6.907 19.843,5.532 18.468 C 4.161 17.097,4.034 16.958,3.912 16.700 C 3.789 16.438,3.780 16.392,3.780 16.000 C 3.780 15.609,3.789 15.561,3.911 15.304 C 4.026 15.061,4.153 14.916,5.008 14.054 C 5.540 13.518,5.985 13.080,5.998 13.080 C 6.010 13.080,7.127 14.187,8.480 15.541 " stroke="none" fill-rule="evenodd" fill="black"></path></svg>