<svg width="24" height="24" viewBox="0 0 24 24" fill="none" xmlns="http://www.w3.org/2000/svg"><path d="M3.617 2.283 C 3.034 2.351,2.519 2.610,2.065 3.064 C 1.732 3.396,1.521 3.735,1.369 4.180 L 1.260 4.500 1.260 10.000 L 1.260 15.500 1.369 15.820 C 1.520 16.265,1.731 16.603,2.064 16.936 C 2.397 17.269,2.735 17.480,3.180 17.631 L 3.500 17.740 7.370 17.751 L 11.240 17.763 11.240 19.001 L 11.240 20.240 9.610 20.241 C 8.713 20.241,7.909 20.258,7.823 20.278 C 7.258 20.409,7.062 21.111,7.475 21.524 C 7.556 21.605,7.693 21.691,7.781 21.715 C 8.005 21.778,15.995 21.778,16.219 21.715 C 16.307 21.691,16.444 21.605,16.525 21.524 C 16.938 21.111,16.742 20.409,16.177 20.278 C 16.091 20.258,15.287 20.241,14.390 20.241 L 12.760 20.240 12.760 19.001 L 12.760 17.763 16.630 17.751 L 20.500 17.740 20.820 17.631 C 21.265 17.480,21.603 17.269,21.936 16.936 C 22.269 16.603,22.480 16.265,22.631 15.820 L 22.740 15.500 22.740 10.000 L 22.740 4.500 22.631 4.180 C 22.479 3.735,22.268 3.396,21.935 3.064 C 21.463 2.593,20.974 2.355,20.329 2.281 C 19.902 2.232,4.037 2.234,3.617 2.283 M20.528 3.873 C 20.767 3.991,21.009 4.233,21.127 4.472 L 21.220 4.660 21.220 10.000 L 21.220 15.340 21.127 15.529 C 20.995 15.797,20.711 16.063,20.453 16.159 C 20.239 16.239,20.161 16.240,12.000 16.240 C 3.839 16.240,3.761 16.239,3.547 16.159 C 3.289 16.063,3.005 15.797,2.873 15.529 L 2.780 15.340 2.769 10.080 C 2.760 6.163,2.769 4.776,2.804 4.650 C 2.897 4.310,3.237 3.950,3.586 3.822 C 3.717 3.774,4.980 3.766,12.040 3.773 L 20.340 3.780 20.528 3.873 M14.900 7.259 C 14.878 7.267,14.806 7.285,14.740 7.299 C 14.651 7.318,14.154 7.791,12.810 9.132 L 11.000 10.939 10.210 10.154 C 9.775 9.722,9.375 9.346,9.320 9.318 C 9.180 9.246,8.805 9.254,8.655 9.332 C 8.293 9.520,8.147 9.994,8.341 10.359 C 8.370 10.414,8.895 10.958,9.507 11.567 C 10.485 12.539,10.641 12.679,10.796 12.720 C 10.984 12.770,11.193 12.747,11.359 12.659 C 11.414 12.630,12.408 11.655,13.567 10.493 C 15.734 8.320,15.760 8.290,15.760 8.000 C 15.760 7.763,15.571 7.449,15.365 7.343 C 15.254 7.287,14.968 7.235,14.900 7.259 " stroke="none" fill-rule="evenodd" fill="black"></path></svg>