<svg width="24" height="24" viewBox="0 0 24 24" fill="none" xmlns="http://www.w3.org/2000/svg"><path d="M5.860 2.047 C 3.688 2.292,1.835 3.863,1.220 5.980 C 1.002 6.734,1.000 6.762,1.001 11.180 C 1.001 15.127,1.003 15.271,1.081 15.595 C 1.272 16.391,1.809 17.069,2.523 17.413 C 2.915 17.603,3.370 17.720,3.711 17.720 C 4.063 17.720,4.309 17.823,4.560 18.074 C 4.880 18.394,4.920 18.533,4.921 19.337 C 4.921 20.057,4.975 20.392,5.144 20.737 C 5.385 21.229,5.843 21.651,6.340 21.836 C 6.960 22.069,7.521 22.043,8.116 21.755 C 8.453 21.592,8.493 21.556,10.000 20.061 C 10.847 19.221,11.627 18.475,11.733 18.403 C 12.035 18.198,12.631 17.931,13.002 17.835 C 13.326 17.751,13.444 17.746,15.800 17.719 C 18.505 17.689,18.437 17.695,19.266 17.420 C 20.069 17.153,20.761 16.721,21.381 16.101 C 22.001 15.482,22.433 14.789,22.700 13.986 C 22.988 13.120,22.980 13.240,22.980 9.860 C 22.980 6.480,22.988 6.600,22.700 5.733 C 22.030 3.719,20.219 2.275,18.072 2.042 C 17.588 1.990,6.328 1.994,5.860 2.047 M18.480 3.696 C 19.950 4.123,21.003 5.220,21.343 6.680 C 21.404 6.944,21.415 7.285,21.429 9.540 C 21.447 12.236,21.427 12.742,21.278 13.277 C 21.095 13.939,20.719 14.560,20.206 15.048 C 19.684 15.546,19.160 15.838,18.445 16.031 L 18.060 16.135 15.600 16.161 C 13.478 16.184,13.099 16.198,12.840 16.257 C 12.119 16.423,11.487 16.695,10.862 17.108 C 10.522 17.333,10.228 17.605,8.960 18.863 C 7.356 20.455,7.336 20.471,7.021 20.400 C 6.829 20.357,6.692 20.262,6.598 20.108 C 6.532 19.998,6.520 19.905,6.520 19.459 C 6.520 18.209,6.315 17.599,5.680 16.960 C 5.189 16.466,4.656 16.230,3.874 16.161 C 3.217 16.104,2.906 15.916,2.685 15.443 L 2.580 15.220 2.580 11.140 C 2.580 7.338,2.585 7.037,2.653 6.721 C 2.974 5.229,4.129 4.030,5.563 3.700 C 5.726 3.663,5.878 3.626,5.900 3.619 C 5.922 3.612,8.703 3.609,12.080 3.613 C 17.966 3.620,18.231 3.624,18.480 3.696 M6.180 7.577 C 6.029 7.644,5.818 7.865,5.762 8.013 C 5.610 8.417,5.862 8.925,6.271 9.038 C 6.477 9.096,17.523 9.096,17.729 9.038 C 18.137 8.925,18.364 8.483,18.240 8.039 C 18.196 7.878,17.956 7.626,17.787 7.562 C 17.710 7.533,15.898 7.520,11.987 7.522 C 7.316 7.523,6.279 7.533,6.180 7.577 M6.262 10.699 C 5.892 10.832,5.705 11.109,5.730 11.486 C 5.754 11.852,5.983 12.111,6.360 12.197 C 6.616 12.255,11.090 12.254,11.363 12.196 C 12.065 12.045,12.221 11.131,11.607 10.770 L 11.420 10.660 8.920 10.651 C 6.845 10.644,6.393 10.652,6.262 10.699 M14.180 10.676 C 14.001 10.721,13.904 10.782,13.768 10.937 C 13.653 11.067,13.561 11.293,13.560 11.443 C 13.560 11.614,13.698 11.889,13.848 12.018 C 14.440 12.524,15.321 11.958,15.100 11.213 C 15.044 11.023,14.873 10.816,14.700 10.729 C 14.581 10.670,14.316 10.642,14.180 10.676 " stroke="none" fill-rule="evenodd"></path></svg>