<svg width="24" height="24" viewBox="0 0 24 24" fill="none" xmlns="http://www.w3.org/2000/svg"><path d="M3.580 1.601 C 2.693 1.789,1.973 2.182,1.315 2.837 C 0.722 3.427,0.289 4.214,0.094 5.060 C 0.024 5.364,0.020 5.704,0.020 12.000 C 0.020 18.296,0.024 18.636,0.094 18.940 C 0.541 20.878,2.112 22.272,4.080 22.479 C 4.602 22.534,7.441 22.532,7.741 22.476 C 8.233 22.385,8.637 22.083,8.850 21.644 C 8.968 21.402,8.978 21.348,8.977 21.000 C 8.976 20.678,8.960 20.586,8.873 20.400 C 8.722 20.076,8.480 19.825,8.169 19.671 L 7.902 19.540 6.061 19.517 C 4.936 19.504,4.173 19.479,4.099 19.453 C 3.720 19.321,3.437 19.108,3.245 18.808 C 2.987 18.406,3.000 18.765,3.000 12.000 C 3.000 5.235,2.987 5.594,3.245 5.192 C 3.395 4.958,3.580 4.793,3.851 4.650 L 4.060 4.540 5.920 4.517 C 7.102 4.502,7.827 4.478,7.909 4.450 C 8.341 4.303,8.689 3.997,8.873 3.600 C 8.960 3.414,8.976 3.322,8.977 3.000 C 8.978 2.652,8.968 2.598,8.850 2.356 C 8.704 2.055,8.470 1.819,8.154 1.653 L 7.940 1.540 5.940 1.532 C 4.106 1.525,3.910 1.531,3.580 1.601 M16.034 4.574 C 15.618 4.728,15.305 5.011,15.125 5.395 C 15.035 5.589,15.020 5.673,15.020 6.000 C 15.020 6.655,14.960 6.576,17.042 8.661 C 18.031 9.651,18.840 10.474,18.840 10.491 C 18.840 10.507,16.558 10.521,13.770 10.521 C 8.111 10.523,8.497 10.504,8.111 10.800 C 7.715 11.105,7.511 11.512,7.511 12.000 C 7.511 12.631,7.879 13.163,8.488 13.413 L 8.700 13.500 13.778 13.511 L 18.857 13.522 17.050 15.331 C 14.959 17.425,15.020 17.345,15.020 18.001 C 15.020 18.350,15.031 18.404,15.151 18.648 C 15.449 19.253,16.115 19.602,16.736 19.480 C 17.239 19.381,17.125 19.483,20.565 16.044 C 23.635 12.976,23.795 12.808,23.884 12.580 C 23.957 12.393,23.977 12.261,23.977 11.980 C 23.978 11.317,24.178 11.554,20.552 7.934 C 17.965 5.351,17.339 4.747,17.160 4.656 C 16.974 4.562,16.881 4.543,16.560 4.532 C 16.308 4.523,16.131 4.537,16.034 4.574 " stroke="none" fill-rule="evenodd"></path></svg>