<svg width="24" height="24" viewBox="0 0 24 24" fill="none" xmlns="http://www.w3.org/2000/svg"><path d="M11.240 0.023 C 11.163 0.032,10.902 0.059,10.660 0.083 C 7.463 0.403,4.406 2.149,2.405 4.800 C 0.289 7.601,-0.477 11.191,0.301 14.659 C 0.915 17.400,2.507 19.856,4.793 21.590 C 6.386 22.799,8.222 23.558,10.359 23.891 C 11.143 24.013,12.857 24.013,13.641 23.891 C 16.557 23.436,19.036 22.122,20.896 20.043 C 22.545 18.200,23.498 16.163,23.891 13.641 C 23.961 13.188,23.975 12.921,23.975 12.000 C 23.975 11.079,23.961 10.812,23.891 10.359 C 23.558 8.222,22.799 6.386,21.590 4.793 C 19.606 2.178,16.772 0.533,13.500 0.099 C 13.046 0.039,11.542 -0.012,11.240 0.023 M17.937 11.384 C 18.032 11.421,18.032 12.579,17.937 12.616 C 17.854 12.647,6.146 12.647,6.063 12.616 C 6.010 12.595,6.000 12.502,6.000 11.999 C 6.000 11.563,6.013 11.401,6.050 11.386 C 6.122 11.357,17.861 11.355,17.937 11.384 " fill="white" stroke="none" fill-rule="evenodd"></path></svg>