<svg width="24" height="24" viewBox="0 0 24 24" fill="none" xmlns="http://www.w3.org/2000/svg"><path d="M5.617 1.283 C 5.033 1.352,4.519 1.611,4.065 2.064 C 3.732 2.396,3.521 2.735,3.369 3.180 L 3.260 3.500 3.260 12.000 L 3.260 20.500 3.369 20.820 C 3.520 21.265,3.731 21.603,4.064 21.936 C 4.397 22.269,4.735 22.480,5.180 22.631 L 5.500 22.740 12.000 22.740 L 18.500 22.740 18.820 22.631 C 19.265 22.480,19.603 22.269,19.936 21.936 C 20.269 21.603,20.480 21.265,20.631 20.820 L 20.740 20.500 20.751 13.727 C 20.758 8.917,20.749 6.906,20.718 6.787 C 20.679 6.640,20.371 6.316,18.087 4.028 C 16.664 2.603,15.437 1.397,15.360 1.348 L 15.220 1.260 10.560 1.255 C 7.997 1.252,5.772 1.265,5.617 1.283 M13.249 4.630 L 13.262 6.500 13.370 6.820 C 13.519 7.263,13.730 7.602,14.064 7.936 C 14.398 8.270,14.737 8.481,15.180 8.630 L 15.500 8.738 17.370 8.751 L 19.241 8.765 19.230 14.553 L 19.220 20.340 19.127 20.529 C 18.995 20.797,18.711 21.063,18.453 21.159 C 18.240 21.239,18.156 21.240,12.000 21.240 C 5.844 21.240,5.760 21.239,5.547 21.159 C 5.289 21.063,5.005 20.797,4.873 20.529 L 4.780 20.340 4.769 12.080 C 4.760 5.884,4.769 3.777,4.804 3.650 C 4.897 3.310,5.237 2.950,5.586 2.822 C 5.714 2.775,6.370 2.765,9.488 2.763 L 13.235 2.760 13.249 4.630 M17.463 7.230 C 15.842 7.240,15.756 7.237,15.549 7.160 C 15.289 7.063,15.005 6.798,14.873 6.529 C 14.780 6.341,14.780 6.332,14.769 4.580 L 14.758 2.820 16.959 5.020 L 19.160 7.220 17.463 7.230 M14.900 12.259 C 14.878 12.267,14.806 12.285,14.740 12.299 C 14.651 12.318,14.154 12.791,12.810 14.132 L 11.000 15.939 10.210 15.154 C 9.775 14.722,9.375 14.346,9.320 14.318 C 9.180 14.246,8.805 14.254,8.655 14.332 C 8.293 14.520,8.147 14.994,8.341 15.359 C 8.370 15.414,8.895 15.958,9.507 16.567 C 10.485 17.539,10.641 17.679,10.796 17.720 C 10.984 17.770,11.193 17.747,11.359 17.659 C 11.414 17.630,12.408 16.655,13.567 15.493 C 15.734 13.320,15.760 13.290,15.760 13.000 C 15.760 12.763,15.571 12.449,15.365 12.343 C 15.254 12.287,14.968 12.235,14.900 12.259 " stroke="none" fill-rule="evenodd" fill="black"></path></svg>