<svg width="24" height="24" viewBox="0 0 24 24" fill="none" xmlns="http://www.w3.org/2000/svg"><path d="M11.200 0.025 C 7.677 0.288,4.535 1.992,2.410 4.793 C 1.201 6.386,0.442 8.222,0.109 10.359 C -0.013 11.143,-0.013 12.857,0.109 13.641 C 0.563 16.554,1.872 19.025,3.948 20.887 C 5.791 22.541,7.832 23.497,10.359 23.891 C 11.143 24.013,12.857 24.013,13.641 23.891 C 16.557 23.436,19.036 22.122,20.896 20.043 C 22.545 18.200,23.498 16.163,23.891 13.641 C 24.013 12.857,24.013 11.143,23.891 10.359 C 23.557 8.220,22.799 6.386,21.588 4.790 C 19.607 2.180,16.766 0.532,13.500 0.099 C 13.032 0.037,11.640 -0.007,11.200 0.025 M13.280 2.120 C 13.816 2.197,14.410 2.325,14.880 2.467 C 18.065 3.430,20.570 5.935,21.533 9.120 C 21.829 10.100,21.938 10.877,21.938 12.000 C 21.938 13.123,21.829 13.900,21.533 14.880 C 20.530 18.198,17.887 20.741,14.507 21.639 C 13.600 21.880,13.125 21.937,12.000 21.937 C 10.902 21.937,10.448 21.885,9.556 21.659 C 8.208 21.317,6.829 20.625,5.720 19.734 C 3.975 18.331,2.678 16.191,2.245 14.000 C 2.096 13.242,2.062 12.872,2.062 12.000 C 2.062 10.877,2.171 10.100,2.467 9.120 C 3.419 5.971,5.864 3.497,9.007 2.501 C 9.536 2.334,10.235 2.183,10.760 2.123 C 10.969 2.099,11.203 2.072,11.280 2.063 C 11.524 2.035,12.968 2.076,13.280 2.120 M9.262 7.129 C 9.212 7.201,9.200 7.345,9.200 7.871 C 9.200 8.606,9.236 8.808,9.403 9.011 C 9.467 9.088,10.401 9.788,11.478 10.566 C 12.556 11.344,13.434 11.992,13.429 12.007 C 13.424 12.021,12.556 12.656,11.500 13.418 C 10.444 14.180,9.515 14.874,9.435 14.961 C 9.350 15.054,9.271 15.193,9.245 15.297 C 9.199 15.479,9.183 16.671,9.224 16.825 C 9.237 16.872,9.292 16.931,9.348 16.957 C 9.431 16.994,9.469 16.990,9.555 16.934 C 9.828 16.756,16.034 12.257,16.130 12.168 C 16.281 12.027,16.268 11.948,16.070 11.788 C 15.977 11.712,14.466 10.613,12.712 9.345 C 10.525 7.763,9.493 7.040,9.425 7.040 C 9.367 7.040,9.298 7.077,9.262 7.129 " stroke="none" fill-rule="evenodd"></path></svg>