<svg width="24" height="24" viewBox="0 0 24 24" fill="none" xmlns="http://www.w3.org/2000/svg"><path d="M7.000 2.283 C 6.058 2.352,5.108 2.656,4.282 3.153 C 3.228 3.787,2.343 4.768,1.840 5.860 C 0.818 8.080,1.134 10.439,2.743 12.602 C 3.281 13.325,3.850 13.916,7.747 17.807 C 11.277 21.331,11.636 21.678,11.796 21.720 C 11.984 21.770,12.193 21.747,12.359 21.659 C 12.506 21.582,20.370 13.688,20.727 13.260 C 21.609 12.201,22.105 11.372,22.422 10.420 C 22.858 9.112,22.855 7.840,22.413 6.500 C 21.878 4.881,20.644 3.524,19.058 2.810 C 18.084 2.372,17.041 2.196,15.923 2.281 C 14.490 2.390,13.434 2.810,12.310 3.716 L 12.000 3.966 11.690 3.716 C 10.839 3.030,9.948 2.593,9.008 2.402 C 8.671 2.333,7.654 2.229,7.480 2.246 C 7.447 2.249,7.231 2.266,7.000 2.283 M8.380 3.820 C 9.474 3.980,10.211 4.364,11.227 5.301 C 11.887 5.911,12.113 5.911,12.773 5.301 C 13.585 4.552,14.260 4.141,15.020 3.934 C 15.604 3.775,16.593 3.713,17.160 3.801 C 18.210 3.963,19.167 4.451,19.884 5.189 C 21.323 6.670,21.643 8.819,20.697 10.660 C 20.130 11.764,19.853 12.074,15.674 16.260 L 12.000 19.940 8.268 16.200 C 6.151 14.079,4.404 12.295,4.232 12.080 C 3.215 10.807,2.761 9.697,2.760 8.488 C 2.759 6.165,4.476 4.175,6.800 3.804 C 7.151 3.749,7.945 3.756,8.380 3.820 " stroke="none" fill-rule="evenodd" fill="black"></path></svg>