<svg width="24" height="24" viewBox="0 0 24 24" fill="none" xmlns="http://www.w3.org/2000/svg"><path d="M2.379 2.698 C 1.235 2.876,0.481 3.498,0.168 4.521 C -0.002 5.077,-0.005 5.227,0.008 12.260 L 0.020 18.980 0.110 19.300 C 0.408 20.366,1.019 20.971,2.080 21.250 L 2.420 21.340 12.000 21.340 L 21.580 21.340 21.920 21.250 C 22.645 21.059,23.195 20.690,23.518 20.178 C 23.715 19.867,23.899 19.334,23.957 18.907 C 23.986 18.695,24.000 16.464,24.000 12.007 C 24.000 4.964,24.000 4.996,23.804 4.429 C 23.529 3.637,23.003 3.111,22.211 2.836 C 21.632 2.635,21.890 2.640,11.960 2.644 C 4.770 2.647,2.628 2.659,2.379 2.698 M7.440 12.000 L 7.440 19.720 5.147 19.720 C 2.622 19.720,2.603 19.718,2.240 19.472 C 2.005 19.313,1.891 19.167,1.764 18.866 L 1.660 18.620 1.660 12.000 L 1.660 5.380 1.751 5.154 C 1.918 4.742,2.286 4.423,2.710 4.323 C 2.792 4.304,3.891 4.286,5.150 4.284 L 7.440 4.280 7.440 12.000 M14.920 12.000 L 14.920 19.720 12.000 19.720 L 9.080 19.720 9.080 12.000 L 9.080 4.280 12.000 4.280 L 14.920 4.280 14.920 12.000 M21.552 4.416 C 21.860 4.559,22.119 4.832,22.248 5.152 L 22.340 5.380 22.340 12.000 L 22.340 18.620 22.245 18.860 C 22.124 19.165,21.783 19.514,21.498 19.623 C 21.313 19.694,21.145 19.700,18.930 19.711 L 16.560 19.723 16.560 12.000 L 16.560 4.277 18.930 4.289 L 21.300 4.300 21.552 4.416 " stroke="none" fill-rule="evenodd"></path></svg>