<svg width="24" height="24" viewBox="0 0 24 24" fill="none" xmlns="http://www.w3.org/2000/svg"><path d="M10.920 0.083 C 10.733 0.100,10.376 0.145,10.127 0.182 C 9.752 0.238,9.643 0.271,9.487 0.375 C 9.201 0.566,9.151 0.709,8.921 1.980 C 8.809 2.596,8.705 3.124,8.689 3.153 C 8.673 3.182,8.435 3.309,8.160 3.434 C 7.572 3.703,7.090 3.981,6.569 4.352 C 6.362 4.499,6.154 4.645,6.106 4.675 C 6.028 4.724,5.912 4.691,4.920 4.338 C 4.315 4.123,3.734 3.938,3.629 3.928 C 3.228 3.889,3.000 4.061,2.401 4.859 C 1.809 5.646,1.286 6.580,0.898 7.540 C 0.635 8.191,0.610 8.390,0.754 8.688 C 0.828 8.841,1.016 9.020,1.782 9.668 C 2.711 10.453,2.720 10.461,2.703 10.600 C 2.609 11.402,2.587 12.031,2.635 12.627 C 2.662 12.975,2.694 13.324,2.706 13.401 L 2.727 13.543 1.780 14.355 C 0.744 15.243,0.683 15.320,0.681 15.710 C 0.680 15.868,0.728 16.040,0.877 16.416 C 1.298 17.479,1.966 18.630,2.667 19.500 C 3.275 20.254,3.352 20.261,4.932 19.687 L 6.044 19.283 6.390 19.544 C 7.000 20.004,7.649 20.370,8.560 20.768 L 8.701 20.830 8.893 21.885 C 9.132 23.198,9.167 23.323,9.344 23.519 C 9.514 23.707,9.697 23.780,10.202 23.858 C 11.441 24.051,12.825 24.035,14.053 23.814 C 14.456 23.742,14.679 23.605,14.810 23.351 C 14.855 23.263,14.976 22.723,15.102 22.039 C 15.221 21.400,15.327 20.862,15.337 20.844 C 15.348 20.826,15.443 20.780,15.549 20.740 C 16.149 20.514,17.171 19.927,17.744 19.479 L 17.989 19.288 19.103 19.685 C 19.717 19.903,20.284 20.093,20.365 20.105 C 20.597 20.142,20.875 20.029,21.089 19.809 C 21.338 19.555,21.881 18.821,22.198 18.313 C 22.738 17.445,23.308 16.179,23.347 15.760 C 23.383 15.373,23.280 15.243,22.240 14.356 C 21.368 13.612,21.340 13.584,21.343 13.444 C 21.345 13.365,21.371 13.016,21.401 12.669 C 21.446 12.140,21.446 11.931,21.401 11.369 C 21.372 11.001,21.346 10.642,21.344 10.571 C 21.340 10.451,21.404 10.387,22.258 9.651 C 22.764 9.216,23.214 8.797,23.258 8.720 C 23.319 8.617,23.339 8.512,23.338 8.320 C 23.336 8.100,23.303 7.980,23.122 7.540 C 22.642 6.370,22.121 5.487,21.314 4.474 C 20.996 4.073,20.828 3.958,20.520 3.931 C 20.319 3.913,20.202 3.946,19.146 4.321 L 17.992 4.730 17.886 4.646 C 17.323 4.200,16.271 3.583,15.592 3.301 L 15.323 3.189 15.283 2.985 C 15.260 2.872,15.159 2.331,15.058 1.783 C 14.957 1.235,14.851 0.740,14.821 0.683 C 14.753 0.552,14.575 0.386,14.420 0.309 C 14.009 0.105,12.045 -0.023,10.920 0.083 M12.732 7.100 C 15.276 7.483,17.047 9.889,16.662 12.440 C 16.314 14.751,14.358 16.440,12.029 16.440 C 11.451 16.440,11.001 16.370,10.513 16.205 C 8.590 15.553,7.320 13.776,7.320 11.738 C 7.320 8.848,9.864 6.667,12.732 7.100 M11.380 8.819 C 10.505 9.012,9.724 9.624,9.339 10.416 C 9.106 10.896,9.028 11.237,9.028 11.760 C 9.029 12.374,9.166 12.836,9.503 13.365 C 10.048 14.220,10.971 14.724,12.000 14.729 C 12.532 14.731,12.870 14.652,13.360 14.411 C 13.681 14.253,13.796 14.168,14.100 13.862 C 14.704 13.255,14.951 12.708,14.990 11.896 C 15.034 10.968,14.708 10.167,14.032 9.541 C 13.678 9.213,13.092 8.912,12.632 8.821 C 12.261 8.748,11.708 8.747,11.380 8.819 " stroke="none" fill-rule="evenodd"></path></svg>