<svg width="24" height="24" viewBox="0 0 24 24" fill="none" xmlns="http://www.w3.org/2000/svg"><path d="M14.761 3.083 C 14.537 3.184,14.451 3.261,14.359 3.442 C 14.249 3.658,14.224 3.860,14.282 4.072 C 14.327 4.237,14.425 4.353,15.087 5.022 C 15.501 5.441,15.840 5.801,15.840 5.822 C 15.840 5.842,15.122 6.579,14.243 7.459 C 12.892 8.815,12.640 9.085,12.604 9.220 C 12.482 9.671,12.583 9.851,13.430 10.685 C 14.131 11.375,14.231 11.441,14.565 11.439 C 14.850 11.437,14.990 11.318,16.580 9.724 C 17.438 8.864,18.157 8.160,18.178 8.160 C 18.199 8.160,18.559 8.499,18.978 8.912 C 19.594 9.521,19.772 9.674,19.905 9.712 C 20.144 9.782,20.275 9.771,20.505 9.664 C 20.722 9.563,20.880 9.387,20.954 9.164 C 20.987 9.068,21.000 8.246,20.999 6.344 C 20.998 3.820,20.994 3.650,20.924 3.497 C 20.837 3.304,20.596 3.094,20.400 3.039 C 20.316 3.016,19.205 3.001,17.600 3.001 C 15.012 3.002,14.935 3.004,14.761 3.083 M9.238 12.598 C 9.181 12.615,9.091 12.652,9.038 12.679 C 8.984 12.707,8.233 13.434,7.370 14.294 L 5.799 15.858 5.070 15.133 C 4.668 14.734,4.277 14.376,4.200 14.338 C 3.879 14.176,3.398 14.286,3.188 14.570 C 3.000 14.823,3.000 14.824,3.001 17.656 C 3.002 20.183,3.006 20.349,3.076 20.500 C 3.117 20.588,3.202 20.709,3.265 20.768 C 3.520 21.007,3.429 21.000,6.371 21.000 L 9.064 21.000 9.277 20.894 C 9.641 20.713,9.814 20.335,9.716 19.937 C 9.672 19.757,9.601 19.673,8.914 18.978 C 8.499 18.559,8.160 18.199,8.160 18.178 C 8.160 18.158,8.878 17.421,9.757 16.541 C 11.108 15.185,11.360 14.915,11.396 14.780 C 11.515 14.339,11.426 14.173,10.648 13.389 C 9.868 12.604,9.640 12.476,9.238 12.598 " stroke="none" fill-rule="evenodd"></path></svg>