<svg width="24" height="24" viewBox="0 0 24 24" fill="none" xmlns="http://www.w3.org/2000/svg"><path d="M0.648 2.063 C 0.534 2.120,0.368 2.249,0.280 2.350 C 0.007 2.659,-0.006 2.753,0.008 4.347 L 0.020 5.740 0.127 5.944 C 0.253 6.182,0.463 6.378,0.718 6.496 C 0.892 6.576,0.961 6.580,2.320 6.580 L 3.740 6.580 3.969 6.468 C 4.242 6.333,4.490 6.065,4.577 5.811 C 4.670 5.537,4.670 2.983,4.577 2.709 C 4.492 2.460,4.228 2.169,3.982 2.055 C 3.782 1.962,3.768 1.961,2.318 1.960 L 0.856 1.960 0.648 2.063 M8.135 2.758 C 7.363 2.942,6.821 3.805,7.000 4.565 C 7.134 5.135,7.492 5.539,8.027 5.722 C 8.247 5.798,8.431 5.800,15.487 5.800 C 22.547 5.800,22.727 5.798,22.943 5.722 C 23.746 5.440,24.172 4.600,23.921 3.794 C 23.877 3.654,23.773 3.450,23.690 3.340 C 23.498 3.087,23.106 2.821,22.840 2.764 C 22.605 2.713,8.346 2.708,8.135 2.758 M0.807 9.739 C 0.453 9.850,0.191 10.109,0.062 10.475 C 0.011 10.619,-0.000 10.887,-0.000 12.004 C -0.000 13.565,0.014 13.648,0.343 13.977 C 0.672 14.306,0.755 14.320,2.320 14.320 C 3.574 14.320,3.693 14.314,3.888 14.241 C 4.170 14.136,4.357 13.974,4.501 13.714 L 4.620 13.500 4.620 12.000 L 4.620 10.500 4.501 10.285 C 4.359 10.029,4.103 9.822,3.827 9.740 C 3.549 9.657,1.071 9.657,0.807 9.739 M8.247 10.485 C 7.751 10.567,7.258 10.965,7.076 11.429 C 6.949 11.755,6.950 12.248,7.079 12.580 C 7.208 12.911,7.605 13.309,7.940 13.444 L 8.180 13.540 15.377 13.551 C 23.218 13.562,22.827 13.572,23.219 13.343 C 23.474 13.193,23.720 12.922,23.855 12.640 C 23.968 12.405,23.980 12.343,23.980 12.000 C 23.980 11.657,23.968 11.595,23.855 11.360 C 23.624 10.879,23.187 10.553,22.675 10.478 C 22.347 10.431,8.534 10.437,8.247 10.485 M0.750 17.497 C 0.490 17.590,0.271 17.788,0.126 18.060 L 0.020 18.260 0.008 19.656 C -0.002 20.878,0.005 21.078,0.064 21.267 C 0.152 21.547,0.383 21.806,0.671 21.948 L 0.900 22.060 2.320 22.060 C 3.731 22.060,3.741 22.059,3.951 21.965 C 4.211 21.847,4.489 21.548,4.576 21.293 C 4.670 21.017,4.671 18.464,4.577 18.189 C 4.493 17.943,4.246 17.670,3.992 17.543 L 3.784 17.440 2.342 17.442 C 1.241 17.443,0.864 17.456,0.750 17.497 M8.100 18.256 C 7.830 18.342,7.600 18.478,7.419 18.659 C 6.663 19.414,6.893 20.667,7.875 21.149 L 8.100 21.260 15.480 21.260 L 22.860 21.260 23.085 21.155 C 23.358 21.027,23.594 20.819,23.754 20.568 C 24.295 19.716,23.885 18.583,22.926 18.280 C 22.675 18.201,22.570 18.200,15.466 18.203 C 9.762 18.205,8.227 18.216,8.100 18.256 " stroke="none" fill-rule="evenodd"></path></svg>