<svg width="24" height="24" viewBox="0 0 24 24" fill="none" xmlns="http://www.w3.org/2000/svg"><path d="M11.200 0.025 C 7.677 0.288,4.535 1.992,2.410 4.793 C 1.201 6.386,0.442 8.222,0.109 10.359 C -0.013 11.143,-0.013 12.857,0.109 13.641 C 0.563 16.554,1.872 19.025,3.948 20.887 C 5.791 22.541,7.832 23.497,10.359 23.891 C 11.143 24.013,12.857 24.013,13.641 23.891 C 16.557 23.436,19.036 22.122,20.896 20.043 C 22.545 18.200,23.498 16.163,23.891 13.641 C 24.013 12.857,24.013 11.143,23.891 10.359 C 23.557 8.220,22.799 6.386,21.588 4.790 C 19.607 2.180,16.766 0.532,13.500 0.099 C 13.032 0.037,11.640 -0.007,11.200 0.025 M12.546 6.142 C 12.957 6.342,13.203 6.725,13.232 7.207 C 13.258 7.643,13.172 7.868,12.858 8.186 C 12.591 8.456,12.354 8.560,12.000 8.560 C 11.648 8.560,11.409 8.456,11.139 8.186 C 10.847 7.894,10.760 7.680,10.760 7.263 C 10.762 6.337,11.718 5.737,12.546 6.142 M12.777 10.343 C 12.833 10.399,12.840 10.800,12.840 14.161 C 12.840 17.834,12.838 17.918,12.763 17.959 C 12.660 18.013,11.340 18.013,11.237 17.959 C 11.162 17.918,11.160 17.834,11.160 14.161 C 11.160 10.800,11.167 10.399,11.223 10.343 C 11.275 10.290,11.404 10.280,12.000 10.280 C 12.596 10.280,12.725 10.290,12.777 10.343 " stroke="none" fill-rule="evenodd"></path></svg>