<svg width="24" height="24" viewBox="0 0 24 24" fill="none" xmlns="http://www.w3.org/2000/svg"><path d="M8.329 0.623 C 7.965 0.805,7.762 1.132,7.761 1.542 C 7.759 1.966,7.986 2.304,8.400 2.496 C 8.578 2.579,8.615 2.580,11.960 2.580 C 14.719 2.580,15.375 2.570,15.530 2.525 C 15.771 2.455,16.046 2.215,16.164 1.971 C 16.273 1.747,16.285 1.375,16.190 1.154 C 16.102 0.949,15.864 0.699,15.665 0.602 C 15.497 0.521,15.446 0.520,12.015 0.520 L 8.536 0.520 8.329 0.623 M8.795 6.255 C 8.437 6.384,8.178 6.627,8.004 6.998 L 7.900 7.220 7.880 8.941 L 7.860 10.662 7.730 10.927 C 7.578 11.235,7.361 11.446,7.045 11.595 L 6.820 11.700 4.260 11.720 C 1.710 11.740,1.699 11.740,1.534 11.829 C 1.075 12.074,0.877 12.697,1.114 13.150 C 1.205 13.324,10.878 23.084,11.114 23.241 C 11.362 23.405,11.682 23.493,12.020 23.489 C 12.355 23.485,12.614 23.411,12.874 23.244 C 13.143 23.071,22.777 13.363,22.880 13.160 C 23.133 12.663,22.930 12.072,22.419 11.819 C 22.267 11.744,22.143 11.739,19.700 11.720 L 17.140 11.700 16.917 11.595 C 16.622 11.457,16.418 11.247,16.265 10.924 L 16.140 10.660 16.120 8.939 L 16.100 7.218 15.968 6.950 C 15.822 6.654,15.617 6.458,15.297 6.311 L 15.100 6.220 12.020 6.211 C 9.570 6.204,8.910 6.213,8.795 6.255 " stroke="none" fill-rule="evenodd"></path></svg>