<svg width="24" height="24" viewBox="0 0 24 24" fill="none" xmlns="http://www.w3.org/2000/svg"><path d="M2.958 0.532 C 2.599 0.633,2.308 0.882,2.152 1.220 L 2.060 1.420 2.049 7.028 L 2.039 12.636 1.764 12.780 C 1.174 13.091,0.641 13.644,0.338 14.260 C 0.111 14.720,0.040 14.998,0.012 15.522 C -0.037 16.446,0.294 17.302,0.956 17.964 C 1.223 18.232,1.701 18.570,1.919 18.646 L 2.037 18.687 2.049 20.653 C 2.060 22.558,2.063 22.626,2.144 22.800 C 2.260 23.046,2.491 23.271,2.757 23.395 C 3.053 23.534,3.487 23.541,3.769 23.412 C 4.030 23.292,4.297 23.006,4.398 22.737 C 4.477 22.526,4.480 22.438,4.480 20.607 L 4.480 18.697 4.730 18.574 C 5.602 18.142,6.258 17.285,6.467 16.305 C 6.510 16.104,6.522 15.879,6.510 15.540 C 6.494 15.136,6.471 15.000,6.363 14.680 C 6.089 13.866,5.532 13.211,4.747 12.780 L 4.480 12.633 4.480 7.084 C 4.480 2.251,4.472 1.508,4.420 1.331 C 4.344 1.078,4.061 0.752,3.801 0.621 C 3.567 0.502,3.202 0.464,2.958 0.532 M11.678 0.532 C 11.434 0.601,11.230 0.732,11.063 0.928 C 10.802 1.232,10.800 1.249,10.800 3.304 L 10.800 5.154 10.487 5.321 C 9.761 5.708,9.180 6.373,8.916 7.119 C 8.489 8.325,8.809 9.632,9.749 10.527 C 10.001 10.767,10.482 11.097,10.680 11.166 L 10.799 11.207 10.809 16.934 L 10.820 22.660 10.940 22.877 C 11.348 23.614,12.361 23.726,12.916 23.096 C 13.245 22.721,13.219 23.245,13.231 16.880 L 13.242 11.220 13.533 11.067 C 14.311 10.657,14.943 9.849,15.162 8.980 C 15.274 8.539,15.273 7.859,15.162 7.420 C 14.935 6.529,14.310 5.734,13.511 5.320 L 13.245 5.182 13.232 3.301 C 13.220 1.435,13.219 1.418,13.128 1.216 C 13.014 0.964,12.760 0.710,12.514 0.602 C 12.275 0.496,11.912 0.466,11.678 0.532 M20.438 0.532 C 20.078 0.634,19.787 0.886,19.624 1.238 C 19.540 1.420,19.540 1.422,19.529 7.027 L 19.518 12.634 19.252 12.780 C 17.786 13.586,17.135 15.232,17.676 16.762 C 17.947 17.527,18.612 18.274,19.308 18.596 L 19.516 18.692 19.528 20.656 L 19.540 22.620 19.634 22.810 C 19.686 22.915,19.825 23.088,19.942 23.195 C 20.469 23.677,21.259 23.601,21.717 23.024 C 21.953 22.726,21.960 22.657,21.960 20.577 L 21.960 18.688 22.080 18.646 C 22.145 18.623,22.328 18.521,22.486 18.419 C 23.489 17.770,24.050 16.688,23.988 15.522 C 23.962 15.028,23.890 14.732,23.698 14.324 C 23.375 13.639,22.835 13.080,22.171 12.745 L 21.961 12.639 21.951 7.030 L 21.940 1.420 21.848 1.216 C 21.609 0.688,20.976 0.381,20.438 0.532 M12.669 6.783 C 12.979 6.934,13.256 7.221,13.412 7.550 C 13.528 7.796,13.540 7.854,13.539 8.200 C 13.538 8.541,13.525 8.607,13.412 8.848 C 13.103 9.506,12.397 9.864,11.696 9.719 C 10.869 9.548,10.379 8.841,10.482 7.964 C 10.554 7.361,11.021 6.829,11.615 6.675 C 11.684 6.658,11.897 6.649,12.089 6.657 C 12.374 6.667,12.481 6.691,12.669 6.783 M3.646 14.174 C 3.951 14.246,4.189 14.393,4.432 14.659 C 4.706 14.959,4.808 15.236,4.808 15.680 C 4.808 16.170,4.704 16.423,4.364 16.764 C 4.172 16.955,4.040 17.050,3.879 17.110 C 3.058 17.416,2.229 17.095,1.850 16.325 C 1.751 16.123,1.740 16.058,1.740 15.680 C 1.740 15.308,1.752 15.234,1.848 15.031 C 2.035 14.630,2.484 14.264,2.910 14.163 C 3.133 14.111,3.392 14.115,3.646 14.174 M21.401 14.264 C 21.683 14.390,22.041 14.746,22.172 15.029 C 22.247 15.191,22.260 15.290,22.260 15.680 C 22.260 16.100,22.250 16.159,22.151 16.361 C 21.779 17.120,20.838 17.441,20.060 17.076 C 19.165 16.655,18.920 15.422,19.578 14.654 C 20.008 14.150,20.781 13.985,21.401 14.264 " stroke="none" fill-rule="evenodd"></path></svg>