<svg width="24" height="24" viewBox="0 0 24 24" fill="none" xmlns="http://www.w3.org/2000/svg"><path d="M5.601 0.064 C 4.257 0.425,4.125 2.276,5.400 2.874 C 5.611 2.973,5.654 2.978,6.490 2.992 L 7.360 3.007 7.360 3.138 C 7.360 3.288,6.894 9.431,6.858 9.745 L 6.835 9.950 6.505 10.152 C 5.380 10.840,4.376 11.873,3.739 12.999 C 3.505 13.411,3.174 14.182,3.057 14.585 C 2.806 15.449,3.384 16.330,4.300 16.480 C 4.627 16.534,19.373 16.534,19.700 16.480 C 20.425 16.362,20.946 15.804,20.991 15.099 C 21.013 14.764,20.965 14.573,20.683 13.878 C 20.066 12.359,18.926 11.027,17.495 10.152 L 17.165 9.950 17.142 9.745 C 17.106 9.431,16.640 3.288,16.640 3.138 L 16.640 3.007 17.510 2.993 L 18.380 2.980 18.644 2.851 C 19.698 2.335,19.790 0.875,18.808 0.245 C 18.405 -0.013,18.769 -0.000,11.982 0.003 C 6.694 0.005,5.789 0.014,5.601 0.064 M10.480 20.230 C 10.480 21.594,10.497 22.560,10.523 22.719 C 10.605 23.225,10.932 23.655,11.400 23.873 C 11.586 23.960,11.678 23.976,12.000 23.977 C 12.348 23.978,12.402 23.968,12.644 23.850 C 13.083 23.637,13.385 23.233,13.476 22.741 C 13.505 22.589,13.520 21.707,13.520 20.253 L 13.520 18.000 12.000 18.000 L 10.480 18.000 10.480 20.230 " stroke="none" fill-rule="evenodd"></path></svg>