<svg width="22" height="22" viewBox="0 0 22 22" fill="none" xmlns="http://www.w3.org/2000/svg"><path d="M10.182 1.872 C 7.611 2.140,5.388 3.341,3.828 5.301 C 0.497 9.489,1.454 15.629,5.903 18.608 C 9.004 20.684,12.996 20.684,16.097 18.608 C 18.308 17.127,19.724 14.839,20.099 12.137 C 20.127 11.937,20.147 11.452,20.147 11.000 C 20.147 9.739,19.963 8.750,19.520 7.627 C 18.324 4.599,15.583 2.427,12.346 1.940 C 11.786 1.856,10.671 1.821,10.182 1.872 M12.116 3.757 C 15.286 4.248,17.751 6.723,18.249 9.918 C 18.335 10.466,18.335 11.534,18.249 12.082 C 18.012 13.600,17.357 14.941,16.317 16.037 C 14.102 18.370,10.662 18.995,7.792 17.585 C 6.965 17.179,6.363 16.741,5.737 16.090 C 4.651 14.962,3.993 13.632,3.751 12.082 C 3.665 11.534,3.665 10.466,3.751 9.918 C 4.161 7.290,5.885 5.137,8.360 4.162 C 8.802 3.987,9.560 3.795,10.010 3.743 C 10.202 3.721,10.408 3.696,10.468 3.688 C 10.687 3.657,11.760 3.702,12.116 3.757 M10.673 6.480 C 10.350 6.594,10.083 6.979,10.083 7.333 C 10.083 7.817,10.517 8.250,11.000 8.250 C 11.221 8.250,11.478 8.141,11.643 7.976 C 12.333 7.286,11.598 6.153,10.673 6.480 M10.673 10.144 C 10.584 10.177,10.442 10.272,10.358 10.357 C 10.080 10.634,10.083 10.607,10.083 12.833 C 10.083 15.060,10.080 15.032,10.358 15.310 C 10.643 15.595,11.063 15.656,11.429 15.468 C 11.628 15.366,11.822 15.133,11.878 14.932 C 11.902 14.845,11.916 14.072,11.916 12.833 C 11.916 11.594,11.902 10.821,11.878 10.735 C 11.746 10.258,11.155 9.968,10.673 10.144 " stroke="none" fill-rule="evenodd"></path></svg>