<svg width="24" height="24" viewBox="0 0 24 24" fill="none" xmlns="http://www.w3.org/2000/svg"><path d="M11.440 3.267 C 8.705 3.388,6.144 4.427,4.369 6.136 C 3.169 7.292,2.420 8.629,2.114 10.162 C 1.983 10.819,1.983 11.939,2.113 12.593 C 2.345 13.755,2.868 14.867,3.625 15.808 C 3.870 16.113,3.880 16.168,3.777 16.672 C 3.582 17.628,3.004 18.751,2.283 19.576 C 2.133 19.748,2.032 19.903,2.016 19.986 C 1.956 20.308,2.113 20.585,2.422 20.703 C 2.567 20.758,2.670 20.766,2.962 20.744 C 4.427 20.634,6.100 20.013,7.625 19.014 L 7.950 18.801 8.245 18.903 C 10.099 19.542,12.485 19.670,14.500 19.239 C 17.321 18.635,19.669 17.088,20.961 14.980 C 22.862 11.881,22.087 8.066,19.060 5.627 C 18.482 5.162,17.909 4.800,17.180 4.440 C 16.052 3.883,15.060 3.575,13.769 3.381 C 13.338 3.317,12.188 3.236,11.880 3.248 C 11.781 3.252,11.583 3.261,11.440 3.267 M7.514 10.242 C 7.751 10.347,7.978 10.565,8.113 10.820 C 8.205 10.994,8.219 11.067,8.219 11.380 C 8.219 11.678,8.204 11.769,8.128 11.912 C 7.923 12.296,7.624 12.518,7.192 12.604 C 6.780 12.687,6.260 12.473,6.000 12.114 C 5.483 11.400,5.854 10.376,6.709 10.161 C 6.922 10.108,7.294 10.145,7.514 10.242 M12.514 10.242 C 12.751 10.347,12.978 10.565,13.113 10.820 C 13.205 10.994,13.219 11.067,13.219 11.380 C 13.219 11.678,13.204 11.769,13.128 11.912 C 12.923 12.296,12.624 12.518,12.192 12.604 C 11.780 12.687,11.260 12.473,11.000 12.114 C 10.482 11.398,10.853 10.376,11.709 10.161 C 11.922 10.108,12.295 10.145,12.514 10.242 M17.514 10.242 C 18.044 10.476,18.357 11.140,18.204 11.706 C 18.091 12.123,17.715 12.475,17.265 12.586 C 17.021 12.646,16.979 12.646,16.739 12.587 C 16.109 12.432,15.724 11.915,15.769 11.285 C 15.831 10.420,16.717 9.890,17.514 10.242 " stroke="none" fill-rule="evenodd"></path></svg>