<svg width="24" height="24" viewBox="0 0 24 24" fill="none" xmlns="http://www.w3.org/2000/svg"><path d="M11.220 0.023 C 10.352 0.108,10.103 0.142,9.594 0.244 C 7.034 0.755,4.718 2.113,2.941 4.145 C 1.430 5.873,0.468 7.961,0.114 10.280 C -0.005 11.060,-0.016 12.789,0.093 13.560 C 0.292 14.969,0.666 16.175,1.278 17.380 C 2.880 20.530,5.759 22.832,9.134 23.658 C 10.154 23.908,10.721 23.973,11.920 23.977 C 13.311 23.981,14.143 23.874,15.314 23.540 C 17.228 22.994,18.936 21.981,20.405 20.521 C 21.438 19.494,22.136 18.528,22.760 17.260 C 23.396 15.968,23.743 14.822,23.926 13.400 C 23.997 12.845,23.997 11.155,23.926 10.600 C 23.587 7.968,22.446 5.577,20.632 3.699 C 18.674 1.672,16.303 0.469,13.540 0.100 C 13.087 0.040,11.567 -0.011,11.220 0.023 M12.432 5.083 C 14.157 5.272,15.635 6.735,15.984 8.597 C 16.066 9.033,16.066 9.938,15.983 10.400 C 15.733 11.804,14.844 13.031,13.667 13.598 C 13.138 13.853,12.823 13.926,12.160 13.948 C 11.471 13.971,11.002 13.893,10.479 13.667 C 9.987 13.454,9.746 13.294,9.334 12.905 C 8.566 12.181,8.119 11.290,7.957 10.165 C 7.883 9.647,7.929 8.750,8.053 8.272 C 8.495 6.577,9.945 5.249,11.539 5.081 C 11.959 5.036,12.010 5.036,12.432 5.083 M13.340 16.099 C 15.612 16.354,17.628 17.236,18.841 18.505 C 19.141 18.819,19.520 19.314,19.520 19.391 C 19.520 19.447,18.920 20.028,18.580 20.302 C 17.483 21.183,15.980 21.923,14.560 22.280 C 11.456 23.062,8.170 22.396,5.601 20.466 C 5.201 20.165,4.440 19.459,4.440 19.389 C 4.440 19.332,4.821 18.830,5.077 18.550 C 5.712 17.857,6.777 17.174,7.908 16.736 C 8.701 16.428,9.949 16.149,10.900 16.067 C 11.368 16.027,12.870 16.046,13.340 16.099 " stroke="none" fill-rule="evenodd"></path></svg>