<svg width="24" height="24" viewBox="0 0 24 24" fill="none" xmlns="http://www.w3.org/2000/svg"><path d="M2.820 0.059 C 1.499 0.306,0.473 1.263,0.094 2.600 C 0.023 2.849,0.020 3.243,0.020 12.000 C 0.020 20.757,0.023 21.151,0.094 21.400 C 0.469 22.723,1.501 23.693,2.794 23.937 C 3.093 23.993,4.090 24.000,12.000 24.000 C 19.910 24.000,20.907 23.993,21.206 23.937 C 22.575 23.679,23.679 22.575,23.937 21.206 C 23.993 20.907,24.000 19.910,24.000 12.000 C 24.000 4.090,23.993 3.093,23.937 2.794 C 23.694 1.505,22.724 0.473,21.400 0.095 C 21.151 0.024,20.772 0.020,12.120 0.014 C 4.827 0.008,3.046 0.017,2.820 0.059 M10.280 6.860 L 10.280 10.280 6.860 10.280 L 3.440 10.280 3.440 6.860 L 3.440 3.440 6.860 3.440 L 10.280 3.440 10.280 6.860 M20.560 6.860 L 20.560 10.280 17.140 10.280 L 13.720 10.280 13.720 6.860 L 13.720 3.440 17.140 3.440 L 20.560 3.440 20.560 6.860 M10.280 17.140 L 10.280 20.560 6.860 20.560 L 3.440 20.560 3.440 17.140 L 3.440 13.720 6.860 13.720 L 10.280 13.720 10.280 17.140 M20.560 17.140 L 20.560 20.560 17.140 20.560 L 13.720 20.560 13.720 17.140 L 13.720 13.720 17.140 13.720 L 20.560 13.720 20.560 17.140 " stroke="none" fill-rule="evenodd"></path></svg>