<svg width="24" height="24" viewBox="0 0 24 24" fill="none" xmlns="http://www.w3.org/2000/svg"><path d="M2.037 0.040 C 0.652 0.257,-0.266 1.629,0.077 2.970 C 0.167 3.321,0.312 3.625,0.509 3.880 C 0.586 3.979,2.442 5.845,4.634 8.027 L 8.620 11.994 4.516 16.107 C 0.515 20.118,0.409 20.228,0.265 20.525 C -0.201 21.490,-0.029 22.534,0.719 23.280 C 1.066 23.627,1.376 23.807,1.824 23.921 C 2.525 24.100,3.305 23.937,3.880 23.491 C 3.979 23.414,5.845 21.558,8.027 19.366 L 11.994 15.380 16.107 19.484 C 20.095 23.462,20.229 23.592,20.520 23.732 C 20.834 23.884,21.290 24.000,21.569 24.000 C 22.671 24.000,23.648 23.242,23.921 22.176 C 24.100 21.475,23.937 20.695,23.491 20.120 C 23.414 20.021,21.558 18.155,19.366 15.973 L 15.380 12.006 19.484 7.893 C 23.462 3.905,23.592 3.771,23.732 3.480 C 23.884 3.166,24.000 2.710,24.000 2.431 C 24.000 0.906,22.586 -0.254,21.109 0.059 C 20.751 0.135,20.390 0.300,20.120 0.513 C 19.999 0.608,18.124 2.471,15.953 4.653 L 12.006 8.620 7.893 4.517 C 3.868 0.501,3.774 0.410,3.480 0.272 C 3.315 0.195,3.099 0.112,3.000 0.088 C 2.728 0.023,2.287 0.001,2.037 0.040 " stroke="none" fill-rule="evenodd"></path></svg>