<svg width="24" height="24" viewBox="0 0 24 24" fill="none" xmlns="http://www.w3.org/2000/svg"><path d="M11.420 1.277 C 10.789 1.360,10.318 1.599,9.839 2.079 C 9.285 2.633,9.097 3.072,9.040 3.951 C 8.986 4.774,8.830 5.031,8.155 5.407 C 7.530 5.757,7.233 5.764,6.604 5.444 C 6.063 5.169,5.723 5.080,5.217 5.080 C 4.379 5.080,3.620 5.416,3.128 6.006 C 2.912 6.266,2.553 6.865,2.425 7.180 C 2.109 7.960,2.200 8.921,2.661 9.662 C 2.876 10.009,3.146 10.269,3.627 10.592 C 4.015 10.852,4.145 10.990,4.277 11.281 C 4.345 11.431,4.358 11.544,4.359 11.983 C 4.360 12.793,4.242 13.020,3.603 13.432 C 3.416 13.553,3.167 13.742,3.050 13.853 C 2.292 14.570,2.026 15.835,2.425 16.820 C 2.555 17.140,2.918 17.745,3.130 17.993 C 3.638 18.587,4.377 18.921,5.200 18.929 C 5.687 18.934,5.978 18.858,6.556 18.578 C 7.268 18.233,7.523 18.238,8.174 18.609 C 8.845 18.991,8.986 19.226,9.040 20.049 C 9.078 20.640,9.141 20.893,9.348 21.289 C 9.610 21.791,10.199 22.331,10.708 22.538 C 11.439 22.835,12.561 22.835,13.292 22.538 C 13.801 22.331,14.390 21.791,14.652 21.289 C 14.859 20.893,14.922 20.640,14.960 20.049 C 15.014 19.226,15.155 18.991,15.826 18.609 C 16.477 18.238,16.732 18.233,17.444 18.578 C 18.022 18.858,18.313 18.934,18.800 18.929 C 19.633 18.921,20.368 18.585,20.884 17.976 C 21.120 17.697,21.530 16.974,21.642 16.640 C 21.775 16.243,21.794 15.593,21.686 15.164 C 21.494 14.407,21.128 13.906,20.436 13.456 C 19.754 13.012,19.640 12.803,19.640 12.000 C 19.640 11.209,19.760 10.981,20.391 10.574 C 20.577 10.454,20.827 10.263,20.946 10.150 C 21.708 9.430,21.975 8.167,21.575 7.180 C 21.444 6.856,21.081 6.254,20.863 5.999 C 20.356 5.405,19.620 5.080,18.782 5.080 C 18.268 5.080,18.016 5.145,17.440 5.424 C 16.740 5.764,16.478 5.761,15.845 5.407 C 15.170 5.031,15.014 4.774,14.960 3.951 C 14.941 3.659,14.896 3.321,14.859 3.200 C 14.598 2.339,13.795 1.566,12.929 1.342 C 12.640 1.267,11.775 1.230,11.420 1.277 M12.567 2.801 C 12.920 2.899,13.314 3.281,13.403 3.612 C 13.428 3.704,13.463 3.996,13.480 4.260 C 13.526 4.951,13.709 5.443,14.096 5.915 C 14.329 6.200,14.585 6.405,15.037 6.671 C 15.653 7.034,16.064 7.161,16.624 7.163 C 17.113 7.165,17.450 7.080,18.006 6.816 C 18.551 6.557,18.786 6.515,19.130 6.615 C 19.433 6.703,19.662 6.886,19.889 7.221 C 20.335 7.878,20.370 8.440,19.998 8.963 C 19.951 9.029,19.748 9.193,19.546 9.327 C 18.758 9.850,18.342 10.419,18.177 11.197 C 18.102 11.549,18.104 12.438,18.179 12.797 C 18.344 13.581,18.769 14.168,19.520 14.651 C 19.986 14.951,20.117 15.109,20.217 15.497 C 20.300 15.814,20.247 16.118,20.038 16.519 C 19.700 17.168,19.360 17.415,18.800 17.418 C 18.516 17.420,18.474 17.408,18.020 17.191 C 17.456 16.922,17.146 16.841,16.675 16.841 C 16.079 16.840,15.761 16.934,15.069 17.317 C 14.405 17.685,14.037 18.051,13.759 18.620 C 13.573 19.002,13.481 19.365,13.481 19.723 C 13.480 20.037,13.415 20.416,13.334 20.572 C 13.233 20.766,12.993 21.002,12.783 21.113 C 12.590 21.215,12.551 21.220,12.000 21.220 C 11.449 21.220,11.410 21.215,11.217 21.113 C 11.018 21.008,10.773 20.773,10.679 20.598 C 10.589 20.430,10.557 20.259,10.522 19.760 C 10.443 18.617,9.972 17.894,8.931 17.317 C 8.239 16.934,7.921 16.840,7.325 16.841 C 6.854 16.841,6.544 16.922,5.980 17.191 C 5.526 17.407,5.484 17.420,5.200 17.419 C 4.854 17.417,4.584 17.317,4.367 17.108 C 4.202 16.949,3.904 16.477,3.818 16.239 C 3.724 15.976,3.731 15.578,3.833 15.346 C 3.970 15.036,4.069 14.930,4.454 14.673 C 5.240 14.151,5.655 13.582,5.819 12.804 C 5.899 12.423,5.899 11.577,5.819 11.193 C 5.733 10.781,5.456 10.234,5.180 9.929 C 5.054 9.791,4.764 9.551,4.534 9.394 C 4.087 9.090,3.973 8.969,3.835 8.659 C 3.770 8.512,3.749 8.388,3.751 8.170 C 3.754 7.918,3.774 7.838,3.898 7.589 C 4.187 7.010,4.463 6.734,4.874 6.614 C 5.213 6.516,5.451 6.559,5.994 6.816 C 6.550 7.080,6.887 7.165,7.376 7.163 C 7.936 7.161,8.347 7.034,8.963 6.671 C 9.415 6.405,9.671 6.200,9.904 5.915 C 10.287 5.448,10.474 4.945,10.520 4.260 C 10.559 3.673,10.605 3.493,10.772 3.272 C 10.917 3.082,11.221 2.860,11.415 2.804 C 11.588 2.753,12.388 2.752,12.567 2.801 M11.595 8.282 C 11.135 8.332,10.822 8.424,10.380 8.639 C 9.320 9.153,8.640 9.999,8.350 11.160 C 8.232 11.634,8.232 12.366,8.350 12.840 C 8.533 13.573,8.843 14.127,9.358 14.642 C 10.088 15.372,10.964 15.734,12.000 15.734 C 13.036 15.734,13.912 15.372,14.642 14.642 C 15.372 13.912,15.734 13.036,15.734 12.000 C 15.734 10.411,14.808 9.076,13.293 8.485 C 12.852 8.312,12.122 8.225,11.595 8.282 M12.556 9.822 C 12.934 9.911,13.263 10.103,13.580 10.420 C 14.034 10.874,14.239 11.365,14.239 12.000 C 14.239 12.635,14.034 13.126,13.580 13.580 C 13.124 14.036,12.636 14.240,12.000 14.240 C 11.364 14.240,10.876 14.036,10.420 13.580 C 9.966 13.126,9.761 12.635,9.761 12.000 C 9.761 11.365,9.966 10.874,10.420 10.420 C 10.730 10.110,11.066 9.911,11.425 9.823 C 11.737 9.748,12.240 9.747,12.556 9.822 " stroke="none" fill-rule="evenodd" fill="black"></path></svg>