<svg width="25" height="25" viewBox="0 0 25 25" fill="none" xmlns="http://www.w3.org/2000/svg"><path d="M11.542 2.043 C 9.100 2.278,6.808 3.356,5.080 5.081 C 3.467 6.692,2.456 8.712,2.096 11.042 C 1.993 11.714,1.993 13.286,2.096 13.958 C 2.456 16.288,3.465 18.305,5.080 19.920 C 6.694 21.533,8.719 22.547,11.042 22.903 C 11.713 23.006,13.287 23.006,13.958 22.903 C 16.281 22.547,18.306 21.533,19.920 19.920 C 21.533 18.306,22.547 16.281,22.903 13.958 C 23.006 13.287,23.006 11.713,22.903 11.042 C 22.181 6.337,18.659 2.818,13.958 2.106 C 13.429 2.026,12.086 1.991,11.542 2.043 M13.833 3.605 C 15.757 3.899,17.479 4.770,18.855 6.145 C 22.104 9.395,22.382 14.486,19.510 18.143 C 19.173 18.572,18.414 19.310,17.958 19.652 C 15.528 21.474,12.494 21.976,9.651 21.026 C 8.291 20.572,7.158 19.870,6.145 18.856 C 4.757 17.464,3.902 15.765,3.598 13.792 C 3.496 13.134,3.496 11.866,3.598 11.208 C 3.902 9.234,4.759 7.532,6.145 6.145 C 7.679 4.611,9.503 3.768,11.813 3.526 C 12.147 3.490,13.407 3.540,13.833 3.605 M8.406 8.793 C 8.148 8.858,7.864 9.024,7.684 9.215 C 7.460 9.454,7.394 9.566,7.310 9.856 C 7.111 10.540,7.472 11.298,8.146 11.613 C 8.358 11.712,8.449 11.729,8.750 11.729 C 9.051 11.729,9.142 11.712,9.354 11.613 C 9.680 11.461,9.964 11.177,10.111 10.859 C 10.211 10.643,10.229 10.550,10.229 10.250 C 10.229 9.950,10.211 9.857,10.111 9.641 C 9.879 9.138,9.392 8.803,8.845 8.770 C 8.690 8.761,8.492 8.771,8.406 8.793 M15.906 8.793 C 15.648 8.858,15.364 9.024,15.184 9.215 C 14.960 9.454,14.894 9.566,14.810 9.856 C 14.611 10.540,14.972 11.298,15.646 11.613 C 15.858 11.712,15.949 11.729,16.250 11.729 C 16.551 11.729,16.642 11.712,16.854 11.613 C 17.180 11.461,17.464 11.177,17.611 10.859 C 17.711 10.643,17.729 10.550,17.729 10.250 C 17.729 9.950,17.711 9.857,17.611 9.641 C 17.379 9.138,16.892 8.803,16.345 8.770 C 16.190 8.761,15.992 8.771,15.906 8.793 M8.229 15.351 C 7.979 15.462,7.792 15.743,7.792 16.004 C 7.792 16.215,7.936 16.427,8.348 16.821 C 9.190 17.626,10.240 18.169,11.405 18.404 C 11.914 18.506,13.086 18.506,13.595 18.404 C 14.792 18.163,15.849 17.607,16.695 16.772 C 17.154 16.319,17.246 16.150,17.191 15.857 C 17.157 15.675,16.946 15.425,16.762 15.348 C 16.563 15.265,16.273 15.278,16.071 15.381 C 15.975 15.429,15.758 15.600,15.590 15.759 C 15.020 16.298,14.378 16.653,13.585 16.866 C 13.234 16.960,13.107 16.973,12.500 16.973 C 11.893 16.973,11.766 16.960,11.415 16.866 C 10.622 16.653,9.980 16.298,9.410 15.759 C 9.242 15.600,9.025 15.429,8.929 15.381 C 8.727 15.279,8.420 15.265,8.229 15.351 " stroke="none" fill-rule="evenodd"></path></svg>