<svg width="24" height="24" viewBox="0 0 24 24" fill="none" xmlns="http://www.w3.org/2000/svg"><path d="M8.544 2.283 C 6.600 2.455,4.927 3.872,4.417 5.779 C 4.069 7.081,4.290 8.451,5.034 9.600 C 5.320 10.041,5.959 10.680,6.400 10.966 C 8.003 12.004,9.997 12.004,11.600 10.966 C 12.041 10.680,12.680 10.041,12.966 9.600 C 14.177 7.729,13.956 5.325,12.425 3.729 C 11.598 2.868,10.593 2.387,9.396 2.281 C 9.145 2.259,8.931 2.243,8.920 2.246 C 8.909 2.249,8.740 2.265,8.544 2.283 M15.595 2.515 C 15.194 2.769,15.135 3.330,15.476 3.656 C 15.544 3.722,15.764 3.829,16.020 3.922 C 16.581 4.125,16.957 4.365,17.328 4.753 C 18.002 5.458,18.275 6.195,18.230 7.186 C 18.205 7.733,18.117 8.063,17.876 8.514 C 17.452 9.307,16.775 9.865,15.924 10.122 C 15.703 10.189,15.590 10.250,15.477 10.363 C 15.063 10.777,15.237 11.414,15.813 11.599 C 15.989 11.655,16.123 11.636,16.552 11.493 C 17.227 11.267,17.806 10.909,18.318 10.400 C 18.998 9.725,19.416 8.984,19.648 8.045 C 19.761 7.588,19.771 6.499,19.667 6.046 C 19.433 5.031,19.009 4.284,18.253 3.558 C 17.730 3.056,17.174 2.721,16.494 2.499 C 16.078 2.363,15.827 2.368,15.595 2.515 M9.914 3.878 C 10.422 4.024,10.807 4.250,11.235 4.658 C 11.681 5.083,11.968 5.548,12.129 6.108 C 12.258 6.558,12.258 7.442,12.129 7.892 C 11.962 8.474,11.671 8.934,11.188 9.384 C 10.555 9.972,9.869 10.240,9.000 10.240 C 8.131 10.240,7.445 9.972,6.812 9.384 C 6.329 8.934,6.038 8.474,5.871 7.892 C 5.742 7.442,5.742 6.558,5.871 6.108 C 6.023 5.578,6.246 5.198,6.658 4.765 C 7.164 4.233,7.725 3.928,8.433 3.798 C 8.754 3.740,9.585 3.785,9.914 3.878 M5.544 14.283 C 3.714 14.445,2.109 15.716,1.508 17.480 C 1.293 18.111,1.273 18.290,1.251 19.700 C 1.230 21.124,1.244 21.263,1.426 21.480 C 1.767 21.886,2.414 21.816,2.671 21.345 C 2.731 21.236,2.743 21.037,2.763 19.800 C 2.785 18.463,2.792 18.364,2.878 18.100 C 3.251 16.957,4.019 16.207,5.180 15.853 C 5.405 15.785,5.645 15.780,9.000 15.780 L 12.580 15.780 12.879 15.874 C 13.246 15.989,13.666 16.194,13.923 16.382 C 14.447 16.766,14.901 17.417,15.123 18.100 C 15.208 18.363,15.215 18.467,15.237 19.800 C 15.262 21.361,15.262 21.356,15.520 21.574 C 15.937 21.925,16.580 21.718,16.723 21.188 C 16.796 20.917,16.747 18.463,16.661 18.080 C 16.452 17.148,16.047 16.379,15.424 15.729 C 14.599 14.868,13.593 14.387,12.396 14.281 C 11.864 14.234,6.079 14.235,5.544 14.283 M18.595 14.515 C 18.183 14.776,18.135 15.354,18.499 15.674 C 18.572 15.738,18.756 15.832,18.906 15.881 C 19.704 16.143,20.289 16.583,20.734 17.254 C 20.939 17.563,21.138 18.076,21.199 18.449 C 21.221 18.587,21.240 19.231,21.240 19.880 C 21.240 20.617,21.257 21.120,21.285 21.219 C 21.309 21.307,21.395 21.444,21.476 21.525 C 21.886 21.935,22.572 21.750,22.723 21.189 C 22.754 21.075,22.762 20.605,22.749 19.681 C 22.732 18.515,22.719 18.296,22.648 18.000 C 22.412 17.009,21.973 16.240,21.253 15.556 C 20.741 15.069,20.148 14.713,19.495 14.500 C 19.078 14.363,18.827 14.368,18.595 14.515 " stroke="none" fill-rule="evenodd" fill="black"></path></svg>