<svg width="24" height="24" viewBox="0 0 24 24" fill="none" xmlns="http://www.w3.org/2000/svg"><path d="M11.419 0.042 C 10.384 0.177,9.375 0.777,8.719 1.648 C 8.101 2.468,7.810 3.505,7.916 4.514 C 7.975 5.083,8.081 5.455,8.320 5.940 C 8.789 6.891,9.678 7.679,10.629 7.989 L 10.960 8.096 10.961 11.698 C 10.961 15.316,10.988 16.412,11.100 17.374 C 11.264 18.779,11.610 19.864,11.930 19.977 C 12.025 20.010,12.057 19.999,12.163 19.898 C 12.475 19.599,12.722 18.727,12.909 17.260 C 12.965 16.815,12.978 16.115,12.998 12.426 L 13.020 8.111 13.397 7.977 C 15.361 7.276,16.504 5.118,15.979 3.102 C 15.630 1.763,14.574 0.628,13.280 0.202 C 12.752 0.028,12.011 -0.036,11.419 0.042 M11.400 1.665 C 11.794 1.843,12.076 2.181,12.186 2.609 C 12.467 3.710,11.293 4.692,10.271 4.210 C 9.968 4.067,9.714 3.818,9.568 3.520 C 9.473 3.327,9.460 3.253,9.461 2.920 C 9.461 2.586,9.474 2.515,9.568 2.336 C 9.715 2.055,9.844 1.911,10.087 1.755 C 10.476 1.506,10.971 1.472,11.400 1.665 M8.700 14.666 C 6.452 14.849,4.098 15.752,2.833 16.918 C 2.020 17.667,1.639 18.426,1.636 19.300 C 1.634 19.939,1.834 20.457,2.320 21.066 C 3.061 21.994,4.691 22.873,6.607 23.376 C 8.308 23.823,9.701 23.978,12.000 23.978 C 14.003 23.978,14.877 23.903,16.400 23.600 C 19.221 23.038,21.189 21.984,22.011 20.595 C 22.579 19.635,22.465 18.473,21.705 17.487 C 20.574 16.018,17.881 14.852,15.170 14.658 L 14.800 14.632 14.800 15.432 L 14.800 16.232 15.130 16.259 C 16.283 16.353,17.439 16.662,18.423 17.139 C 19.248 17.540,19.792 17.992,20.030 18.475 C 20.127 18.673,20.140 18.746,20.140 19.081 C 20.140 19.432,20.130 19.483,20.006 19.733 C 19.588 20.582,18.348 21.320,16.602 21.759 C 13.053 22.650,8.055 22.357,5.540 21.110 C 4.918 20.802,4.310 20.293,4.069 19.879 C 3.918 19.620,3.826 19.230,3.851 18.951 C 3.877 18.671,4.051 18.288,4.264 18.043 C 5.005 17.192,7.025 16.409,8.870 16.259 L 9.200 16.232 9.200 15.436 L 9.200 14.640 9.030 14.647 C 8.937 14.650,8.788 14.659,8.700 14.666 " stroke="none" fill-rule="evenodd"></path></svg>