<svg width="24" height="24" viewBox="0 0 24 24" fill="none" xmlns="http://www.w3.org/2000/svg"><path d="M11.340 1.281 C 8.753 1.436,6.316 2.524,4.466 4.352 C 2.904 5.894,1.856 7.853,1.445 10.000 C 1.289 10.814,1.205 11.921,1.278 12.193 C 1.428 12.750,2.116 12.934,2.524 12.525 C 2.701 12.348,2.759 12.159,2.760 11.760 C 2.761 11.405,2.856 10.563,2.941 10.152 C 3.101 9.382,3.346 8.672,3.705 7.937 C 4.937 5.419,7.227 3.610,9.977 2.981 C 11.104 2.724,12.450 2.696,13.640 2.905 C 15.114 3.164,16.606 3.847,17.820 4.818 C 18.222 5.140,18.755 5.674,19.169 6.171 C 19.366 6.408,19.576 6.627,19.635 6.657 C 20.224 6.962,20.892 6.440,20.722 5.808 C 20.695 5.706,20.568 5.507,20.393 5.291 C 18.171 2.549,14.834 1.071,11.340 1.281 M11.540 5.264 C 10.899 5.313,10.216 5.459,9.660 5.667 C 9.210 5.834,8.531 6.196,8.422 6.325 C 8.206 6.582,8.198 6.955,8.402 7.237 C 8.551 7.441,8.728 7.534,8.980 7.537 C 9.141 7.539,9.257 7.502,9.578 7.346 C 10.121 7.082,10.309 7.011,10.799 6.889 C 11.176 6.794,11.297 6.783,11.960 6.782 C 12.529 6.780,12.778 6.797,13.040 6.853 C 15.116 7.298,16.660 8.835,17.145 10.940 C 17.196 11.158,17.216 11.553,17.235 12.720 C 17.262 14.369,17.260 14.355,17.520 14.574 C 17.929 14.918,18.576 14.720,18.718 14.209 C 18.771 14.019,18.772 11.828,18.720 11.330 C 18.583 10.029,18.073 8.792,17.239 7.740 C 16.981 7.414,16.399 6.858,16.037 6.593 C 15.140 5.935,14.135 5.506,13.100 5.341 C 12.721 5.280,11.878 5.239,11.540 5.264 M6.107 9.296 C 5.958 9.351,5.832 9.440,5.731 9.560 C 5.673 9.630,5.500 10.150,5.418 10.502 C 5.308 10.976,5.277 11.315,5.240 12.467 C 5.156 15.095,4.872 17.231,4.376 18.968 C 4.213 19.537,4.215 19.643,4.390 19.914 C 4.520 20.113,4.754 20.240,4.994 20.240 C 5.399 20.240,5.622 20.021,5.798 19.450 C 6.292 17.852,6.634 15.466,6.719 13.020 C 6.773 11.503,6.809 11.117,6.947 10.620 C 7.093 10.098,7.097 9.787,6.961 9.589 C 6.774 9.317,6.400 9.188,6.107 9.296 M11.617 9.282 C 11.030 9.353,10.518 9.612,10.065 10.064 C 9.727 10.401,9.516 10.743,9.375 11.180 C 9.281 11.472,9.269 11.589,9.236 12.520 C 9.203 13.481,9.146 14.319,9.035 15.506 C 8.976 16.144,8.998 16.277,9.206 16.501 C 9.502 16.823,9.929 16.834,10.249 16.528 C 10.471 16.316,10.481 16.273,10.598 14.960 C 10.664 14.224,10.726 13.145,10.770 11.960 C 10.784 11.604,10.886 11.364,11.125 11.125 C 11.341 10.908,11.588 10.797,11.940 10.758 C 12.278 10.720,12.427 10.654,12.574 10.480 C 12.671 10.365,12.760 10.135,12.760 10.000 C 12.760 9.865,12.671 9.635,12.574 9.520 C 12.376 9.285,12.117 9.221,11.617 9.282 M21.700 9.258 C 21.678 9.266,21.611 9.284,21.551 9.297 C 21.387 9.333,21.174 9.541,21.098 9.739 C 21.039 9.893,21.037 9.954,21.081 10.247 C 21.158 10.771,21.181 13.837,21.115 14.900 C 21.038 16.149,21.041 16.206,21.183 16.408 C 21.349 16.644,21.528 16.739,21.807 16.739 C 21.996 16.739,22.064 16.718,22.206 16.619 C 22.531 16.390,22.563 16.253,22.639 14.764 C 22.717 13.217,22.673 10.644,22.556 9.972 C 22.503 9.667,22.390 9.489,22.178 9.373 C 22.023 9.288,21.779 9.229,21.700 9.258 M13.820 12.396 C 13.554 12.462,13.353 12.654,13.282 12.911 C 13.259 12.994,13.240 13.485,13.240 14.020 C 13.237 17.468,12.959 19.853,12.359 21.579 C 12.262 21.858,12.239 21.976,12.259 22.106 C 12.347 22.693,13.051 22.949,13.498 22.557 C 13.885 22.216,14.377 20.179,14.579 18.080 C 14.716 16.647,14.812 13.251,14.724 12.932 C 14.616 12.539,14.211 12.299,13.820 12.396 M1.805 15.279 C 1.538 15.344,1.308 15.596,1.261 15.876 C 1.184 16.329,1.564 16.759,2.042 16.760 C 2.199 16.760,2.483 16.596,2.618 16.426 C 2.727 16.289,2.740 16.244,2.740 16.000 C 2.740 15.755,2.728 15.712,2.616 15.574 C 2.404 15.312,2.110 15.205,1.805 15.279 M17.700 17.260 C 17.678 17.267,17.611 17.284,17.551 17.297 C 17.387 17.333,17.173 17.542,17.105 17.732 C 17.071 17.824,17.024 18.062,17.000 18.260 C 16.946 18.705,16.795 19.611,16.640 20.422 C 16.530 20.994,16.526 21.046,16.580 21.228 C 16.719 21.695,17.245 21.905,17.663 21.660 C 17.935 21.501,17.989 21.371,18.160 20.470 C 18.364 19.397,18.524 18.357,18.531 18.060 C 18.539 17.658,18.346 17.386,17.980 17.285 C 17.818 17.240,17.772 17.236,17.700 17.260 M8.980 19.298 C 8.892 19.330,8.755 19.426,8.675 19.512 C 8.551 19.643,8.516 19.725,8.440 20.061 C 8.390 20.277,8.244 20.798,8.114 21.216 C 7.863 22.025,7.858 22.078,8.004 22.367 C 8.219 22.792,8.816 22.874,9.164 22.526 C 9.290 22.399,9.341 22.284,9.531 21.700 C 9.980 20.315,10.043 19.884,9.838 19.585 C 9.652 19.314,9.279 19.189,8.980 19.298 " stroke="none" fill-rule="evenodd" fill="black"></path></svg>