<svg width="24" height="24" viewBox="0 0 24 24" fill="none" xmlns="http://www.w3.org/2000/svg"><path d="M11.200 0.025 C 7.677 0.288,4.535 1.992,2.410 4.793 C 1.201 6.386,0.442 8.222,0.109 10.359 C -0.013 11.143,-0.013 12.857,0.109 13.641 C 0.563 16.554,1.872 19.025,3.948 20.887 C 5.791 22.541,7.832 23.497,10.359 23.891 C 11.143 24.013,12.857 24.013,13.641 23.891 C 16.557 23.436,19.036 22.122,20.896 20.043 C 22.545 18.200,23.498 16.163,23.891 13.641 C 24.013 12.857,24.013 11.143,23.891 10.359 C 23.557 8.220,22.799 6.386,21.588 4.790 C 19.607 2.180,16.766 0.532,13.500 0.099 C 13.032 0.037,11.640 -0.007,11.200 0.025 M13.280 2.120 C 13.816 2.197,14.410 2.325,14.880 2.467 C 18.065 3.430,20.570 5.935,21.533 9.120 C 21.829 10.100,21.938 10.877,21.938 12.000 C 21.938 13.123,21.829 13.900,21.533 14.880 C 20.530 18.198,17.887 20.741,14.507 21.639 C 13.600 21.880,13.125 21.937,12.000 21.937 C 10.902 21.937,10.448 21.885,9.556 21.659 C 8.208 21.317,6.829 20.625,5.720 19.734 C 3.975 18.331,2.678 16.191,2.245 14.000 C 2.096 13.242,2.062 12.872,2.062 12.000 C 2.062 10.877,2.171 10.100,2.467 9.120 C 3.419 5.971,5.864 3.497,9.007 2.501 C 9.536 2.334,10.235 2.183,10.760 2.123 C 10.969 2.099,11.203 2.072,11.280 2.063 C 11.524 2.035,12.968 2.076,13.280 2.120 M11.367 5.720 C 10.408 5.855,9.571 6.252,8.898 6.889 C 8.142 7.604,7.720 8.537,7.720 9.492 C 7.720 9.971,7.699 9.960,8.566 9.960 C 9.101 9.960,9.283 9.947,9.341 9.904 C 9.403 9.859,9.423 9.776,9.445 9.474 C 9.462 9.243,9.506 9.016,9.559 8.881 C 9.817 8.228,10.449 7.707,11.240 7.492 C 11.598 7.395,12.402 7.395,12.760 7.492 C 13.549 7.706,14.169 8.217,14.445 8.881 C 14.521 9.063,14.537 9.175,14.538 9.543 C 14.540 9.985,14.540 9.987,14.371 10.327 C 14.158 10.757,13.762 11.151,13.340 11.355 C 13.186 11.429,12.931 11.552,12.773 11.629 C 12.035 11.987,11.450 12.718,11.238 13.549 C 11.191 13.733,11.148 14.073,11.133 14.385 L 11.108 14.912 11.212 15.016 C 11.316 15.120,11.318 15.120,11.989 15.120 C 12.841 15.120,12.840 15.121,12.841 14.688 C 12.843 14.008,12.959 13.641,13.263 13.361 C 13.356 13.276,13.635 13.110,13.889 12.990 C 14.644 12.630,15.115 12.263,15.534 11.707 C 16.342 10.632,16.504 9.253,15.962 8.057 C 15.470 6.972,14.324 6.085,13.043 5.796 C 12.646 5.707,11.749 5.666,11.367 5.720 M11.528 16.944 C 11.129 17.142,10.880 17.585,10.936 17.996 C 11.013 18.561,11.449 18.954,12.000 18.954 C 12.551 18.954,12.987 18.561,13.064 17.996 C 13.146 17.395,12.635 16.840,12.000 16.840 C 11.796 16.840,11.688 16.864,11.528 16.944 " stroke="none" fill-rule="evenodd"></path></svg>