<svg width="24" height="24" viewBox="0 0 24 24" fill="none" xmlns="http://www.w3.org/2000/svg"><path d="M5.724 0.086 C 5.623 0.156,5.423 0.463,4.941 1.288 C 4.585 1.897,4.262 2.491,4.223 2.608 C 4.184 2.725,4.143 2.982,4.131 3.180 C 4.087 3.943,4.392 4.564,5.009 4.962 C 5.521 5.294,6.216 5.334,6.781 5.066 C 7.741 4.610,8.144 3.460,7.697 2.450 C 7.515 2.037,6.395 0.166,6.289 0.096 C 6.115 -0.017,5.881 -0.022,5.724 0.086 M11.724 0.086 C 11.623 0.156,11.423 0.463,10.941 1.288 C 10.585 1.897,10.262 2.491,10.223 2.608 C 10.184 2.725,10.143 2.982,10.131 3.180 C 10.087 3.943,10.392 4.564,11.009 4.962 C 11.521 5.294,12.216 5.334,12.781 5.066 C 13.741 4.610,14.144 3.460,13.697 2.450 C 13.515 2.037,12.395 0.166,12.289 0.096 C 12.115 -0.017,11.881 -0.022,11.724 0.086 M17.724 0.086 C 17.623 0.156,17.423 0.463,16.941 1.288 C 16.585 1.897,16.262 2.491,16.223 2.608 C 16.184 2.725,16.143 2.982,16.131 3.180 C 16.087 3.943,16.392 4.564,17.009 4.962 C 17.521 5.294,18.216 5.334,18.781 5.066 C 19.741 4.610,20.144 3.460,19.697 2.450 C 19.515 2.037,18.395 0.166,18.289 0.096 C 18.115 -0.017,17.881 -0.022,17.724 0.086 M5.580 6.814 C 5.130 6.963,4.757 7.302,4.594 7.710 C 4.505 7.931,4.501 7.993,4.488 9.230 L 4.475 10.520 4.295 10.520 C 3.807 10.520,3.087 10.798,2.635 11.161 C 2.132 11.564,1.764 12.124,1.591 12.749 C 1.510 13.043,1.504 13.163,1.490 14.914 C 1.472 17.020,1.442 16.838,1.833 17.014 C 2.590 17.353,3.312 17.312,4.180 16.880 C 4.551 16.695,4.924 16.438,5.486 15.978 C 5.644 15.849,5.762 15.787,5.874 15.772 C 6.176 15.731,6.283 15.781,6.719 16.161 C 7.383 16.740,7.849 17.014,8.425 17.161 C 9.331 17.393,10.237 17.085,11.218 16.210 C 11.637 15.837,11.768 15.760,11.987 15.760 C 12.236 15.760,12.307 15.799,12.736 16.176 C 13.783 17.093,14.657 17.396,15.575 17.161 C 16.151 17.014,16.617 16.740,17.281 16.161 C 17.717 15.781,17.824 15.731,18.126 15.772 C 18.238 15.787,18.356 15.849,18.514 15.978 C 19.076 16.438,19.449 16.695,19.820 16.880 C 20.694 17.315,21.410 17.353,22.178 17.004 C 22.311 16.943,22.444 16.865,22.473 16.829 C 22.515 16.777,22.523 16.406,22.510 14.912 C 22.496 13.163,22.490 13.043,22.409 12.749 C 22.236 12.124,21.868 11.564,21.365 11.161 C 20.913 10.798,20.193 10.520,19.705 10.520 L 19.525 10.520 19.512 9.230 C 19.499 7.990,19.495 7.931,19.406 7.709 C 19.276 7.385,18.951 7.044,18.631 6.896 C 18.410 6.794,18.335 6.780,18.000 6.780 C 17.672 6.780,17.589 6.795,17.393 6.886 C 16.920 7.108,16.596 7.546,16.521 8.064 C 16.500 8.216,16.481 8.830,16.481 9.430 L 16.480 10.520 15.003 10.520 L 13.525 10.520 13.512 9.230 C 13.499 7.990,13.495 7.931,13.406 7.709 C 13.276 7.385,12.951 7.044,12.631 6.896 C 12.410 6.794,12.335 6.780,12.000 6.780 C 11.672 6.780,11.589 6.795,11.393 6.886 C 10.920 7.108,10.596 7.546,10.521 8.064 C 10.500 8.216,10.481 8.830,10.481 9.430 L 10.480 10.520 9.000 10.520 L 7.520 10.520 7.519 9.450 C 7.518 8.861,7.501 8.257,7.482 8.106 C 7.412 7.562,7.086 7.108,6.607 6.889 C 6.336 6.765,5.838 6.728,5.580 6.814 M5.659 17.745 C 5.020 18.186,4.414 18.470,3.740 18.643 C 3.453 18.717,3.275 18.736,2.860 18.735 C 2.366 18.735,2.147 18.701,1.570 18.536 L 1.480 18.511 1.480 20.530 C 1.480 21.728,1.496 22.636,1.521 22.763 C 1.610 23.234,1.916 23.634,2.352 23.849 L 2.618 23.980 11.897 23.990 C 20.284 24.000,21.198 23.995,21.398 23.937 C 21.858 23.805,22.223 23.470,22.406 23.010 C 22.497 22.782,22.498 22.762,22.512 20.645 L 22.526 18.510 22.433 18.531 C 22.382 18.542,22.202 18.588,22.033 18.633 C 20.934 18.926,19.716 18.656,18.508 17.851 C 18.283 17.702,18.080 17.567,18.056 17.551 C 18.031 17.535,17.907 17.603,17.776 17.705 C 17.006 18.304,16.056 18.684,15.180 18.744 C 14.309 18.804,13.258 18.455,12.361 17.807 L 11.982 17.533 11.740 17.723 C 11.207 18.142,10.503 18.486,9.851 18.648 C 9.332 18.776,8.598 18.769,8.076 18.630 C 7.399 18.450,6.749 18.118,6.118 17.632 L 5.979 17.525 5.659 17.745 " stroke="none" fill-rule="evenodd"></path></svg>