<svg width="24" height="24" viewBox="0 0 24 24" fill="none" xmlns="http://www.w3.org/2000/svg"><path d="M10.340 0.024 C 9.043 0.215,7.943 1.057,7.523 2.180 C 7.474 2.312,6.850 4.468,6.137 6.972 L 4.840 11.524 4.840 17.762 L 4.840 24.000 12.030 23.999 C 19.958 23.999,19.455 24.015,19.995 23.747 C 21.032 23.233,21.744 22.372,22.027 21.288 C 22.154 20.804,22.169 20.113,22.063 19.626 L 21.995 19.313 22.156 19.066 C 22.370 18.737,22.538 18.358,22.649 17.953 C 22.765 17.527,22.777 16.605,22.670 16.223 L 22.604 15.985 22.787 15.709 C 23.301 14.936,23.495 13.913,23.305 12.980 L 23.231 12.620 23.416 12.341 C 23.608 12.052,23.781 11.649,23.905 11.200 C 23.960 11.002,23.977 10.801,23.975 10.360 C 23.973 9.847,23.961 9.738,23.864 9.420 C 23.738 9.003,23.482 8.500,23.226 8.168 C 22.861 7.693,22.222 7.192,21.728 6.992 L 21.500 6.900 17.661 6.880 L 13.822 6.860 13.830 6.700 C 13.988 3.706,14.009 2.998,13.951 2.653 C 13.742 1.421,12.871 0.470,11.628 0.117 C 11.346 0.038,10.610 -0.016,10.340 0.024 M0.538 11.635 C 0.338 11.726,0.108 11.987,0.046 12.194 C 0.012 12.309,0.000 13.781,0.000 17.807 L 0.000 23.264 0.104 23.473 C 0.161 23.588,0.266 23.726,0.337 23.780 C 0.601 23.982,0.728 24.000,1.865 24.000 L 2.920 24.000 2.920 17.780 L 2.920 11.560 1.810 11.561 C 0.818 11.562,0.683 11.570,0.538 11.635 " stroke="none" fill-rule="evenodd"></path></svg>