<svg width="24" height="24" viewBox="0 0 24 24" fill="none" xmlns="http://www.w3.org/2000/svg"><path d="M11.520 2.282 C 10.172 2.389,8.914 2.974,7.944 3.944 C 7.127 4.760,6.602 5.744,6.357 6.920 C 6.232 7.516,6.232 8.484,6.357 9.080 C 6.657 10.516,7.438 11.766,8.553 12.592 L 8.872 12.829 8.646 12.919 C 8.522 12.969,8.216 13.116,7.967 13.245 C 5.259 14.648,3.504 17.325,3.275 20.400 C 3.220 21.136,3.249 21.298,3.475 21.525 C 3.814 21.863,4.357 21.807,4.627 21.406 C 4.723 21.263,4.732 21.211,4.798 20.400 C 4.822 20.103,4.869 19.728,4.903 19.566 C 5.561 16.434,8.076 14.150,11.248 13.803 C 14.370 13.461,17.416 15.246,18.648 18.140 C 18.975 18.909,19.134 19.557,19.202 20.400 C 19.268 21.211,19.277 21.263,19.373 21.406 C 19.643 21.807,20.186 21.863,20.525 21.525 C 20.751 21.298,20.780 21.136,20.725 20.400 C 20.484 17.156,18.528 14.344,15.600 13.033 L 15.134 12.825 15.450 12.590 C 16.562 11.766,17.343 10.515,17.643 9.080 C 17.713 8.746,17.731 8.525,17.731 8.000 C 17.731 7.475,17.713 7.254,17.643 6.920 C 17.397 5.742,16.872 4.758,16.055 3.944 C 14.844 2.736,13.236 2.146,11.520 2.282 M12.719 3.820 C 14.496 4.133,15.867 5.504,16.180 7.281 C 16.546 9.360,15.302 11.395,13.259 12.055 C 12.503 12.300,11.497 12.300,10.741 12.055 C 9.210 11.560,8.095 10.292,7.823 8.738 C 7.496 6.870,8.427 5.043,10.140 4.190 C 10.915 3.804,11.860 3.669,12.719 3.820 " stroke="none" fill-rule="evenodd" fill="black"></path></svg>