<svg width="24" height="24" viewBox="0 0 24 24" fill="none" xmlns="http://www.w3.org/2000/svg"><path d="M5.617 1.283 C 5.033 1.352,4.519 1.611,4.065 2.064 C 3.732 2.396,3.521 2.735,3.369 3.180 L 3.260 3.500 3.260 12.000 L 3.260 20.500 3.369 20.820 C 3.520 21.265,3.731 21.603,4.064 21.936 C 4.397 22.269,4.735 22.480,5.180 22.631 L 5.500 22.740 12.000 22.740 L 18.500 22.740 18.820 22.631 C 19.265 22.480,19.603 22.269,19.936 21.936 C 20.269 21.603,20.480 21.265,20.631 20.820 L 20.740 20.500 20.751 13.727 C 20.758 8.917,20.749 6.906,20.718 6.787 C 20.679 6.640,20.371 6.316,18.087 4.028 C 16.664 2.603,15.437 1.397,15.360 1.348 L 15.220 1.260 10.560 1.255 C 7.997 1.252,5.772 1.265,5.617 1.283 M13.249 4.630 L 13.262 6.500 13.370 6.820 C 13.519 7.263,13.730 7.602,14.064 7.936 C 14.398 8.270,14.737 8.481,15.180 8.630 L 15.500 8.738 17.370 8.751 L 19.241 8.765 19.230 14.553 L 19.220 20.340 19.127 20.529 C 18.995 20.797,18.711 21.063,18.453 21.159 C 18.240 21.239,18.156 21.240,12.000 21.240 C 5.844 21.240,5.760 21.239,5.547 21.159 C 5.289 21.063,5.005 20.797,4.873 20.529 L 4.780 20.340 4.769 12.080 C 4.760 5.884,4.769 3.777,4.804 3.650 C 4.897 3.310,5.237 2.950,5.586 2.822 C 5.714 2.775,6.370 2.765,9.488 2.763 L 13.235 2.760 13.249 4.630 M17.463 7.230 C 15.842 7.240,15.756 7.237,15.549 7.160 C 15.289 7.063,15.005 6.798,14.873 6.529 C 14.780 6.341,14.780 6.332,14.769 4.580 L 14.758 2.820 16.959 5.020 L 19.160 7.220 17.463 7.230 M7.805 8.280 C 7.414 8.372,7.172 8.799,7.281 9.204 C 7.340 9.422,7.569 9.657,7.781 9.715 C 7.995 9.775,10.005 9.775,10.219 9.715 C 10.307 9.691,10.444 9.605,10.525 9.524 C 10.938 9.111,10.742 8.409,10.177 8.278 C 9.986 8.234,7.994 8.235,7.805 8.280 M7.805 12.280 C 7.414 12.372,7.172 12.799,7.281 13.204 C 7.340 13.422,7.569 13.657,7.781 13.715 C 8.005 13.778,15.995 13.778,16.219 13.715 C 16.307 13.691,16.444 13.605,16.525 13.524 C 16.938 13.111,16.742 12.409,16.177 12.278 C 15.984 12.234,7.995 12.235,7.805 12.280 M7.805 16.280 C 7.414 16.372,7.172 16.799,7.281 17.204 C 7.340 17.422,7.569 17.657,7.781 17.715 C 8.005 17.778,15.995 17.778,16.219 17.715 C 16.307 17.691,16.444 17.605,16.525 17.524 C 16.938 17.111,16.742 16.409,16.177 16.278 C 15.984 16.234,7.995 16.235,7.805 16.280 " stroke="none" fill-rule="evenodd" fill="black"></path></svg>