<svg width="24" height="24" viewBox="0 0 24 24" fill="none" xmlns="http://www.w3.org/2000/svg"><path d="M11.260 0.023 C 11.172 0.032,10.902 0.059,10.660 0.083 C 8.495 0.299,6.265 1.222,4.480 2.639 C 3.960 3.052,3.038 3.972,2.630 4.485 C 0.348 7.352,-0.500 11.059,0.300 14.661 C 0.443 15.302,0.787 16.328,1.048 16.886 L 1.260 17.340 1.280 19.560 L 1.300 21.780 1.411 22.006 C 1.539 22.267,1.770 22.492,2.035 22.615 C 2.215 22.698,2.279 22.701,4.440 22.720 L 6.660 22.740 7.104 22.945 C 9.410 24.012,12.241 24.283,14.760 23.677 C 15.770 23.435,16.556 23.145,17.483 22.674 C 20.535 21.125,22.811 18.263,23.637 14.936 C 24.124 12.971,24.118 10.964,23.620 9.020 C 22.397 4.249,18.414 0.737,13.500 0.096 C 13.071 0.040,11.581 -0.008,11.260 0.023 M7.168 10.830 C 7.406 10.936,7.701 11.230,7.813 11.472 C 7.880 11.618,7.899 11.737,7.900 12.000 C 7.900 12.292,7.884 12.372,7.788 12.569 C 7.478 13.200,6.705 13.457,6.064 13.144 C 5.548 12.891,5.257 12.258,5.397 11.692 C 5.496 11.290,5.856 10.905,6.256 10.774 C 6.485 10.699,6.935 10.727,7.168 10.830 M12.543 10.842 C 12.792 10.962,13.037 11.208,13.162 11.461 C 13.243 11.625,13.260 11.720,13.260 12.000 C 13.260 12.405,13.166 12.636,12.890 12.912 C 12.282 13.520,11.233 13.344,10.852 12.569 C 10.756 12.372,10.740 12.292,10.740 11.997 C 10.740 11.695,10.754 11.627,10.860 11.421 C 11.005 11.139,11.279 10.897,11.569 10.793 C 11.855 10.691,12.275 10.712,12.543 10.842 M17.903 10.842 C 18.153 10.963,18.396 11.206,18.519 11.460 C 18.598 11.624,18.616 11.722,18.616 12.000 C 18.616 12.406,18.522 12.640,18.249 12.913 C 18.023 13.139,17.769 13.249,17.420 13.270 C 16.176 13.348,15.588 11.734,16.584 10.974 C 16.936 10.706,17.505 10.649,17.903 10.842 " stroke="none" fill-rule="evenodd"></path></svg>