<svg width="24" height="24" viewBox="0 0 24 24" fill="none" xmlns="http://www.w3.org/2000/svg"><path d="M7.900 2.343 C 6.772 2.517,5.712 2.916,4.808 3.504 C 3.381 4.434,2.338 5.726,1.737 7.310 C 1.591 7.693,1.377 8.553,1.315 9.000 C 1.244 9.518,1.254 10.640,1.333 11.140 C 1.594 12.776,2.317 14.236,3.448 15.409 C 3.765 15.738,3.942 15.840,4.196 15.840 C 4.503 15.840,4.747 15.677,4.884 15.380 C 5.022 15.081,4.945 14.791,4.650 14.500 C 2.769 12.644,2.241 9.847,3.316 7.436 C 4.006 5.890,5.411 4.621,7.024 4.084 C 8.674 3.535,10.582 3.717,12.060 4.565 C 12.636 4.895,12.909 5.105,13.423 5.618 C 14.172 6.367,14.567 7.014,14.980 8.172 C 15.060 8.398,15.202 8.577,15.375 8.671 C 15.483 8.730,15.679 8.743,16.800 8.764 C 18.204 8.790,18.311 8.805,18.913 9.053 C 19.238 9.187,19.757 9.534,20.044 9.808 C 21.302 11.015,21.545 12.975,20.623 14.470 C 20.375 14.874,20.156 15.118,19.750 15.443 C 19.558 15.597,19.374 15.775,19.341 15.837 C 19.053 16.394,19.507 17.033,20.120 16.935 C 20.303 16.906,20.468 16.805,20.861 16.480 C 21.656 15.823,22.245 14.860,22.545 13.725 C 22.681 13.210,22.720 12.240,22.626 11.700 C 22.320 9.946,21.323 8.586,19.768 7.804 C 18.981 7.408,18.390 7.285,17.126 7.251 L 16.232 7.228 16.189 7.104 C 16.101 6.848,15.677 6.048,15.457 5.720 C 14.209 3.865,12.281 2.657,10.060 2.339 C 9.555 2.266,8.382 2.269,7.900 2.343 M11.820 12.276 C 11.554 12.342,11.353 12.534,11.282 12.791 C 11.255 12.888,11.240 14.037,11.240 16.059 L 11.240 19.179 9.810 17.752 C 8.812 16.757,8.344 16.316,8.260 16.294 C 8.078 16.246,7.786 16.264,7.656 16.332 C 7.434 16.448,7.240 16.745,7.240 16.969 C 7.241 17.295,7.232 17.285,9.433 19.494 C 10.855 20.921,11.592 21.633,11.700 21.683 C 11.788 21.725,11.923 21.758,12.000 21.758 C 12.077 21.758,12.212 21.725,12.300 21.683 C 12.408 21.633,13.145 20.921,14.567 19.494 C 16.733 17.320,16.760 17.290,16.760 17.000 C 16.760 16.755,16.571 16.449,16.349 16.334 C 16.214 16.265,15.924 16.245,15.740 16.294 C 15.656 16.316,15.188 16.757,14.190 17.752 L 12.760 19.179 12.760 16.059 C 12.760 14.037,12.745 12.888,12.718 12.791 C 12.670 12.617,12.514 12.419,12.365 12.343 C 12.224 12.271,11.967 12.240,11.820 12.276 " stroke="none" fill-rule="evenodd" fill="black"></path></svg>