<svg width="24" height="24" viewBox="0 0 24 24" fill="none" xmlns="http://www.w3.org/2000/svg"><path d="M6.933 1.579 C 5.725 1.798,4.615 2.554,3.940 3.615 C 3.697 3.999,3.623 4.188,2.722 6.756 C 2.223 8.175,1.834 9.225,1.800 9.242 C 0.837 9.738,0.252 10.470,0.062 11.420 C 0.005 11.705,-0.001 12.267,0.009 16.560 L 0.020 21.380 0.149 21.644 C 0.370 22.095,0.775 22.392,1.296 22.482 C 1.468 22.512,1.872 22.523,2.432 22.511 C 3.194 22.496,3.326 22.484,3.512 22.410 C 3.918 22.249,4.247 21.921,4.411 21.512 C 4.491 21.314,4.498 21.214,4.512 20.030 L 4.527 18.760 12.000 18.760 L 19.473 18.760 19.488 20.030 C 19.502 21.214,19.509 21.314,19.589 21.512 C 19.753 21.921,20.082 22.249,20.488 22.410 C 20.674 22.484,20.806 22.496,21.568 22.511 C 22.134 22.523,22.531 22.512,22.708 22.481 C 23.230 22.391,23.651 22.073,23.876 21.600 L 23.980 21.380 23.991 16.560 C 24.003 11.279,24.010 11.448,23.768 10.852 C 23.499 10.193,22.958 9.637,22.200 9.243 C 22.165 9.225,21.777 8.177,21.278 6.756 C 20.804 5.405,20.369 4.197,20.311 4.071 C 19.727 2.805,18.440 1.823,17.045 1.579 C 16.578 1.497,7.384 1.498,6.933 1.579 M16.898 4.657 C 17.171 4.791,17.438 5.041,17.557 5.273 C 17.602 5.362,17.911 6.214,18.245 7.167 C 18.578 8.120,18.859 8.922,18.870 8.950 C 18.885 8.990,17.494 9.000,12.000 9.000 C 6.506 9.000,5.115 8.990,5.130 8.950 C 5.141 8.922,5.422 8.120,5.756 7.166 C 6.089 6.212,6.391 5.375,6.427 5.306 C 6.594 4.982,6.870 4.739,7.236 4.595 C 7.410 4.527,7.671 4.524,12.040 4.532 L 16.660 4.540 16.898 4.657 M5.110 12.139 C 5.415 12.278,5.725 12.589,5.866 12.896 C 5.962 13.105,5.978 13.191,5.978 13.500 C 5.979 13.810,5.963 13.893,5.867 14.100 C 5.722 14.415,5.413 14.724,5.104 14.867 C 4.894 14.965,4.811 14.980,4.500 14.980 C 4.180 14.980,4.111 14.966,3.880 14.856 C 3.551 14.698,3.304 14.452,3.145 14.120 C 3.034 13.888,3.020 13.821,3.021 13.500 C 3.021 13.191,3.037 13.106,3.133 12.900 C 3.324 12.489,3.727 12.148,4.150 12.041 C 4.407 11.976,4.852 12.022,5.110 12.139 M20.110 12.139 C 20.415 12.278,20.725 12.589,20.866 12.896 C 20.962 13.105,20.978 13.191,20.978 13.500 C 20.979 13.810,20.963 13.893,20.867 14.100 C 20.722 14.415,20.413 14.724,20.104 14.867 C 19.894 14.965,19.811 14.980,19.500 14.980 C 19.180 14.980,19.111 14.966,18.880 14.856 C 18.551 14.698,18.304 14.452,18.145 14.120 C 18.034 13.888,18.020 13.821,18.021 13.500 C 18.021 13.191,18.037 13.106,18.133 12.900 C 18.324 12.489,18.727 12.148,19.150 12.041 C 19.407 11.976,19.852 12.022,20.110 12.139 " stroke="none" fill-rule="evenodd"></path></svg>