<svg width="24" height="24" viewBox="0 0 24 24" fill="none" xmlns="http://www.w3.org/2000/svg"><path d="M2.820 2.276 C 2.551 2.343,2.351 2.537,2.280 2.799 C 2.252 2.904,2.242 5.579,2.249 11.227 L 2.260 19.500 2.369 19.820 C 2.520 20.265,2.731 20.603,3.064 20.936 C 3.397 21.269,3.735 21.480,4.180 21.631 L 4.500 21.740 12.773 21.751 C 18.751 21.758,21.092 21.749,21.212 21.717 C 21.307 21.691,21.439 21.610,21.525 21.525 C 21.938 21.111,21.743 20.410,21.177 20.278 C 21.085 20.257,17.628 20.242,12.892 20.241 C 4.840 20.240,4.761 20.239,4.547 20.159 C 4.289 20.063,4.005 19.797,3.873 19.529 L 3.780 19.340 3.760 11.060 C 3.739 2.181,3.752 2.715,3.545 2.486 C 3.381 2.305,3.068 2.215,2.820 2.276 M7.820 4.276 C 7.554 4.342,7.353 4.534,7.282 4.791 C 7.222 5.007,7.225 17.003,7.285 17.219 C 7.344 17.432,7.578 17.660,7.798 17.719 C 8.198 17.827,8.610 17.599,8.718 17.209 C 8.776 17.002,8.776 4.998,8.718 4.791 C 8.670 4.617,8.514 4.419,8.365 4.343 C 8.224 4.271,7.967 4.240,7.820 4.276 M12.820 8.276 C 12.554 8.342,12.353 8.534,12.282 8.791 C 12.222 9.006,12.225 17.004,12.285 17.219 C 12.344 17.432,12.578 17.660,12.798 17.719 C 13.198 17.827,13.610 17.599,13.718 17.209 C 13.775 17.003,13.775 8.997,13.718 8.791 C 13.670 8.617,13.514 8.419,13.365 8.343 C 13.224 8.271,12.967 8.240,12.820 8.276 M17.820 13.276 C 17.554 13.342,17.353 13.534,17.282 13.791 C 17.224 14.000,17.226 17.009,17.285 17.219 C 17.344 17.432,17.578 17.660,17.798 17.719 C 18.198 17.827,18.610 17.599,18.718 17.209 C 18.774 17.009,18.774 13.991,18.718 13.791 C 18.670 13.617,18.514 13.419,18.365 13.343 C 18.224 13.271,17.967 13.240,17.820 13.276 " stroke="none" fill-rule="evenodd" fill="black"></path></svg>