<svg width="24" height="24" viewBox="0 0 24 24" fill="none" xmlns="http://www.w3.org/2000/svg"><path d="M11.800 0.195 C 11.494 0.295,11.298 0.479,11.206 0.756 C 11.178 0.839,11.160 1.184,11.161 1.636 C 11.162 2.469,11.190 2.586,11.445 2.828 C 11.614 2.987,11.752 3.040,12.000 3.040 C 12.248 3.040,12.386 2.987,12.555 2.828 C 12.810 2.586,12.838 2.469,12.839 1.636 C 12.840 0.850,12.818 0.712,12.652 0.490 C 12.481 0.258,12.056 0.112,11.800 0.195 M3.836 3.493 C 3.588 3.624,3.431 3.861,3.408 4.140 C 3.377 4.516,3.450 4.637,4.092 5.270 C 4.684 5.853,4.788 5.919,5.111 5.920 C 5.512 5.920,5.917 5.519,5.919 5.120 C 5.920 4.791,5.855 4.687,5.289 4.112 C 4.971 3.788,4.678 3.528,4.581 3.480 C 4.352 3.370,4.060 3.375,3.836 3.493 M19.416 3.481 C 19.323 3.527,19.015 3.802,18.710 4.113 C 18.145 4.687,18.080 4.792,18.081 5.120 C 18.083 5.519,18.488 5.920,18.889 5.920 C 19.212 5.919,19.316 5.853,19.908 5.270 C 20.550 4.637,20.623 4.516,20.592 4.140 C 20.545 3.573,19.928 3.228,19.416 3.481 M11.355 6.320 C 10.577 6.410,9.699 6.705,9.070 7.089 C 7.788 7.870,6.877 9.074,6.481 10.507 C 6.014 12.194,6.386 14.085,7.459 15.478 C 7.696 15.787,8.213 16.304,8.522 16.541 C 9.489 17.286,10.769 17.719,12.000 17.719 C 13.231 17.719,14.511 17.286,15.478 16.541 C 15.787 16.304,16.304 15.787,16.541 15.478 C 17.286 14.511,17.719 13.231,17.719 12.000 C 17.719 10.221,16.876 8.527,15.455 7.453 C 14.476 6.713,13.425 6.342,12.193 6.302 C 11.900 6.293,11.523 6.301,11.355 6.320 M13.017 8.076 C 14.437 8.452,15.586 9.624,15.947 11.061 C 16.048 11.463,16.047 12.550,15.945 12.940 C 15.757 13.661,15.358 14.362,14.842 14.878 C 14.348 15.372,13.815 15.685,13.091 15.907 C 12.764 16.008,12.690 16.015,12.000 16.015 C 11.310 16.015,11.236 16.008,10.909 15.907 C 10.715 15.848,10.445 15.748,10.307 15.686 C 9.255 15.209,8.393 14.179,8.073 13.017 C 7.999 12.747,7.986 12.596,7.986 12.000 C 7.986 11.404,7.999 11.253,8.073 10.983 C 8.491 9.462,9.730 8.307,11.254 8.017 C 11.675 7.936,12.608 7.968,13.017 8.076 M0.800 11.196 C 0.469 11.302,0.278 11.496,0.194 11.811 C 0.100 12.163,0.283 12.559,0.622 12.737 C 0.763 12.811,0.864 12.821,1.540 12.833 C 2.404 12.848,2.528 12.825,2.769 12.608 C 2.967 12.428,3.040 12.266,3.040 12.004 C 3.040 11.752,2.988 11.614,2.828 11.447 C 2.585 11.193,2.539 11.182,1.680 11.172 C 1.251 11.167,0.855 11.178,0.800 11.196 M21.660 11.178 C 21.638 11.186,21.570 11.204,21.509 11.218 C 21.363 11.250,21.082 11.506,21.014 11.669 C 20.984 11.740,20.960 11.889,20.960 12.000 C 20.960 12.266,21.032 12.428,21.231 12.608 C 21.472 12.825,21.596 12.848,22.460 12.833 C 23.136 12.821,23.237 12.811,23.378 12.737 C 23.717 12.559,23.900 12.163,23.806 11.811 C 23.741 11.567,23.598 11.382,23.388 11.270 C 23.233 11.187,23.162 11.179,22.460 11.172 C 22.042 11.167,21.682 11.170,21.660 11.178 M4.802 18.127 C 4.599 18.185,3.545 19.233,3.456 19.465 C 3.246 20.014,3.641 20.602,4.216 20.599 C 4.542 20.598,4.694 20.497,5.286 19.894 C 5.855 19.313,5.920 19.208,5.919 18.880 C 5.918 18.684,5.798 18.442,5.627 18.292 C 5.404 18.096,5.113 18.038,4.802 18.127 M18.625 18.139 C 18.328 18.245,18.083 18.579,18.081 18.880 C 18.080 19.208,18.145 19.313,18.714 19.894 C 19.306 20.497,19.458 20.598,19.784 20.599 C 20.359 20.602,20.754 20.014,20.544 19.465 C 20.448 19.213,19.402 18.187,19.179 18.125 C 18.971 18.067,18.815 18.071,18.625 18.139 M11.660 21.023 C 11.471 21.120,11.287 21.320,11.218 21.500 C 11.167 21.634,11.157 21.809,11.168 22.442 C 11.179 23.137,11.189 23.237,11.263 23.378 C 11.441 23.717,11.836 23.900,12.190 23.806 C 12.425 23.744,12.629 23.585,12.737 23.378 C 12.811 23.237,12.821 23.137,12.832 22.442 C 12.843 21.800,12.834 21.635,12.780 21.495 C 12.712 21.316,12.464 21.063,12.295 20.998 C 12.142 20.940,11.794 20.953,11.660 21.023 " stroke="none" fill-rule="evenodd" fill="black"></path></svg>