<svg width="24" height="24" viewBox="0 0 24 24" fill="none" xmlns="http://www.w3.org/2000/svg"><path d="M9.617 1.283 C 9.034 1.351,8.519 1.610,8.065 2.064 C 7.729 2.399,7.518 2.740,7.373 3.180 C 7.275 3.476,7.266 3.565,7.249 4.370 L 7.231 5.240 5.626 5.240 C 4.743 5.241,3.863 5.259,3.671 5.281 C 3.026 5.355,2.537 5.593,2.065 6.064 C 1.732 6.396,1.521 6.735,1.369 7.180 L 1.260 7.500 1.260 13.000 L 1.260 18.500 1.369 18.820 C 1.520 19.265,1.731 19.603,2.064 19.936 C 2.397 20.269,2.735 20.480,3.180 20.631 L 3.500 20.740 12.000 20.740 L 20.500 20.740 20.820 20.631 C 21.265 20.480,21.603 20.269,21.936 19.936 C 22.269 19.603,22.480 19.265,22.631 18.820 L 22.740 18.500 22.740 13.000 L 22.740 7.500 22.631 7.180 C 22.479 6.735,22.268 6.396,21.935 6.064 C 21.463 5.593,20.974 5.355,20.329 5.281 C 20.137 5.259,19.257 5.241,18.374 5.240 L 16.769 5.240 16.751 4.370 C 16.734 3.565,16.725 3.476,16.627 3.180 C 16.482 2.740,16.271 2.399,15.935 2.064 C 15.463 1.593,14.974 1.355,14.329 1.281 C 13.915 1.233,10.027 1.236,9.617 1.283 M14.528 2.873 C 14.767 2.991,15.009 3.233,15.127 3.472 C 15.213 3.646,15.221 3.719,15.232 4.450 L 15.245 5.240 12.002 5.240 L 8.760 5.240 8.760 4.505 C 8.760 3.699,8.787 3.557,8.996 3.272 C 9.061 3.185,9.185 3.060,9.273 2.996 C 9.595 2.759,9.532 2.764,12.040 2.772 L 14.340 2.780 14.528 2.873 M20.528 6.873 C 20.767 6.991,21.009 7.233,21.127 7.472 L 21.220 7.660 21.220 10.135 L 21.220 12.611 20.860 12.828 C 20.327 13.150,19.083 13.761,18.474 14.001 C 16.996 14.583,15.560 14.948,13.960 15.147 C 13.130 15.251,10.870 15.251,10.040 15.147 C 8.452 14.949,7.055 14.598,5.617 14.036 C 4.942 13.772,3.686 13.160,3.140 12.829 L 2.780 12.611 2.769 10.215 C 2.760 8.483,2.770 7.773,2.804 7.650 C 2.897 7.310,3.237 6.950,3.586 6.822 C 3.717 6.774,4.980 6.766,12.040 6.773 L 20.340 6.780 20.528 6.873 M11.805 11.279 C 11.538 11.344,11.308 11.596,11.261 11.876 C 11.184 12.329,11.564 12.759,12.042 12.760 C 12.199 12.760,12.483 12.596,12.618 12.426 C 12.727 12.289,12.740 12.244,12.740 12.000 C 12.740 11.755,12.728 11.712,12.616 11.574 C 12.404 11.312,12.110 11.205,11.805 11.279 M3.540 14.742 C 5.821 15.887,8.222 16.538,10.833 16.718 C 13.169 16.879,15.691 16.543,18.018 15.762 C 18.920 15.459,19.587 15.181,20.460 14.742 C 20.856 14.543,21.194 14.374,21.211 14.367 C 21.228 14.359,21.237 15.250,21.231 16.346 L 21.220 18.340 21.127 18.529 C 20.995 18.797,20.711 19.063,20.453 19.159 C 20.239 19.239,20.161 19.240,12.000 19.240 C 3.839 19.240,3.761 19.239,3.547 19.159 C 3.289 19.063,3.005 18.797,2.873 18.529 L 2.780 18.340 2.769 16.346 C 2.763 15.250,2.772 14.359,2.789 14.367 C 2.806 14.374,3.144 14.543,3.540 14.742 " stroke="none" fill-rule="evenodd" fill="black"></path></svg>