<svg width="24" height="24" viewBox="0 0 24 24" fill="none" xmlns="http://www.w3.org/2000/svg"><path d="M17.600 0.062 C 17.457 0.093,17.205 0.184,17.040 0.264 C 16.755 0.402,16.639 0.511,14.775 2.375 C 12.909 4.240,12.802 4.355,12.664 4.640 C 12.322 5.346,12.323 6.056,12.665 6.760 C 12.800 7.038,12.909 7.159,14.172 8.428 L 15.533 9.795 15.425 10.043 C 15.183 10.601,14.501 11.681,13.987 12.320 C 13.604 12.796,12.583 13.788,12.073 14.181 C 11.514 14.610,10.952 14.967,10.300 15.306 L 9.820 15.556 8.460 14.204 C 7.492 13.242,7.037 12.817,6.880 12.730 C 6.514 12.527,6.153 12.436,5.709 12.435 C 5.258 12.435,4.992 12.500,4.580 12.710 C 4.328 12.839,4.107 13.046,2.355 14.797 C 0.544 16.607,0.401 16.760,0.268 17.030 C -0.123 17.824,-0.074 18.705,0.398 19.408 C 0.651 19.785,3.938 23.067,4.315 23.319 C 5.195 23.908,6.163 24.108,7.240 23.923 C 9.960 23.456,12.861 22.198,15.298 20.429 C 19.857 17.120,23.024 12.285,23.923 7.260 C 24.131 6.098,23.856 4.979,23.146 4.100 C 23.004 3.924,22.135 3.032,21.214 2.118 C 19.629 0.544,19.522 0.446,19.210 0.286 C 18.680 0.013,18.162 -0.059,17.600 0.062 " stroke="none" fill-rule="evenodd"></path></svg>