<svg width="24" height="24" viewBox="0 0 24 24" fill="none" xmlns="http://www.w3.org/2000/svg"><path d="M8.320 0.025 C 6.078 0.230,4.156 1.123,2.612 2.674 C 1.429 3.863,0.586 5.393,0.223 7.009 C -0.600 10.680,0.908 14.410,4.073 16.533 C 4.864 17.063,6.111 17.585,7.092 17.797 C 9.468 18.309,11.981 17.830,13.995 16.481 L 14.489 16.150 18.415 20.075 C 21.527 23.187,22.362 24.000,22.441 24.000 C 22.585 24.000,24.000 22.584,24.000 22.440 C 24.000 22.362,23.170 21.510,20.075 18.415 L 16.150 14.489 16.481 13.995 C 16.663 13.723,16.934 13.252,17.082 12.950 C 19.266 8.488,17.410 3.096,12.940 0.918 C 12.074 0.496,11.265 0.244,10.320 0.101 C 9.909 0.039,8.676 -0.008,8.320 0.025 M10.140 2.379 C 12.273 2.750,14.089 4.117,15.041 6.066 C 16.072 8.180,15.903 10.754,14.603 12.702 C 13.585 14.228,12.063 15.240,10.233 15.607 C 9.579 15.739,8.421 15.739,7.767 15.607 C 5.802 15.213,4.231 14.105,3.205 12.393 C 2.078 10.513,1.983 8.054,2.961 6.058 C 3.973 3.993,5.972 2.584,8.264 2.321 C 8.694 2.272,9.701 2.303,10.140 2.379 " stroke="none" fill-rule="evenodd"></path></svg>