<svg width="24" height="24" viewBox="0 0 24 24" fill="none" xmlns="http://www.w3.org/2000/svg"><path d="M11.340 1.281 C 8.553 1.483,5.961 3.074,4.514 5.470 C 3.603 6.978,3.135 8.899,3.273 10.567 C 3.487 13.159,4.827 15.828,7.480 18.946 C 8.094 19.668,9.823 21.418,10.543 22.046 C 10.813 22.282,11.123 22.513,11.245 22.571 C 11.725 22.798,12.275 22.798,12.755 22.571 C 13.063 22.425,13.773 21.792,14.960 20.602 C 19.008 16.548,20.988 12.697,20.727 9.387 C 20.480 6.253,18.667 3.547,15.900 2.179 C 14.469 1.472,12.918 1.166,11.340 1.281 M12.752 2.803 C 16.567 3.220,19.389 6.479,19.227 10.280 C 19.178 11.424,18.886 12.461,18.240 13.780 C 17.324 15.651,15.920 17.516,13.900 19.544 C 12.765 20.684,12.141 21.240,11.996 21.240 C 11.856 21.240,11.229 20.679,10.079 19.524 C 6.635 16.068,4.766 12.737,4.761 10.048 C 4.757 8.093,5.513 6.254,6.883 4.883 C 8.426 3.340,10.605 2.568,12.752 2.803 M11.595 6.282 C 11.135 6.332,10.822 6.424,10.380 6.639 C 9.320 7.153,8.640 7.999,8.350 9.160 C 8.232 9.634,8.232 10.366,8.350 10.840 C 8.533 11.573,8.843 12.127,9.358 12.642 C 10.088 13.372,10.964 13.734,12.000 13.734 C 13.036 13.734,13.912 13.372,14.642 12.642 C 15.372 11.912,15.734 11.036,15.734 10.000 C 15.734 8.411,14.808 7.076,13.293 6.485 C 12.852 6.312,12.122 6.225,11.595 6.282 M12.556 7.822 C 12.934 7.911,13.263 8.103,13.580 8.420 C 14.034 8.874,14.239 9.365,14.239 10.000 C 14.239 10.635,14.034 11.126,13.580 11.580 C 13.124 12.036,12.636 12.240,12.000 12.240 C 11.364 12.240,10.876 12.036,10.420 11.580 C 9.966 11.126,9.761 10.635,9.761 10.000 C 9.761 9.365,9.966 8.874,10.420 8.420 C 10.730 8.110,11.066 7.911,11.425 7.823 C 11.737 7.748,12.240 7.747,12.556 7.822 " stroke="none" fill-rule="evenodd" fill="black"></path></svg>