<svg width="24" height="24" viewBox="0 0 24 24" fill="none" xmlns="http://www.w3.org/2000/svg"><path d="M0.600 2.450 C 0.405 2.515,0.097 2.834,0.044 3.025 C -0.052 3.369,0.018 3.661,0.254 3.904 C 0.413 4.068,22.314 21.249,22.633 21.460 C 22.976 21.687,23.427 21.629,23.727 21.319 C 24.057 20.979,24.093 20.492,23.814 20.160 C 23.757 20.092,23.052 19.520,22.247 18.888 C 20.623 17.613,20.602 17.597,20.800 17.719 C 21.137 17.927,21.293 17.978,21.600 17.979 C 21.848 17.980,21.939 17.961,22.127 17.868 C 22.385 17.742,22.573 17.548,22.696 17.282 L 22.780 17.100 22.780 12.000 L 22.780 6.900 22.666 6.668 C 22.405 6.137,21.775 5.878,21.220 6.073 C 21.105 6.113,20.124 6.741,18.910 7.552 L 16.801 8.960 16.790 11.783 L 16.780 14.606 16.190 14.140 L 15.600 13.675 15.600 10.304 C 15.600 7.078,15.597 6.920,15.521 6.624 C 15.405 6.169,15.228 5.865,14.879 5.516 C 14.659 5.296,14.491 5.171,14.277 5.065 C 13.722 4.792,13.918 4.802,8.840 4.799 L 4.260 4.797 2.840 3.679 C 2.059 3.065,1.357 2.531,1.280 2.494 C 1.106 2.409,0.785 2.389,0.600 2.450 M1.200 12.009 C 1.200 16.915,1.202 17.076,1.279 17.376 C 1.395 17.828,1.572 18.135,1.919 18.481 C 2.265 18.828,2.572 19.005,3.024 19.121 C 3.324 19.198,3.485 19.200,8.400 19.200 C 13.315 19.200,13.476 19.198,13.776 19.121 C 14.184 19.017,14.522 18.832,14.828 18.546 C 15.148 18.247,15.273 18.055,15.195 17.980 C 15.165 17.951,12.026 15.475,8.220 12.479 C 4.414 9.482,1.278 7.012,1.250 6.990 C 1.210 6.958,1.200 7.967,1.200 12.009 " stroke="none" fill-rule="evenodd"></path></svg>