<svg width="24" height="24" viewBox="0 0 24 24" fill="none" xmlns="http://www.w3.org/2000/svg"><path d="M11.640 0.763 C 11.499 0.826,10.261 2.042,5.968 6.332 C 2.947 9.350,0.411 11.906,0.333 12.011 C 0.147 12.262,0.039 12.555,0.012 12.883 C -0.059 13.728,0.551 14.519,1.398 14.680 C 1.515 14.702,1.887 14.720,2.225 14.720 L 2.840 14.720 2.840 18.650 C 2.840 21.269,2.854 22.630,2.882 22.731 C 2.937 22.928,3.138 23.154,3.340 23.245 C 3.491 23.314,3.698 23.318,6.910 23.319 L 10.320 23.320 10.320 20.360 L 10.320 17.400 11.800 17.400 L 13.280 17.400 13.280 20.360 L 13.280 23.320 16.890 23.319 C 20.318 23.318,20.508 23.315,20.660 23.244 C 20.748 23.203,20.869 23.118,20.928 23.055 C 21.172 22.795,21.160 23.016,21.160 18.681 L 21.160 14.720 21.775 14.720 C 22.113 14.720,22.486 14.702,22.605 14.680 C 23.133 14.581,23.609 14.204,23.852 13.690 C 23.967 13.446,23.979 13.384,23.980 13.040 C 23.980 12.578,23.905 12.335,23.661 12.010 C 23.566 11.884,21.025 9.319,18.014 6.312 C 13.737 2.039,12.501 0.826,12.360 0.763 C 12.131 0.660,11.869 0.660,11.640 0.763 " stroke="none" fill-rule="evenodd"></path></svg>