<svg width="24" height="24" viewBox="0 0 24 24" fill="none" xmlns="http://www.w3.org/2000/svg"><path d="M11.360 0.145 C 9.990 0.247,8.541 0.666,7.400 1.290 C 4.573 2.837,2.717 5.621,2.374 8.831 C 2.201 10.451,2.486 12.120,3.247 13.940 C 4.230 16.291,6.153 18.957,8.718 21.523 C 9.934 22.739,10.778 23.485,11.140 23.662 C 11.707 23.940,12.293 23.940,12.860 23.662 C 13.607 23.297,16.259 20.645,17.764 18.760 C 19.965 16.002,21.205 13.510,21.585 11.080 C 21.684 10.450,21.685 9.124,21.586 8.480 C 21.233 6.157,20.212 4.227,18.502 2.647 C 17.100 1.352,15.261 0.491,13.326 0.222 C 12.866 0.158,11.764 0.115,11.360 0.145 M12.792 1.921 C 15.557 2.217,17.927 3.871,19.121 6.340 C 19.759 7.660,20.030 9.167,19.877 10.552 C 19.640 12.708,18.479 15.067,16.341 17.737 C 15.595 18.669,14.996 19.331,13.983 20.340 C 12.839 21.481,12.127 22.120,12.000 22.120 C 11.873 22.120,11.156 21.477,10.017 20.341 C 8.410 18.737,7.239 17.325,6.219 15.762 C 4.152 12.592,3.609 9.940,4.487 7.300 C 5.654 3.793,9.144 1.532,12.792 1.921 M11.253 5.699 C 9.809 5.961,8.589 6.989,8.082 8.370 C 7.890 8.891,7.862 9.075,7.862 9.800 C 7.862 10.347,7.878 10.557,7.933 10.760 C 8.374 12.367,9.433 13.426,11.040 13.867 C 11.243 13.922,11.453 13.938,12.000 13.938 C 12.725 13.938,12.909 13.910,13.430 13.718 C 14.571 13.299,15.499 12.371,15.918 11.230 C 16.110 10.709,16.138 10.525,16.138 9.800 C 16.138 9.075,16.110 8.891,15.918 8.370 C 15.407 6.979,14.182 5.954,12.725 5.699 C 12.320 5.628,11.645 5.628,11.253 5.699 M12.640 7.459 C 13.041 7.566,13.359 7.758,13.700 8.100 C 14.214 8.613,14.399 9.063,14.399 9.800 C 14.399 10.536,14.215 10.984,13.699 11.504 C 13.207 12.000,12.690 12.217,12.000 12.217 C 11.584 12.217,11.312 12.155,10.922 11.970 C 10.343 11.696,9.793 11.015,9.643 10.386 C 9.583 10.135,9.583 9.466,9.643 9.216 C 9.830 8.429,10.559 7.676,11.343 7.461 C 11.613 7.387,12.364 7.386,12.640 7.459 " stroke="none" fill-rule="evenodd" fill="black"></path></svg>