<svg width="24" height="24" viewBox="0 0 24 24" fill="none" xmlns="http://www.w3.org/2000/svg"><path d="M10.818 0.057 C 10.742 0.112,10.740 0.220,10.730 5.416 L 10.719 10.719 5.416 10.729 C 0.220 10.740,0.112 10.742,0.057 10.818 C -0.027 10.932,-0.027 13.068,0.057 13.182 C 0.112 13.258,0.220 13.260,5.416 13.270 L 10.719 13.281 10.730 18.584 C 10.740 23.780,10.742 23.888,10.818 23.943 C 10.932 24.027,13.068 24.027,13.182 23.943 C 13.258 23.888,13.260 23.780,13.270 18.584 L 13.281 13.281 18.584 13.270 C 23.780 13.260,23.888 13.258,23.943 13.182 C 24.027 13.068,24.027 10.932,23.943 10.818 C 23.888 10.742,23.780 10.740,18.584 10.729 L 13.281 10.719 13.270 5.416 C 13.260 0.220,13.258 0.112,13.182 0.057 C 13.068 -0.027,10.932 -0.027,10.818 0.057 " stroke="none" fill-rule="evenodd"></path></svg>