<svg width="24" height="24" viewBox="0 0 24 24" fill="none" xmlns="http://www.w3.org/2000/svg">
<g clip-path="url(#clip0_356_2543)">
<path d="M22.8812 3.79236L19.7793 0.693377C19.5605 0.473604 19.3004 0.299229 19.014 0.180269C18.7276 0.0613093 18.4205 0.000108778 18.1104 0.000183173C17.4784 0.000183173 16.8842 0.247752 16.4386 0.693377L13.1008 4.03119C12.881 4.25 12.7066 4.51008 12.5877 4.79648C12.4687 5.08289 12.4075 5.38997 12.4076 5.7001C12.4076 6.33213 12.6552 6.92629 13.1008 7.37192L15.5415 9.81266C14.9702 11.0719 14.1759 12.2175 13.1969 13.1942C12.2204 14.1755 11.0749 14.9727 9.81539 15.5475L7.37465 13.1068C7.15584 12.887 6.89576 12.7126 6.60936 12.5937C6.32295 12.4747 6.01587 12.4135 5.70574 12.4136C5.07371 12.4136 4.47955 12.6612 4.03392 13.1068L0.693195 16.4417C0.473152 16.6609 0.298628 16.9215 0.179662 17.2084C0.0606969 17.4953 -0.000360924 17.8029 1.60494e-06 18.1135C1.60494e-06 18.7455 0.247571 19.3397 0.693195 19.7853L3.78927 22.8814C4.49993 23.595 5.48147 23.9998 6.48922 23.9998C6.70184 23.9998 6.90572 23.9823 7.10669 23.9474C11.0328 23.3008 14.927 21.2125 18.0696 18.0727C21.2094 14.9359 23.2948 11.0447 23.9501 7.10687C24.1482 5.90398 23.7492 4.66613 22.8812 3.79236Z" fill="black"/>
</g>
<defs>
<clipPath id="clip0_356_2543">
<rect width="24" height="24" fill="white"/>
</clipPath>
</defs>
</svg>
