<svg width="24" height="24" viewBox="0 0 24 24" fill="none" xmlns="http://www.w3.org/2000/svg">
<rect width="24" height="24" rx="12" fill="black"/>
<path d="M17.2236 15.793C16.9392 15.1194 16.5265 14.5075 16.0085 13.9915C15.4921 13.4739 14.8803 13.0613 14.207 12.7764C14.201 12.7734 14.195 12.7719 14.1889 12.7688C15.1281 12.0905 15.7387 10.9854 15.7387 9.73869C15.7387 7.67337 14.0653 6 12 6C9.93467 6 8.26131 7.67337 8.26131 9.73869C8.26131 10.9854 8.87186 12.0905 9.81105 12.7704C9.80502 12.7734 9.79899 12.7749 9.79296 12.7779C9.11759 13.0628 8.51156 13.4714 7.99146 13.993C7.47393 14.5094 7.06131 15.1212 6.77638 15.7945C6.49646 16.4536 6.3455 17.1604 6.33166 17.8764C6.33125 17.8925 6.33408 17.9085 6.33996 17.9235C6.34584 17.9384 6.35466 17.9521 6.3659 17.9636C6.37714 17.9751 6.39057 17.9843 6.4054 17.9905C6.42023 17.9968 6.43617 18 6.45226 18H7.35678C7.42311 18 7.47588 17.9472 7.47739 17.8824C7.50754 16.7186 7.97487 15.6286 8.801 14.8025C9.65578 13.9477 10.791 13.4774 12 13.4774C13.209 13.4774 14.3442 13.9477 15.199 14.8025C16.0251 15.6286 16.4925 16.7186 16.5226 17.8824C16.5241 17.9487 16.5769 18 16.6432 18H17.5477C17.5638 18 17.5798 17.9968 17.5946 17.9905C17.6094 17.9843 17.6229 17.9751 17.6341 17.9636C17.6453 17.9521 17.6542 17.9384 17.66 17.9235C17.6659 17.9085 17.6687 17.8925 17.6683 17.8764C17.6533 17.1558 17.504 16.4548 17.2236 15.793ZM12 12.3317C11.308 12.3317 10.6568 12.0618 10.1668 11.5719C9.67688 11.0819 9.40703 10.4307 9.40703 9.73869C9.40703 9.04673 9.67688 8.39548 10.1668 7.90553C10.6568 7.41558 11.308 7.14573 12 7.14573C12.692 7.14573 13.3432 7.41558 13.8332 7.90553C14.3231 8.39548 14.593 9.04673 14.593 9.73869C14.593 10.4307 14.3231 11.0819 13.8332 11.5719C13.3432 12.0618 12.692 12.3317 12 12.3317Z" fill="white"/>
</svg>
