<svg width="24" height="24" viewBox="0 0 24 24" fill="none" xmlns="http://www.w3.org/2000/svg">
<path d="M12.6611 22.7791C14.7071 21.0125 20.8001 15.2925 20.8001 9.80009C20.8001 7.46616 19.8729 5.22783 18.2226 3.57749C16.5723 1.92715 14.3339 1 12 1C9.66608 1 7.42774 1.92715 5.7774 3.57749C4.12706 5.22783 3.19991 7.46616 3.19991 9.80009C3.19991 15.2925 9.29288 21.0125 11.3389 22.7791C11.5295 22.9225 11.7615 23 12 23C12.2385 23 12.4705 22.9225 12.6611 22.7791Z" stroke="black" stroke-width="1.75"/>
<path d="M12 13.1001C13.8226 13.1001 15.3 11.6226 15.3 9.80003C15.3 7.97748 13.8226 6.5 12 6.5C10.1774 6.5 8.69997 7.97748 8.69997 9.80003C8.69997 11.6226 10.1774 13.1001 12 13.1001Z" stroke="black" stroke-width="1.75" stroke-linecap="round" stroke-linejoin="round"/>
</svg>
