<svg width="24" height="24" viewBox="0 0 24 24" fill="none" xmlns="http://www.w3.org/2000/svg">
<g clip-path="url(#clip0_362_2761)">
<path d="M3.78122 23.0848C1.26442 23.0848 0 21.8444 0 19.3517V4.64834C0 2.15562 1.26442 0.915283 3.78122 0.915283H20.2308C22.7476 0.915283 24 2.16767 24 4.64834V19.3517C24 21.8324 22.7476 23.0848 20.2308 23.0848H3.78122ZM3.6006 21.146H20.3873C21.4591 21.146 22.0612 20.5801 22.0612 19.4602V8.10445C22.0612 6.99657 21.4591 6.41853 20.3873 6.41853H3.6006C2.52886 6.41853 1.93879 6.99657 1.93879 8.10445V19.4602C1.93879 20.5801 2.52886 21.146 3.6006 21.146ZM9.65779 10.7417C9.23631 10.7417 9.09181 10.6213 9.09181 10.1998V9.48928C9.09181 9.0678 9.23631 8.93535 9.65779 8.93535H10.3683C10.7898 8.93535 10.9222 9.0678 10.9222 9.48928V10.1998C10.9222 10.6213 10.7898 10.7417 10.3683 10.7417H9.65779ZM13.6558 10.7417C13.2343 10.7417 13.0898 10.6213 13.0898 10.1998V9.48928C13.0898 9.0678 13.2343 8.93535 13.6558 8.93535H14.3663C14.7877 8.93535 14.9322 9.0678 14.9322 9.48928V10.1998C14.9322 10.6213 14.7877 10.7417 14.3663 10.7417H13.6558ZM17.6537 10.7417C17.2323 10.7417 17.0998 10.6213 17.0998 10.1998V9.48928C17.0998 9.0678 17.2323 8.93535 17.6537 8.93535H18.3643C18.7857 8.93535 18.9303 9.0678 18.9303 9.48928V10.1998C18.9303 10.6213 18.7857 10.7417 18.3643 10.7417H17.6537ZM5.6598 14.6794C5.22629 14.6794 5.09382 14.559 5.09382 14.1376V13.4271C5.09382 13.0056 5.22629 12.8852 5.6598 12.8852H6.35825C6.79177 12.8852 6.92422 13.0056 6.92422 13.4271V14.1376C6.92422 14.559 6.79177 14.6794 6.35825 14.6794H5.6598ZM9.65779 14.6794C9.23631 14.6794 9.09181 14.559 9.09181 14.1376V13.4271C9.09181 13.0056 9.23631 12.8852 9.65779 12.8852H10.3683C10.7898 12.8852 10.9222 13.0056 10.9222 13.4271V14.1376C10.9222 14.559 10.7898 14.6794 10.3683 14.6794H9.65779ZM13.6558 14.6794C13.2343 14.6794 13.0898 14.559 13.0898 14.1376V13.4271C13.0898 13.0056 13.2343 12.8852 13.6558 12.8852H14.3663C14.7877 12.8852 14.9322 13.0056 14.9322 13.4271V14.1376C14.9322 14.559 14.7877 14.6794 14.3663 14.6794H13.6558ZM17.6537 14.6794C17.2323 14.6794 17.0998 14.559 17.0998 14.1376V13.4271C17.0998 13.0056 17.2323 12.8852 17.6537 12.8852H18.3643C18.7857 12.8852 18.9303 13.0056 18.9303 13.4271V14.1376C18.9303 14.559 18.7857 14.6794 18.3643 14.6794H17.6537ZM5.6598 18.6293C5.22629 18.6293 5.09382 18.4968 5.09382 18.0754V17.3648C5.09382 16.9434 5.22629 16.8229 5.6598 16.8229H6.35825C6.79177 16.8229 6.92422 16.9434 6.92422 17.3648V18.0754C6.92422 18.4968 6.79177 18.6293 6.35825 18.6293H5.6598ZM9.65779 18.6293C9.23631 18.6293 9.09181 18.4968 9.09181 18.0754V17.3648C9.09181 16.9434 9.23631 16.8229 9.65779 16.8229H10.3683C10.7898 16.8229 10.9222 16.9434 10.9222 17.3648V18.0754C10.9222 18.4968 10.7898 18.6293 10.3683 18.6293H9.65779ZM13.6558 18.6293C13.2343 18.6293 13.0898 18.4968 13.0898 18.0754V17.3648C13.0898 16.9434 13.2343 16.8229 13.6558 16.8229H14.3663C14.7877 16.8229 14.9322 16.9434 14.9322 17.3648V18.0754C14.9322 18.4968 14.7877 18.6293 14.3663 18.6293H13.6558Z" fill="black"/>
</g>
<defs>
<clipPath id="clip0_362_2761">
<rect width="24" height="24" fill="white"/>
</clipPath>
</defs>
</svg>
