<svg width="24" height="24" viewBox="0 0 24 24" fill="none" xmlns="http://www.w3.org/2000/svg">
<mask id="mask0_362_2764" style="mask-type:luminance" maskUnits="userSpaceOnUse" x="0" y="1" width="24" height="22">
<path d="M24 1.01868H0V22.9814H24V1.01868Z" fill="white"/>
</mask>
<g mask="url(#mask0_362_2764)">
<path d="M7.86853 8.4739C9.92723 8.4739 11.5961 6.80499 11.5961 4.74629C11.5961 2.68758 9.92723 1.01868 7.86853 1.01868C5.80982 1.01868 4.14091 2.68758 4.14091 4.74629C4.14091 6.80499 5.80982 8.4739 7.86853 8.4739Z" fill="black"/>
<path d="M16.1285 8.4739C18.1872 8.4739 19.8561 6.80499 19.8561 4.74629C19.8561 2.68758 18.1872 1.01868 16.1285 1.01868C14.0698 1.01868 12.4009 2.68758 12.4009 4.74629C12.4009 6.80499 14.0698 8.4739 16.1285 8.4739Z" fill="black"/>
<path d="M7.86853 22.9824C9.92723 22.9824 11.5961 21.3135 11.5961 19.2548C11.5961 17.1961 9.92723 15.5272 7.86853 15.5272C5.80982 15.5272 4.14091 17.1961 4.14091 19.2548C4.14091 21.3135 5.80982 22.9824 7.86853 22.9824Z" fill="black"/>
<path d="M16.1285 22.9824C18.1872 22.9824 19.8561 21.3135 19.8561 19.2548C19.8561 17.1961 18.1872 15.5272 16.1285 15.5272C14.0698 15.5272 12.4009 17.1961 12.4009 19.2548C12.4009 21.3135 14.0698 22.9824 16.1285 22.9824Z" fill="black"/>
<path d="M3.72761 15.7282C5.78632 15.7282 7.45522 14.0593 7.45522 12.0006C7.45522 9.94186 5.78632 8.27295 3.72761 8.27295C1.66891 8.27295 0 9.94186 0 12.0006C0 14.0593 1.66891 15.7282 3.72761 15.7282Z" fill="black"/>
<path d="M20.2739 15.7282C22.3325 15.7282 24.0015 14.0593 24.0015 12.0006C24.0015 9.94186 22.3325 8.27295 20.2739 8.27295C18.215 8.27295 16.5461 9.94186 16.5461 12.0006C16.5461 14.0593 18.215 15.7282 20.2739 15.7282Z" fill="black"/>
</g>
</svg>
