<svg width="24" height="24" viewBox="0 0 24 24" fill="none" xmlns="http://www.w3.org/2000/svg">
<path d="M2.48995 10.9245C1.66431 10.9245 1.04291 10.7159 0.625747 10.2988C0.208582 9.8729 0 9.22977 0 8.36936V2.5421C0 1.68169 0.208582 1.04291 0.625747 0.625747C1.04291 0.208582 1.66431 0 2.48995 0H8.43455C9.26018 0 9.88159 0.208582 10.2988 0.625747C10.7159 1.04291 10.9245 1.68169 10.9245 2.5421V8.36936C10.9245 9.22977 10.7159 9.8729 10.2988 10.2988C9.88159 10.7159 9.26018 10.9245 8.43455 10.9245H2.48995ZM2.51602 9.08637H8.39544C8.6214 9.08637 8.79087 9.02553 8.90386 8.90386C9.02553 8.78218 9.08637 8.60402 9.08637 8.36936V2.5421C9.08637 2.30744 9.02553 2.13362 8.90386 2.02064C8.79087 1.89897 8.6214 1.83813 8.39544 1.83813H2.51602C2.29006 1.83813 2.12059 1.89897 2.0076 2.02064C1.89462 2.13362 1.83813 2.30744 1.83813 2.5421V8.36936C1.83813 8.60402 1.89462 8.78218 2.0076 8.90386C2.12059 9.02553 2.29006 9.08637 2.51602 9.08637ZM4.34112 6.83107C4.1673 6.83107 4.08039 6.73112 4.08039 6.53123V4.36719C4.08039 4.17599 4.1673 4.08039 4.34112 4.08039H6.57034C6.74416 4.08039 6.83107 4.17599 6.83107 4.36719V6.53123C6.83107 6.73112 6.74416 6.83107 6.57034 6.83107H4.34112ZM15.5785 10.9245C14.7442 10.9245 14.1184 10.7159 13.7012 10.2988C13.2841 9.8729 13.0755 9.22977 13.0755 8.36936V2.5421C13.0755 1.68169 13.2841 1.04291 13.7012 0.625747C14.1184 0.208582 14.7442 0 15.5785 0H21.51C22.3357 0 22.9571 0.208582 23.3743 0.625747C23.7914 1.04291 24 1.68169 24 2.5421V8.36936C24 9.22977 23.7914 9.8729 23.3743 10.2988C22.9571 10.7159 22.3357 10.9245 21.51 10.9245H15.5785ZM15.6046 9.08637H21.484C21.7186 9.08637 21.8881 9.02553 21.9924 8.90386C22.1054 8.78218 22.1619 8.60402 22.1619 8.36936V2.5421C22.1619 2.30744 22.1054 2.13362 21.9924 2.02064C21.8881 1.89897 21.7186 1.83813 21.484 1.83813H15.6046C15.3699 1.83813 15.1961 1.89897 15.0831 2.02064C14.9701 2.13362 14.9136 2.30744 14.9136 2.5421V8.36936C14.9136 8.60402 14.9701 8.78218 15.0831 8.90386C15.1961 9.02553 15.3699 9.08637 15.6046 9.08637ZM17.4948 6.83107C17.3297 6.83107 17.2471 6.73112 17.2471 6.53123V4.36719C17.2471 4.17599 17.3297 4.08039 17.4948 4.08039H19.7241C19.9066 4.08039 19.9978 4.17599 19.9978 4.36719V6.53123C19.9978 6.73112 19.9066 6.83107 19.7241 6.83107H17.4948ZM2.48995 24C1.66431 24 1.04291 23.7914 0.625747 23.3743C0.208582 22.9571 0 22.3183 0 21.4579V15.6176C0 14.7659 0.208582 14.1315 0.625747 13.7143C1.04291 13.2884 1.66431 13.0755 2.48995 13.0755H8.43455C9.26018 13.0755 9.88159 13.2884 10.2988 13.7143C10.7159 14.1315 10.9245 14.7659 10.9245 15.6176V21.4579C10.9245 22.3183 10.7159 22.9571 10.2988 23.3743C9.88159 23.7914 9.26018 24 8.43455 24H2.48995ZM2.51602 22.1619H8.39544C8.6214 22.1619 8.79087 22.101 8.90386 21.9794C9.02553 21.8664 9.08637 21.6926 9.08637 21.4579V15.6306C9.08637 15.3873 9.02553 15.2091 8.90386 15.0961C8.79087 14.9745 8.6214 14.9136 8.39544 14.9136H2.51602C2.29006 14.9136 2.12059 14.9745 2.0076 15.0961C1.89462 15.2091 1.83813 15.3873 1.83813 15.6306V21.4579C1.83813 21.6926 1.89462 21.8664 2.0076 21.9794C2.12059 22.101 2.29006 22.1619 2.51602 22.1619ZM4.34112 19.9196C4.1673 19.9196 4.08039 19.8153 4.08039 19.6067V17.4557C4.08039 17.2645 4.1673 17.1689 4.34112 17.1689H6.57034C6.74416 17.1689 6.83107 17.2645 6.83107 17.4557V19.6067C6.83107 19.8153 6.74416 19.9196 6.57034 19.9196H4.34112ZM13.962 16.4519C13.7882 16.4519 13.7012 16.352 13.7012 16.1521V13.9881C13.7012 13.7968 13.7882 13.7012 13.962 13.7012H16.1912C16.365 13.7012 16.4519 13.7968 16.4519 13.9881V16.1521C16.4519 16.352 16.365 16.4519 16.1912 16.4519H13.962ZM20.8843 16.4519C20.7105 16.4519 20.6236 16.352 20.6236 16.1521V13.9881C20.6236 13.7968 20.7105 13.7012 20.8843 13.7012H23.1135C23.2873 13.7012 23.3743 13.7968 23.3743 13.9881V16.1521C23.3743 16.352 23.2873 16.4519 23.1135 16.4519H20.8843ZM17.4557 19.9196C17.2819 19.9196 17.195 19.8153 17.195 19.6067V17.4557C17.195 17.2645 17.2819 17.1689 17.4557 17.1689H19.685C19.8588 17.1689 19.9457 17.2645 19.9457 17.4557V19.6067C19.9457 19.8153 19.8588 19.9196 19.685 19.9196H17.4557ZM13.962 23.3743C13.7882 23.3743 13.7012 23.2743 13.7012 23.0744V20.9104C13.7012 20.7192 13.7882 20.6236 13.962 20.6236H16.1912C16.365 20.6236 16.4519 20.7192 16.4519 20.9104V23.0744C16.4519 23.2743 16.365 23.3743 16.1912 23.3743H13.962ZM20.8843 23.3743C20.7105 23.3743 20.6236 23.2743 20.6236 23.0744V20.9104C20.6236 20.7192 20.7105 20.6236 20.8843 20.6236H23.1135C23.2873 20.6236 23.3743 20.7192 23.3743 20.9104V23.0744C23.3743 23.2743 23.2873 23.3743 23.1135 23.3743H20.8843Z" fill="black"/>
</svg>
