<svg width="24" height="24" viewBox="0 0 24 24" fill="none" xmlns="http://www.w3.org/2000/svg">
<path d="M5.54532 0.257812L4.39219 2.23125C4.21407 2.53594 4.12032 2.8875 4.12032 3.24375V3.375C4.12032 4.41094 4.95938 5.25 5.99532 5.25C7.03125 5.25 7.87032 4.41094 7.87032 3.375V3.24375C7.87032 2.8875 7.77657 2.54062 7.59844 2.23125L6.44532 0.257812C6.35157 0.0984375 6.18282 0 5.99532 0C5.80782 0 5.63907 0.0984375 5.54532 0.257812ZM11.5453 0.257812L10.3922 2.23125C10.2141 2.53594 10.1203 2.8875 10.1203 3.24375V3.375C10.1203 4.41094 10.9594 5.25 11.9953 5.25C13.0313 5.25 13.8703 4.41094 13.8703 3.375V3.24375C13.8703 2.8875 13.7766 2.54062 13.5984 2.23125L12.4453 0.257812C12.3516 0.0984375 12.1828 0 11.9953 0C11.8078 0 11.6391 0.0984375 11.5453 0.257812ZM16.3922 2.23125C16.2141 2.53594 16.1203 2.8875 16.1203 3.24375V3.375C16.1203 4.41094 16.9594 5.25 17.9953 5.25C19.0313 5.25 19.8703 4.41094 19.8703 3.375V3.24375C19.8703 2.8875 19.7766 2.54062 19.5984 2.23125L18.4453 0.257812C18.3516 0.0984375 18.1828 0 17.9953 0C17.8078 0 17.6391 0.0984375 17.5453 0.257812L16.3922 2.23125ZM7.49532 8.25C7.49532 7.42031 6.825 6.75 5.99532 6.75C5.16563 6.75 4.49532 7.42031 4.49532 8.25V10.5C2.84063 10.5 1.49532 11.8453 1.49532 13.5V16.8281C1.88438 17.0719 2.34375 17.25 2.84532 17.25C3.47813 17.25 4.12032 16.9641 4.64532 16.6219C4.89844 16.4578 5.10938 16.2891 5.25469 16.1672C5.325 16.1062 5.38125 16.0547 5.41875 16.0219L5.45625 15.9844L5.46094 15.9797C5.60625 15.8297 5.80782 15.75 6.01875 15.7547C6.22969 15.7594 6.42188 15.8531 6.5625 16.0078L6.56719 16.0125L6.6 16.0453C6.63282 16.0781 6.67969 16.125 6.74532 16.1859C6.87657 16.3078 7.06407 16.4719 7.29844 16.6312C7.77657 16.9641 8.37657 17.2453 9 17.2453C9.62344 17.2453 10.2234 16.9641 10.7016 16.6312C10.9359 16.4672 11.1234 16.3078 11.2547 16.1859C11.3203 16.125 11.3672 16.0781 11.4 16.0453L11.4328 16.0125L11.4375 16.0078C11.5781 15.8438 11.7844 15.7547 12 15.7547C12.2156 15.7547 12.4219 15.8484 12.5625 16.0078L12.5672 16.0125L12.6 16.0453C12.6328 16.0781 12.6797 16.125 12.7453 16.1859C12.8766 16.3078 13.0641 16.4719 13.2984 16.6312C13.7766 16.9641 14.3766 17.2453 15 17.2453C15.6234 17.2453 16.2234 16.9641 16.7016 16.6312C16.9359 16.4672 17.1234 16.3078 17.2547 16.1859C17.3203 16.125 17.3672 16.0781 17.4 16.0453L17.4328 16.0125L17.4375 16.0078C17.5734 15.8484 17.7703 15.7594 17.9813 15.7547C18.1922 15.75 18.3891 15.8297 18.5391 15.9797L18.5438 15.9844L18.5813 16.0219C18.6188 16.0547 18.6703 16.1062 18.7453 16.1672C18.8906 16.2891 19.0969 16.4578 19.3547 16.6219C19.8797 16.9641 20.5219 17.25 21.1547 17.25C21.6563 17.25 22.1156 17.0672 22.5047 16.8281V13.5C22.5047 11.8453 21.1594 10.5 19.5047 10.5V8.25C19.5047 7.42031 18.8344 6.75 18.0047 6.75C17.175 6.75 16.5047 7.42031 16.5047 8.25V10.5H13.5047V8.25C13.5047 7.42031 12.8344 6.75 12.0047 6.75C11.175 6.75 10.5047 7.42031 10.5047 8.25V10.5H7.50469V8.25H7.49532ZM22.4953 18.4969C22.0969 18.6516 21.6422 18.75 21.1453 18.75C20.0906 18.75 19.1578 18.2859 18.5297 17.8781C18.3375 17.7516 18.1641 17.625 18.0188 17.5125C17.8875 17.625 17.7328 17.7469 17.5594 17.8641C16.9547 18.2813 16.0547 18.75 14.9953 18.75C13.9359 18.75 13.0359 18.2813 12.4359 17.8641C12.2719 17.7516 12.1219 17.6344 11.9953 17.5266C11.8688 17.6344 11.7188 17.7469 11.5547 17.8641C10.9547 18.2813 10.0547 18.75 8.99532 18.75C7.93594 18.75 7.03594 18.2813 6.43594 17.8641C6.2625 17.7422 6.10782 17.6203 5.97657 17.5125C5.83125 17.625 5.65782 17.7516 5.46563 17.8781C4.83282 18.2859 3.9 18.75 2.84532 18.75C2.34844 18.75 1.89375 18.6469 1.49532 18.4969V22.5C1.49532 23.3297 2.16563 24 2.99532 24H20.9953C21.825 24 22.4953 23.3297 22.4953 22.5V18.4969Z" fill="black"/>
</svg>
