<svg width="24" height="24" viewBox="0 0 24 24" fill="none" xmlns="http://www.w3.org/2000/svg">
<path d="M23.1429 2.57141H0.857143C0.383036 2.57141 0 2.95445 0 3.42855V20.5714C0 21.0455 0.383036 21.4286 0.857143 21.4286H23.1429C23.617 21.4286 24 21.0455 24 20.5714V3.42855C24 2.95445 23.617 2.57141 23.1429 2.57141ZM20.9786 5.48838L12.5277 12.0643C12.3188 12.2277 12.0268 12.2277 11.8179 12.0643L3.36429 5.48838C3.33242 5.46378 3.30905 5.42983 3.29744 5.39129C3.28584 5.35275 3.28659 5.31154 3.29958 5.27344C3.31258 5.23534 3.33717 5.20226 3.3699 5.17884C3.40264 5.15542 3.44189 5.14283 3.48214 5.14284H20.8607C20.901 5.14283 20.9402 5.15542 20.973 5.17884C21.0057 5.20226 21.0303 5.23534 21.0433 5.27344C21.0563 5.31154 21.057 5.35275 21.0454 5.39129C21.0338 5.42983 21.0104 5.46378 20.9786 5.48838Z" fill="black"/>
</svg>
