<svg width="24" height="24" viewBox="0 0 24 24" fill="none" xmlns="http://www.w3.org/2000/svg">
<g clip-path="url(#clip0_358_2616)">
<path d="M23.0606 15.0506L21.306 13.5505C21.389 13.0415 21.4319 12.5219 21.4319 12.0022C21.4319 11.4825 21.389 10.9628 21.306 10.4539L23.0606 8.95375C23.1929 8.84045 23.2877 8.68956 23.3322 8.52112C23.3767 8.35269 23.3688 8.1747 23.3097 8.01082L23.2856 7.94118C22.8026 6.59115 22.0793 5.33966 21.1506 4.24717L21.1024 4.19092C20.9898 4.05846 20.8396 3.96324 20.6718 3.91781C20.5039 3.87238 20.3263 3.87887 20.1622 3.93643L17.9843 4.71059C17.1807 4.05162 16.2833 3.53194 15.3136 3.16763L14.8931 0.890687C14.8613 0.719359 14.7782 0.561742 14.6548 0.438775C14.5313 0.315807 14.3734 0.233311 14.2019 0.202246L14.1296 0.188852C12.734 -0.0629508 11.266 -0.0629508 9.87039 0.188852L9.79807 0.202246C9.62662 0.233311 9.46868 0.315807 9.34523 0.438775C9.22179 0.561742 9.13868 0.719359 9.10695 0.890687L8.6837 3.17835C7.72173 3.54273 6.8259 4.06214 6.03173 4.71595L3.83783 3.93643C3.6738 3.87842 3.496 3.87169 3.32805 3.91715C3.1601 3.9626 3.00997 4.05809 2.89759 4.19092L2.84937 4.24717C1.92184 5.34043 1.19865 6.59172 0.7144 7.94118L0.690291 8.01082C0.569747 8.34567 0.668861 8.72069 0.939415 8.95375L2.71543 10.4699C2.63239 10.9735 2.59221 11.4879 2.59221 11.9995C2.59221 12.5138 2.63239 13.0281 2.71543 13.5291L0.939415 15.0452C0.807073 15.1585 0.712354 15.3094 0.667854 15.4779C0.623353 15.6463 0.631179 15.8243 0.690291 15.9882L0.7144 16.0578C1.19925 17.4079 1.91716 18.6535 2.84937 19.7518L2.89759 19.8081C3.01024 19.9405 3.16038 20.0357 3.32823 20.0812C3.49608 20.1266 3.67375 20.1201 3.83783 20.0626L6.03173 19.283C6.83 19.9393 7.72203 20.459 8.6837 20.8206L9.10695 23.1083C9.13868 23.2796 9.22179 23.4372 9.34523 23.5602C9.46868 23.6832 9.62662 23.7657 9.79807 23.7967L9.87039 23.8101C11.2788 24.0633 12.7212 24.0633 14.1296 23.8101L14.2019 23.7967C14.3734 23.7657 14.5313 23.6832 14.6548 23.5602C14.7782 23.4372 14.8613 23.2796 14.8931 23.1083L15.3136 20.8314C16.2829 20.468 17.1854 19.9466 17.9843 19.2884L20.1622 20.0626C20.3262 20.1206 20.504 20.1273 20.672 20.0818C20.8399 20.0364 20.99 19.9409 21.1024 19.8081L21.1506 19.7518C22.0828 18.6508 22.8008 17.4079 23.2856 16.0578L23.3097 15.9882C23.4303 15.6587 23.3311 15.2837 23.0606 15.0506ZM19.4041 10.7699C19.4711 11.1744 19.5059 11.5896 19.5059 12.0049C19.5059 12.4201 19.4711 12.8353 19.4041 13.2398L19.2273 14.3139L21.2283 16.0257C20.925 16.7245 20.5421 17.3861 20.0872 17.9972L17.6013 17.1159L16.7602 17.807C16.1199 18.3321 15.4074 18.7446 14.6359 19.0339L13.6153 19.417L13.1358 22.0154C12.3792 22.1011 11.6154 22.1011 10.8589 22.0154L10.3794 19.4116L9.36679 19.0232C8.60334 18.7339 7.89347 18.3214 7.2586 17.799L6.41747 17.1052L3.91551 17.9946C3.46013 17.3811 3.07974 16.7195 2.77436 16.023L4.79683 14.2952L4.62271 13.2237C4.55842 12.8246 4.52359 12.412 4.52359 12.0049C4.52359 11.595 4.55574 11.1852 4.62271 10.786L4.79683 9.71451L2.77436 7.98671C3.07706 7.28756 3.46013 6.62858 3.91551 6.01515L6.41747 6.9045L7.2586 6.2107C7.89347 5.68834 8.60334 5.27581 9.36679 4.98651L10.382 4.60344L10.8615 1.99969C11.6143 1.91397 12.3831 1.91397 13.1385 1.99969L13.618 4.59809L14.6386 4.98115C15.4074 5.27046 16.1226 5.68298 16.7628 6.20802L17.604 6.89914L20.0899 6.01783C20.5452 6.63126 20.9256 7.29292 21.231 7.98939L19.23 9.70112L19.4041 10.7699ZM12.0027 7.02236C9.39893 7.02236 7.28807 9.13322 7.28807 11.737C7.28807 14.3407 9.39893 16.4516 12.0027 16.4516C14.6064 16.4516 16.7173 14.3407 16.7173 11.737C16.7173 9.13322 14.6064 7.02236 12.0027 7.02236ZM14.1243 13.8586C13.846 14.1376 13.5153 14.3589 13.1512 14.5097C12.7871 14.6605 12.3968 14.7378 12.0027 14.7372C11.2017 14.7372 10.449 14.4238 9.88111 13.8586C9.60204 13.5803 9.38075 13.2496 9.22996 12.8855C9.07917 12.5214 9.00186 12.1311 9.00247 11.737C9.00247 10.936 9.31589 10.1833 9.88111 9.6154C10.449 9.0475 11.2017 8.73677 12.0027 8.73677C12.8036 8.73677 13.5564 9.0475 14.1243 9.6154C14.4033 9.89366 14.6246 10.2244 14.7754 10.5885C14.9262 10.9526 15.0035 11.3429 15.0029 11.737C15.0029 12.5379 14.6895 13.2907 14.1243 13.8586Z" fill="black"/>
</g>
<defs>
<clipPath id="clip0_358_2616">
<rect width="24" height="24" fill="white"/>
</clipPath>
</defs>
</svg>
