<svg width="24" height="24" viewBox="0 0 24 24" fill="none" xmlns="http://www.w3.org/2000/svg">
<path d="M14.3906 1.63174C13.8516 1.8708 13.5 2.40986 13.5 3.00049V6.00049H8.25C3.69375 6.00049 0 9.69424 0 14.2505C0 19.5614 3.82031 21.9333 4.69687 22.4114C4.81406 22.477 4.94531 22.5005 5.07656 22.5005C5.5875 22.5005 6 22.0833 6 21.577C6 21.2255 5.79844 20.902 5.54062 20.663C5.1 20.2458 4.5 19.4255 4.5 18.0005C4.5 15.5161 6.51562 13.5005 9 13.5005H13.5V16.5005C13.5 17.0911 13.8469 17.6302 14.3906 17.8692C14.9344 18.1083 15.5625 18.0099 16.0031 17.6161L23.5031 10.8661C23.8172 10.5802 24 10.177 24 9.75049C24 9.32392 23.8172 8.9208 23.5031 8.63486L16.0031 1.88486C15.5625 1.48642 14.9297 1.38799 14.3906 1.63174Z" fill="black"/>
</svg>
