<svg width="24" height="24" viewBox="0 0 24 24" fill="none" xmlns="http://www.w3.org/2000/svg">
<g clip-path="url(#clip0_356_2519)">
<path d="M12.0703 1.30624L12.0713 1.30721C12.0861 1.31452 12.0997 1.324 12.1113 1.33553L12.1406 1.37655L15.3574 7.89706L15.5312 8.25057L15.9219 8.30721L23.1143 9.35213V9.35311C23.2074 9.36706 23.2597 9.44894 23.248 9.52499L23.2471 9.53378C23.2425 9.56508 23.2274 9.59535 23.2021 9.62069L17.9971 14.6959L17.7148 14.9713L17.7812 15.3599L19.0107 22.5269C19.0251 22.61 18.9695 22.6917 18.8828 22.7066H18.8311C18.8153 22.7041 18.8005 22.6995 18.7881 22.693L18.7842 22.691L12.3486 19.3072L12 19.1236L11.6514 19.3072L5.21582 22.691H5.21484C5.18917 22.7046 5.15982 22.7106 5.13086 22.7086C5.10196 22.7065 5.07423 22.6963 5.05078 22.6793C5.02748 22.6623 5.00895 22.6396 4.99805 22.6129C4.98717 22.5861 4.98439 22.5564 4.98926 22.5279V22.5269L6.21875 15.3599L6.28516 14.9713L6.00293 14.6959L0.797852 9.62069C0.768029 9.59153 0.750664 9.55203 0.75 9.51034C0.749449 9.46874 0.765138 9.42801 0.793945 9.39803C0.819402 9.37257 0.850331 9.35761 0.881836 9.35311H0.883789L8.07812 8.30721L8.46875 8.25057L8.64355 7.89706L11.8574 1.38046C11.8978 1.2997 11.995 1.26924 12.0703 1.30624Z" stroke="black" stroke-width="1.5"/>
</g>
<defs>
<clipPath id="clip0_356_2519">
<rect width="24" height="24" fill="white"/>
</clipPath>
</defs>
</svg>
