<svg width="24" height="24" viewBox="0 0 24 24" fill="none" xmlns="http://www.w3.org/2000/svg">
<path d="M4.66667 6.33333C5.58714 6.33333 6.33333 5.58714 6.33333 4.66667C6.33333 3.74619 5.58714 3 4.66667 3C3.74619 3 3 3.74619 3 4.66667C3 5.58714 3.74619 6.33333 4.66667 6.33333Z" fill="black"/>
<path d="M12 6.33333C12.9205 6.33333 13.6667 5.58714 13.6667 4.66667C13.6667 3.74619 12.9205 3 12 3C11.0795 3 10.3333 3.74619 10.3333 4.66667C10.3333 5.58714 11.0795 6.33333 12 6.33333Z" fill="black"/>
<path d="M19.3333 6.33333C20.2538 6.33333 21 5.58714 21 4.66667C21 3.74619 20.2538 3 19.3333 3C18.4129 3 17.6667 3.74619 17.6667 4.66667C17.6667 5.58714 18.4129 6.33333 19.3333 6.33333Z" fill="black"/>
<path d="M4.66667 13.6667C5.58714 13.6667 6.33333 12.9205 6.33333 12C6.33333 11.0795 5.58714 10.3333 4.66667 10.3333C3.74619 10.3333 3 11.0795 3 12C3 12.9205 3.74619 13.6667 4.66667 13.6667Z" fill="black"/>
<path d="M12 13.6667C12.9205 13.6667 13.6667 12.9205 13.6667 12C13.6667 11.0795 12.9205 10.3333 12 10.3333C11.0795 10.3333 10.3333 11.0795 10.3333 12C10.3333 12.9205 11.0795 13.6667 12 13.6667Z" fill="black"/>
<path d="M19.3333 13.6667C20.2538 13.6667 21 12.9205 21 12C21 11.0795 20.2538 10.3333 19.3333 10.3333C18.4129 10.3333 17.6667 11.0795 17.6667 12C17.6667 12.9205 18.4129 13.6667 19.3333 13.6667Z" fill="black"/>
<path d="M4.66667 21C5.58714 21 6.33333 20.2538 6.33333 19.3333C6.33333 18.4128 5.58714 17.6667 4.66667 17.6667C3.74619 17.6667 3 18.4128 3 19.3333C3 20.2538 3.74619 21 4.66667 21Z" fill="black"/>
<path d="M12 21C12.9205 21 13.6667 20.2538 13.6667 19.3333C13.6667 18.4128 12.9205 17.6667 12 17.6667C11.0795 17.6667 10.3333 18.4128 10.3333 19.3333C10.3333 20.2538 11.0795 21 12 21Z" fill="black"/>
<path d="M19.3333 21C20.2538 21 21 20.2538 21 19.3333C21 18.4128 20.2538 17.6667 19.3333 17.6667C18.4129 17.6667 17.6667 18.4128 17.6667 19.3333C17.6667 20.2538 18.4129 21 19.3333 21Z" fill="black"/>
</svg>
