<svg width="24" height="24" viewBox="0 0 24 24" fill="none" xmlns="http://www.w3.org/2000/svg">
<path d="M3.10633 19.428C2.57514 19.428 2.15991 19.3026 1.86065 19.0518C1.56139 18.8009 1.41176 18.4665 1.41176 18.0485C1.41176 17.6684 1.52024 17.2998 1.73721 16.9425C1.95417 16.5853 2.2235 16.2356 2.54521 15.8936C2.8744 15.5515 3.19984 15.2095 3.52155 14.8675C3.76844 14.609 3.95922 14.2708 4.09389 13.8527C4.23604 13.4347 4.34078 12.99 4.40811 12.5188C4.47545 12.0475 4.52408 11.5914 4.554 11.1506C4.57645 9.69121 4.72982 8.39145 5.01412 7.25131C5.29841 6.11116 5.74356 5.15344 6.34957 4.37815C6.96305 3.60285 7.76732 3.03278 8.76236 2.66793C8.97185 1.92304 9.35714 1.29216 9.91826 0.775297C10.4794 0.258432 11.1714 0 11.9944 0C12.8248 0 13.5206 0.258432 14.0817 0.775297C14.6428 1.29216 15.0281 1.92304 15.2376 2.66793C16.2327 3.03278 17.0332 3.60285 17.6392 4.37815C18.2452 5.15344 18.6904 6.11116 18.9747 7.25131C19.2664 8.39145 19.4235 9.69121 19.446 11.1506C19.4759 11.5914 19.5245 12.0475 19.5919 12.5188C19.6592 12.99 19.7602 13.4347 19.8949 13.8527C20.037 14.2708 20.2315 14.609 20.4784 14.8675C20.8001 15.2095 21.1219 15.5515 21.4436 15.8936C21.7727 16.2356 22.0458 16.5853 22.2628 16.9425C22.4797 17.2998 22.5882 17.6684 22.5882 18.0485C22.5882 18.4665 22.4386 18.8009 22.1393 19.0518C21.8401 19.3026 21.4249 19.428 20.8937 19.428H3.10633ZM11.9944 24C11.3659 24 10.8011 23.8594 10.2998 23.5781C9.79855 23.2969 9.39455 22.9283 9.08781 22.4722C8.78107 22.0162 8.60525 21.5221 8.56036 20.99H15.4396C15.3873 21.5221 15.2077 22.0162 14.901 22.4722C14.6017 22.9283 14.2014 23.2969 13.7002 23.5781C13.1989 23.8594 12.6303 24 11.9944 24Z" fill="black"/>
</svg>
