<svg width="24" height="24" viewBox="0 0 24 24" fill="none" xmlns="http://www.w3.org/2000/svg">
<g clip-path="url(#clip0_356_2517)">
<path d="M23.2243 8.61097L16.0296 7.56533L12.8133 1.04502C12.7255 0.866496 12.581 0.721978 12.4024 0.634133C11.9547 0.413106 11.4106 0.597296 11.1868 1.04502L7.97055 7.56533L0.77582 8.61097C0.577461 8.6393 0.396105 8.73281 0.257255 8.8745C0.0893918 9.04703 -0.0031083 9.27915 7.97568e-05 9.51985C0.00326781 9.76055 0.101883 9.99013 0.274257 10.1582L5.47974 15.2333L4.24992 22.3997C4.22108 22.5664 4.23953 22.7378 4.30317 22.8946C4.36681 23.0514 4.47311 23.1871 4.60999 23.2866C4.74688 23.386 4.90889 23.4451 5.07764 23.4571C5.24639 23.4691 5.41514 23.4336 5.56475 23.3546L12.0001 19.9712L18.4354 23.3546C18.6111 23.4482 18.8151 23.4793 19.0106 23.4453C19.5037 23.3603 19.8352 22.8928 19.7502 22.3997L18.5204 15.2333L23.7259 10.1582C23.8675 10.0193 23.9611 9.83795 23.9894 9.63959C24.0659 9.1437 23.7202 8.68464 23.2243 8.61097Z" fill="black"/>
</g>
<defs>
<clipPath id="clip0_356_2517">
<rect width="24" height="24" fill="white"/>
</clipPath>
</defs>
</svg>
