<svg width="24" height="24" viewBox="0 0 24 24" fill="none" xmlns="http://www.w3.org/2000/svg">
<path d="M23.7821 9.27488H16.8082C16.6883 9.27488 16.5903 9.37295 16.5903 9.49282V10.8004C16.5903 10.9203 16.6883 11.0184 16.8082 11.0184H23.7821C23.9019 11.0184 24 10.9203 24 10.8004V9.49282C24 9.37295 23.9019 9.27488 23.7821 9.27488ZM20.1317 12.9798H16.8082C16.6883 12.9798 16.5903 13.0778 16.5903 13.1977V14.5053C16.5903 14.6252 16.6883 14.7232 16.8082 14.7232H20.1317C20.2516 14.7232 20.3496 14.6252 20.3496 14.5053V13.1977C20.3496 13.0778 20.2516 12.9798 20.1317 12.9798ZM11.0411 6.83675H9.86155C9.69265 6.83675 9.55644 6.97296 9.55644 7.14185V13.8978C9.55644 13.9959 9.60275 14.0858 9.68175 14.143L13.738 17.1014C13.8743 17.1995 14.065 17.1723 14.163 17.0361L14.8631 16.0799V16.0771C14.9612 15.9409 14.9312 15.7502 14.795 15.6522L11.3435 13.1568V7.14185C11.3462 6.97296 11.2073 6.83675 11.0411 6.83675Z" fill="black"/>
<path d="M19.9628 16.4095H18.3882C18.2356 16.4095 18.0913 16.4885 18.0095 16.6193C17.663 17.1685 17.2565 17.6774 16.7973 18.1366C16.0067 18.9298 15.0694 19.5617 14.0377 19.9972C12.9671 20.4494 11.8311 20.6783 10.6597 20.6783C9.48559 20.6783 8.34961 20.4494 7.28174 19.9972C6.24927 19.5614 5.32033 18.9348 4.52215 18.1366C3.72397 17.3384 3.0974 16.4095 2.66154 15.377C2.20932 14.3092 1.98049 13.1732 1.98049 11.9991C1.98049 10.8249 2.20932 9.69168 2.66154 8.62108C3.0974 7.58862 3.72397 6.65967 4.52215 5.86149C5.32033 5.06331 6.24927 4.43675 7.28174 4.00088C8.34961 3.54867 9.48832 3.31984 10.6597 3.31984C11.8338 3.31984 12.9698 3.54867 14.0377 4.00088C15.0702 4.43675 15.9991 5.06331 16.7973 5.86149C17.2565 6.3207 17.663 6.82962 18.0095 7.37886C18.0913 7.50962 18.2356 7.58862 18.3882 7.58862H19.9628C20.1507 7.58862 20.2706 7.39248 20.1862 7.2263C18.41 3.69305 14.8086 1.39657 10.7877 1.35026C4.90081 1.2767 0.0109153 6.09577 1.8611e-05 11.9773C-0.0108781 17.8697 4.7646 22.6506 10.657 22.6506C14.7296 22.6506 18.3909 20.3459 20.1862 16.7718C20.2053 16.7337 20.2144 16.6913 20.2125 16.6487C20.2107 16.6061 20.1979 16.5646 20.1755 16.5283C20.1532 16.492 20.1219 16.462 20.0846 16.4412C20.0474 16.4204 20.0054 16.4095 19.9628 16.4095Z" fill="black"/>
</svg>
