<svg width="24" height="24" viewBox="0 0 24 24" fill="none" xmlns="http://www.w3.org/2000/svg">
<rect width="24" height="24" rx="12" fill="black"/>
<path d="M19.4829 9.74065L14.6864 9.04356L12.5422 4.69668C12.4837 4.57767 12.3873 4.48132 12.2683 4.42276C11.9698 4.27541 11.6071 4.3982 11.4579 4.69668L9.3137 9.04356L4.51721 9.74065C4.38497 9.75954 4.26407 9.82188 4.1715 9.91634C4.05959 10.0314 3.99793 10.1861 4.00005 10.3466C4.00218 10.507 4.06792 10.6601 4.18284 10.7721L7.65316 14.1555L6.83328 18.9331C6.81405 19.0443 6.82635 19.1586 6.86878 19.2631C6.91121 19.3676 6.98207 19.4581 7.07333 19.5244C7.16459 19.5907 7.27259 19.63 7.38509 19.6381C7.4976 19.6461 7.6101 19.6224 7.70983 19.5698L12 17.3142L16.2902 19.5698C16.4074 19.6321 16.5434 19.6529 16.6737 19.6302C17.0024 19.5735 17.2235 19.2618 17.1668 18.9331L16.3469 14.1555L19.8172 10.7721C19.9117 10.6795 19.974 10.5586 19.9929 10.4264C20.0439 10.0958 19.8135 9.78977 19.4829 9.74065Z" fill="white"/>
</svg>
