<svg width="24" height="24" viewBox="0 0 24 24" fill="none" xmlns="http://www.w3.org/2000/svg">
<g clip-path="url(#clip0_356_2548)">
<path d="M23.5033 11.8143L12.5988 0.917801C12.5203 0.839132 12.427 0.776719 12.3244 0.734135C12.2217 0.691551 12.1116 0.669632 12.0005 0.669632C11.8894 0.669632 11.7793 0.691551 11.6766 0.734135C11.574 0.776719 11.4807 0.839132 11.4022 0.917801L0.497704 11.8143C0.180021 12.132 0 12.5635 0 13.0136C0 13.9481 0.759793 14.7079 1.69431 14.7079H2.84327V22.4832C2.84327 22.9518 3.22184 23.3304 3.69042 23.3304H10.3062V17.4003H13.2712V23.3304H20.3106C20.7792 23.3304 21.1577 22.9518 21.1577 22.4832V14.7079H22.3067C22.7567 14.7079 23.1883 14.5305 23.5059 14.2102C24.1651 13.5484 24.1651 12.4762 23.5033 11.8143Z" fill="black"/>
</g>
<defs>
<clipPath id="clip0_356_2548">
<rect width="24" height="24" fill="white"/>
</clipPath>
</defs>
</svg>
