<svg width="24" height="24" viewBox="0 0 24 24" fill="none" xmlns="http://www.w3.org/2000/svg">
<path d="M23.1429 2.57143H0.857143C0.383036 2.57143 0 2.95446 0 3.42857V20.5714C0 21.0455 0.383036 21.4286 0.857143 21.4286H23.1429C23.617 21.4286 24 21.0455 24 20.5714V3.42857C24 2.95446 23.617 2.57143 23.1429 2.57143ZM20.9786 5.48839L12.5277 12.0643C12.3188 12.2277 12.0268 12.2277 11.8179 12.0643L3.36429 5.48839C3.33242 5.4638 3.30905 5.42985 3.29744 5.39131C3.28584 5.35276 3.28659 5.31155 3.29958 5.27345C3.31258 5.23536 3.33717 5.20228 3.3699 5.17886C3.40264 5.15544 3.44189 5.14285 3.48214 5.14285H20.8607C20.901 5.14285 20.9402 5.15544 20.973 5.17886C21.0057 5.20228 21.0303 5.23536 21.0433 5.27345C21.0563 5.31155 21.057 5.35276 21.0454 5.39131C21.0338 5.42985 21.0104 5.4638 20.9786 5.48839Z" fill="black"/>
</svg>
