<svg width="24" height="24" viewBox="0 0 24 24" fill="none" xmlns="http://www.w3.org/2000/svg">
<path d="M18.748 3.57959C17.5729 2.40446 15.6657 2.40446 14.4905 3.57959L5.62886 12.4413C3.60127 14.4689 3.60127 17.7535 5.62886 19.7811C7.65645 21.8087 10.9411 21.8087 12.9686 19.7811L20.2892 12.4605C20.8141 11.9356 21.6714 11.9356 22.1964 12.4605C22.7213 12.9855 22.7213 13.8428 22.1964 14.3677L14.8758 21.6883C11.7935 24.7706 6.804 24.7706 3.72167 21.6883C0.639346 18.6059 0.639346 13.6164 3.72167 10.5341L12.5834 1.6724C14.8132 -0.557468 18.4253 -0.557468 20.6552 1.6724C22.8851 3.90227 22.8851 7.51437 20.6552 9.74424L12.1788 18.2206C10.8014 19.5981 8.5667 19.5981 7.18929 18.2206C5.81187 16.8432 5.81187 14.6085 7.18929 13.2311L14.1245 6.29589C14.6495 5.77093 15.5068 5.77093 16.0317 6.29589C16.5567 6.82085 16.5567 7.67812 16.0317 8.20308L9.09648 15.1383C8.7738 15.461 8.7738 15.9908 9.09648 16.3135C9.41916 16.6361 9.94893 16.6361 10.2716 16.3135L18.748 7.83705C19.9231 6.66192 19.9231 4.75473 18.748 3.57959Z" fill="black"/>
</svg>
