<svg width="24" height="24" viewBox="0 0 24 24" fill="none" xmlns="http://www.w3.org/2000/svg">
<path d="M11.25 0H17.0672C17.6625 0 18.2344 0.239063 18.6562 0.660938L21.8391 3.84375C22.2609 4.26562 22.5 4.8375 22.5 5.43281V15.75C22.5 16.9922 21.4922 18 20.25 18H11.25C10.0078 18 9 16.9922 9 15.75V2.25C9 1.00781 10.0078 0 11.25 0ZM3.75 6H7.5V9H4.5V21H13.5V19.5H16.5V21.75C16.5 22.9922 15.4922 24 14.25 24H3.75C2.50781 24 1.5 22.9922 1.5 21.75V8.25C1.5 7.00781 2.50781 6 3.75 6Z" fill="black"/>
</svg>
