<svg width="24" height="24" viewBox="0 0 24 24" fill="none" xmlns="http://www.w3.org/2000/svg">
<path d="M9.60938 1.63174C10.1484 1.8708 10.5 2.40986 10.5 3.00049V6.00049H15.75C20.3062 6.00049 24 9.69424 24 14.2505C24 19.5614 20.1797 21.9333 19.3031 22.4114C19.1859 22.477 19.0547 22.5005 18.9234 22.5005C18.4125 22.5005 18 22.0833 18 21.577C18 21.2255 18.2016 20.902 18.4594 20.663C18.9 20.2505 19.5 19.4255 19.5 18.0052C19.5 15.5208 17.4844 13.5052 15 13.5052H10.5V16.5052C10.5 17.0958 10.1531 17.6349 9.60938 17.8739C9.06562 18.113 8.4375 18.0145 7.99688 17.6208L0.496875 10.8708C0.182813 10.5802 0 10.177 0 9.75049C0 9.32392 0.182813 8.9208 0.496875 8.63486L7.99688 1.88486C8.4375 1.48642 9.07031 1.38799 9.60938 1.63174Z" fill="black"/>
</svg>
