<svg width="24" height="24" viewBox="0 0 24 24" fill="none" xmlns="http://www.w3.org/2000/svg">
<g clip-path="url(#clip0_356_2600)">
<path d="M14.4455 7.05803L7.85625 11.8259C7.82887 11.8456 7.80657 11.8716 7.79119 11.9016C7.77581 11.9316 7.76779 11.9649 7.76779 11.9987C7.76779 12.0324 7.77581 12.0657 7.79119 12.0957C7.80657 12.1257 7.82887 12.1517 7.85625 12.1714L14.4455 16.9393C14.5875 17.0411 14.7857 16.9393 14.7857 16.7652V15.5089C14.7857 15.2357 14.6545 14.9759 14.4321 14.8152L10.5375 12L14.4321 9.18214C14.6545 9.02143 14.7857 8.76428 14.7857 8.48839V7.23214C14.7857 7.05803 14.5875 6.95625 14.4455 7.05803Z" fill="black"/>
<path d="M12 0C5.37321 0 0 5.37321 0 12C0 18.6268 5.37321 24 12 24C18.6268 24 24 18.6268 24 12C24 5.37321 18.6268 0 12 0ZM12 21.9643C6.49821 21.9643 2.03571 17.5018 2.03571 12C2.03571 6.49821 6.49821 2.03571 12 2.03571C17.5018 2.03571 21.9643 6.49821 21.9643 12C21.9643 17.5018 17.5018 21.9643 12 21.9643Z" fill="black"/>
</g>
<defs>
<clipPath id="clip0_356_2600">
<rect width="24" height="24" fill="white"/>
</clipPath>
</defs>
</svg>
