<svg width="24" height="24" viewBox="0 0 24 24" fill="none" xmlns="http://www.w3.org/2000/svg">
<g clip-path="url(#clip0_358_2619)">
<path d="M11 0H13C13.1778 0 13.2667 0.0888889 13.2667 0.266667V23.7333C13.2667 23.9111 13.1778 24 13 24H11C10.8222 24 10.7333 23.9111 10.7333 23.7333V0.266667C10.7333 0.0888889 10.8222 0 11 0Z" fill="black"/>
<path d="M1.33333 10.7333H23.7333C23.9111 10.7333 24 10.8222 24 11V13C24 13.1778 23.9111 13.2667 23.7333 13.2667H0.266667C0.0888889 13.2667 0 13.1778 0 13V11C0 10.8222 0.0888889 10.7333 0.266667 10.7333H1.33333Z" fill="black"/>
</g>
<defs>
<clipPath id="clip0_358_2619">
<rect width="24" height="24" fill="white"/>
</clipPath>
</defs>
</svg>
