<svg width="24" height="24" viewBox="0 0 24 24" fill="none" xmlns="http://www.w3.org/2000/svg">
<path d="M13.3333 2.6657C13.3333 2.2532 13.1458 1.8657 12.8208 1.6157C12.4958 1.3657 12.075 1.27403 11.675 1.37403L4.17917 3.24903C3.29167 3.46987 2.66667 4.26987 2.66667 5.18653V19.999H1.33333C0.595833 19.999 0 20.5949 0 21.3324C0 22.0699 0.595833 22.6657 1.33333 22.6657H4H12H13.3333V21.3324V2.6657ZM10.6667 11.999C10.6667 12.7365 10.2208 13.3324 9.66667 13.3324C9.1125 13.3324 8.66667 12.7365 8.66667 11.999C8.66667 11.2615 9.1125 10.6657 9.66667 10.6657C10.2208 10.6657 10.6667 11.2615 10.6667 11.999ZM14.6667 6.6657H18.6667V21.3324C18.6667 22.0699 19.2625 22.6657 20 22.6657H22.6667C23.4042 22.6657 24 22.0699 24 21.3324C24 20.5949 23.4042 19.999 22.6667 19.999H21.3333V6.6657C21.3333 5.19487 20.1375 3.99903 18.6667 3.99903H14.6667V6.6657Z" fill="black"/>
</svg>
