<svg width="24" height="24" viewBox="0 0 24 24" fill="none" xmlns="http://www.w3.org/2000/svg">
<g clip-path="url(#clip0_355_2491)">
<path d="M23.217 12.6334C23.721 11.9869 24 11.1948 24 10.3706C24 9.06299 23.247 7.82528 22.035 7.13507C21.723 6.95741 21.3677 6.8639 21.006 6.86423H13.812L13.992 3.28506C14.034 2.42011 13.719 1.59886 13.107 0.972718C12.8067 0.6641 12.4443 0.418552 12.0423 0.251249C11.6404 0.0839457 11.2073 -0.0015581 10.77 2.1493e-05C9.21 2.1493e-05 7.83 1.01931 7.416 2.47836L4.839 11.5355H4.83V24H18.999C19.275 24 19.545 23.9476 19.794 23.8427C21.222 23.2515 22.143 21.8973 22.143 20.3946C22.143 20.0277 22.089 19.6665 21.981 19.3171C22.485 18.6706 22.764 17.8784 22.764 17.0542C22.764 16.6873 22.71 16.3262 22.602 15.9767C23.106 15.3302 23.385 14.5381 23.385 13.7139C23.379 13.3469 23.325 12.9829 23.217 12.6334ZM0 12.4674V23.0681C0 23.5835 0.429 24 0.96 24H2.91V11.5355H0.96C0.429 11.5355 0 11.952 0 12.4674Z" fill="black"/>
</g>
<defs>
<clipPath id="clip0_355_2491">
<rect width="24" height="24" fill="white"/>
</clipPath>
</defs>
</svg>
