<svg width="24" height="24" viewBox="0 0 24 24" fill="none" xmlns="http://www.w3.org/2000/svg">
<g clip-path="url(#clip0_358_2633)">
<path d="M12 0C5.37321 0 0 5.37321 0 12C0 18.6268 5.37321 24 12 24C18.6268 24 24 18.6268 24 12C24 5.37321 18.6268 0 12 0ZM12 21.9643C6.49821 21.9643 2.03571 17.5018 2.03571 12C2.03571 6.49821 6.49821 2.03571 12 2.03571C17.5018 2.03571 21.9643 6.49821 21.9643 12C21.9643 17.5018 17.5018 21.9643 12 21.9643Z" fill="black"/>
<path d="M14.9893 6.76877C14.1857 6.0643 13.125 5.67859 12 5.67859C10.875 5.67859 9.81429 6.06698 9.01072 6.76877C8.17501 7.50002 7.71429 8.48305 7.71429 9.53573V9.7393C7.71429 9.85716 7.81072 9.95359 7.92858 9.95359H9.21429C9.33215 9.95359 9.42858 9.85716 9.42858 9.7393V9.53573C9.42858 8.35448 10.583 7.39287 12 7.39287C13.417 7.39287 14.5714 8.35448 14.5714 9.53573C14.5714 10.3688 13.9822 11.1322 13.0688 11.4831C12.5009 11.7 12.0188 12.0804 11.6732 12.5786C11.3223 13.0875 11.1402 13.6982 11.1402 14.317V14.8929C11.1402 15.0107 11.2366 15.1072 11.3545 15.1072H12.6402C12.758 15.1072 12.8545 15.0107 12.8545 14.8929V14.2848C12.8559 14.0248 12.9356 13.7712 13.0832 13.5572C13.2309 13.3431 13.4396 13.1785 13.6822 13.0848C15.2625 12.4768 16.283 11.0839 16.283 9.53573C16.2857 8.48305 15.825 7.50002 14.9893 6.76877ZM10.9286 17.8929C10.9286 18.177 11.0415 18.4496 11.2424 18.6505C11.4433 18.8514 11.7158 18.9643 12 18.9643C12.2842 18.9643 12.5567 18.8514 12.7576 18.6505C12.9586 18.4496 13.0714 18.177 13.0714 17.8929C13.0714 17.6087 12.9586 17.3362 12.7576 17.1353C12.5567 16.9343 12.2842 16.8214 12 16.8214C11.7158 16.8214 11.4433 16.9343 11.2424 17.1353C11.0415 17.3362 10.9286 17.6087 10.9286 17.8929Z" fill="black"/>
</g>
<defs>
<clipPath id="clip0_358_2633">
<rect width="24" height="24" fill="white"/>
</clipPath>
</defs>
</svg>
