<svg width="24" height="24" viewBox="0 0 24 24" fill="none" xmlns="http://www.w3.org/2000/svg">
<g clip-path="url(#clip0_358_2630)">
<path d="M0 15.6684C0 15.0771 0.147836 14.5365 0.443508 14.0465C0.73918 13.5481 1.132 13.151 1.62196 12.8554C2.11195 12.5597 2.65681 12.4119 3.25662 12.4119C3.8564 12.4119 4.40127 12.5597 4.89125 12.8554C5.38967 13.151 5.78671 13.5481 6.08238 14.0465C6.37805 14.5365 6.52589 15.0771 6.52589 15.6684C6.52589 16.2682 6.37805 16.8173 6.08238 17.3157C5.78671 17.8057 5.38967 18.1985 4.89125 18.4942C4.40127 18.7815 3.8564 18.925 3.25662 18.925C2.65681 18.925 2.11195 18.7815 1.62196 18.4942C1.132 18.1985 0.73918 17.8057 0.443508 17.3157C0.147836 16.8173 0 16.2682 0 15.6684ZM1.71067 15.6684C1.71067 16.1163 1.86273 16.4879 2.16685 16.7835C2.47097 17.0792 2.83844 17.227 3.26928 17.227C3.70011 17.227 4.0676 17.0792 4.37172 16.7835C4.67584 16.4879 4.82788 16.1163 4.82788 15.6684C4.82788 15.2376 4.67584 14.8744 4.37172 14.5787C4.0676 14.2746 3.70011 14.1225 3.26928 14.1225C2.83844 14.1225 2.47097 14.2746 2.16685 14.5787C1.86273 14.8744 1.71067 15.2376 1.71067 15.6684ZM3.26928 0.487854C3.59874 0.487854 3.88174 0.606115 4.11827 0.842663C4.35482 1.07074 4.47309 1.35374 4.47309 1.69165V13.4636H2.05281V1.69165C2.05281 1.35374 2.17107 1.07074 2.40761 0.842663C2.6526 0.606115 2.93981 0.487854 3.26928 0.487854ZM3.26928 23.5121C2.93981 23.5121 2.6526 23.3981 2.40761 23.17C2.17107 22.942 2.05281 22.6716 2.05281 22.3591V18.0253H4.47309V22.3591C4.47309 22.6716 4.35482 22.942 4.11827 23.17C3.88174 23.3981 3.59874 23.5121 3.26928 23.5121ZM8.73076 8.19221C8.73076 7.59242 8.87859 7.04753 9.17425 6.55755C9.47837 6.06759 9.87541 5.67477 10.3654 5.3791C10.8638 5.08343 11.4087 4.93559 12 4.93559C12.5998 4.93559 13.1447 5.08343 13.6347 5.3791C14.1331 5.67477 14.5259 6.06759 14.8131 6.55755C15.1088 7.04753 15.2566 7.59242 15.2566 8.19221C15.2566 8.79199 15.1088 9.34109 14.8131 9.83951C14.5259 10.3295 14.1331 10.7223 13.6347 11.018C13.1447 11.3052 12.5998 11.4488 12 11.4488C11.4087 11.4488 10.8638 11.301 10.3654 11.0053C9.87541 10.7096 9.47837 10.3168 9.17425 9.82684C8.87859 9.33688 8.73076 8.79199 8.73076 8.19221ZM10.4541 8.19221C10.4541 8.63148 10.6019 9.00319 10.8976 9.30731C11.2017 9.60298 11.5692 9.75082 12 9.75082C12.4393 9.75082 12.8068 9.60298 13.1025 9.30731C13.4066 9.00319 13.5586 8.63148 13.5586 8.19221C13.5586 7.76136 13.4066 7.39389 13.1025 7.08977C12.8068 6.78565 12.4393 6.63359 12 6.63359C11.5692 6.63359 11.2017 6.78565 10.8976 7.08977C10.6019 7.39389 10.4541 7.76136 10.4541 8.19221ZM12 0.487854C12.3379 0.487854 12.6252 0.601898 12.8617 0.829995C13.0982 1.05808 13.2165 1.32841 13.2165 1.64098V5.88596H10.7962V1.64098C10.7962 1.32841 10.9145 1.05808 11.151 0.829995C11.3876 0.601898 11.6706 0.487854 12 0.487854ZM12 23.5121C11.6706 23.5121 11.3876 23.3939 11.151 23.1574C10.9145 22.9293 10.7962 22.6463 10.7962 22.3085V10.3717H13.2165V22.3085C13.2165 22.6463 13.0982 22.9293 12.8617 23.1574C12.6252 23.3939 12.3379 23.5121 12 23.5121ZM17.4868 15.6684C17.4868 15.0771 17.6347 14.5365 17.9303 14.0465C18.226 13.5481 18.6188 13.151 19.1088 12.8554C19.5988 12.5597 20.1436 12.4119 20.7434 12.4119C21.3432 12.4119 21.8882 12.5597 22.378 12.8554C22.8765 13.151 23.2693 13.5481 23.5566 14.0465C23.8522 14.5365 24 15.0771 24 15.6684C24 16.2682 23.8522 16.8173 23.5566 17.3157C23.2693 17.8057 22.8765 18.1985 22.378 18.4942C21.8882 18.7815 21.3432 18.925 20.7434 18.925C20.1436 18.925 19.5988 18.7815 19.1088 18.4942C18.6188 18.1985 18.226 17.8057 17.9303 17.3157C17.6347 16.8173 17.4868 16.2682 17.4868 15.6684ZM19.1975 15.6684C19.1975 16.1163 19.3453 16.4879 19.641 16.7835C19.9451 17.0792 20.3126 17.227 20.7434 17.227C21.1912 17.227 21.5628 17.0792 21.8585 16.7835C22.1542 16.4879 22.3021 16.1163 22.3021 15.6684C22.3021 15.2376 22.1542 14.8744 21.8585 14.5787C21.5628 14.2746 21.1912 14.1225 20.7434 14.1225C20.3126 14.1225 19.9451 14.2746 19.641 14.5787C19.3453 14.8744 19.1975 15.2376 19.1975 15.6684ZM20.7434 0.487854C21.073 0.487854 21.3559 0.606115 21.5925 0.842663C21.829 1.07074 21.9472 1.35374 21.9472 1.69165V13.5143H19.5396V1.69165C19.5396 1.35374 19.658 1.07074 19.8945 0.842663C20.131 0.606115 20.414 0.487854 20.7434 0.487854ZM20.7434 23.5121C20.414 23.5121 20.131 23.3981 19.8945 23.17C19.658 22.942 19.5396 22.6716 19.5396 22.3591V17.8733H21.9472V22.3591C21.9472 22.6716 21.829 22.942 21.5925 23.17C21.3559 23.3981 21.073 23.5121 20.7434 23.5121Z" fill="black"/>
</g>
<defs>
<clipPath id="clip0_358_2630">
<rect width="24" height="24" fill="white"/>
</clipPath>
</defs>
</svg>
