<svg width="24" height="24" viewBox="0 0 24 24" fill="none" xmlns="http://www.w3.org/2000/svg">
<rect width="24" height="24" rx="12" fill="black"/>
<path d="M11.5 6H12.5C12.5889 6 12.6333 6.04444 12.6333 6.13333V17.8667C12.6333 17.9556 12.5889 18 12.5 18H11.5C11.4111 18 11.3667 17.9556 11.3667 17.8667V6.13333C11.3667 6.04444 11.4111 6 11.5 6Z" fill="white"/>
<path d="M6.66667 11.3667H17.8667C17.9556 11.3667 18 11.4111 18 11.5V12.5C18 12.5889 17.9556 12.6334 17.8667 12.6334H6.13333C6.04444 12.6334 6 12.5889 6 12.5V11.5C6 11.4111 6.04444 11.3667 6.13333 11.3667H6.66667Z" fill="white"/>
</svg>
