<svg width="24" height="24" viewBox="0 0 24 24" fill="none" xmlns="http://www.w3.org/2000/svg">
<g clip-path="url(#clip0_360_2717)">
<path d="M4.45593 9.33137C4.84101 8.24114 5.46614 7.21593 6.34632 6.34074C9.47197 3.21509 14.538 3.21509 17.6637 6.34074L18.5189 7.20092H16.8035C15.9183 7.20092 15.2032 7.91607 15.2032 8.80126C15.2032 9.68644 15.9183 10.4016 16.8035 10.4016H22.3797H22.3997C23.2849 10.4016 24 9.68644 24 8.80126V3.20009C24 2.31491 23.2849 1.59976 22.3997 1.59976C21.5145 1.59976 20.7993 2.31491 20.7993 3.20009V4.96046L19.9242 4.08027C15.5482 -0.295638 8.45676 -0.295638 4.08085 4.08027C2.8606 5.30053 1.98041 6.73583 1.4403 8.27115C1.14524 9.10632 1.58533 10.0165 2.4155 10.3116C3.24568 10.6066 4.16087 10.1665 4.45593 9.33637V9.33137ZM1.15024 13.6673C0.900188 13.7423 0.660138 13.8773 0.465097 14.0774C0.265055 14.2774 0.130027 14.5174 0.0600125 14.7775C0.0450094 14.8375 0.0300062 14.9025 0.0200041 14.9675C0.00500102 15.0526 0 15.1376 0 15.2226V20.8038C0 21.6889 0.715149 22.4041 1.60033 22.4041C2.48552 22.4041 3.20067 21.6889 3.20067 20.8038V19.0484L4.08085 19.9236C8.45676 24.2945 15.5482 24.2945 19.9191 19.9236C21.1394 18.7033 22.0246 17.268 22.5647 15.7327C22.8598 14.8975 22.4197 13.9873 21.5895 13.6923C20.7593 13.3972 19.8441 13.8373 19.5491 14.6675C19.164 15.7577 18.5389 16.7829 17.6587 17.6581C14.533 20.7838 9.46697 20.7838 6.34132 17.6581L6.33632 17.6531L5.48114 16.8029H7.2015C8.08669 16.8029 8.80183 16.0878 8.80183 15.2026C8.80183 14.3174 8.08669 13.6023 7.2015 13.6023H1.62034C1.54032 13.6023 1.4603 13.6073 1.38029 13.6173C1.30027 13.6273 1.22526 13.6423 1.15024 13.6673Z" fill="black"/>
</g>
<defs>
<clipPath id="clip0_360_2717">
<rect width="24" height="24" fill="white"/>
</clipPath>
</defs>
</svg>
