<svg width="24" height="24" viewBox="0 0 24 24" fill="none" xmlns="http://www.w3.org/2000/svg">
<path d="M12.001 19.4973C17.5239 19.4973 22 15.8609 22 11.3731C22 6.88525 17.5239 3.2489 12.001 3.2489C6.47814 3.2489 2.00203 6.88525 2.00203 11.3731C2.00203 13.1346 2.69337 14.7634 3.86512 16.0953C3.79091 17.0522 3.41985 17.9037 3.02927 18.552C2.81445 18.9114 2.59572 19.2004 2.43558 19.3957C2.35356 19.4933 2.29106 19.5676 2.24419 19.6183C2.22076 19.6418 2.20513 19.6613 2.19342 19.673L2.1817 19.6847C2.00203 19.8644 1.95125 20.13 2.0489 20.3644C2.14655 20.5987 2.37309 20.751 2.62697 20.751C3.74795 20.751 4.87674 20.4034 5.81414 19.9972C6.70858 19.6066 7.47022 19.1418 7.93502 18.802C9.17708 19.2512 10.5519 19.5012 12.001 19.5012V19.4973ZM7.00152 10.1232C7.33301 10.1232 7.65092 10.2549 7.88532 10.4893C8.11971 10.7237 8.2514 11.0416 8.2514 11.3731C8.2514 11.7046 8.11971 12.0225 7.88532 12.2569C7.65092 12.4913 7.33301 12.623 7.00152 12.623C6.67003 12.623 6.35212 12.4913 6.11773 12.2569C5.88333 12.0225 5.75165 11.7046 5.75165 11.3731C5.75165 11.0416 5.88333 10.7237 6.11773 10.4893C6.35212 10.2549 6.67003 10.1232 7.00152 10.1232ZM12.001 10.1232C12.3325 10.1232 12.6504 10.2549 12.8848 10.4893C13.1192 10.7237 13.2509 11.0416 13.2509 11.3731C13.2509 11.7046 13.1192 12.0225 12.8848 12.2569C12.6504 12.4913 12.3325 12.623 12.001 12.623C11.6695 12.623 11.3516 12.4913 11.1172 12.2569C10.8828 12.0225 10.7511 11.7046 10.7511 11.3731C10.7511 11.0416 10.8828 10.7237 11.1172 10.4893C11.3516 10.2549 11.6695 10.1232 12.001 10.1232ZM15.7506 11.3731C15.7506 11.0416 15.8823 10.7237 16.1167 10.4893C16.3511 10.2549 16.669 10.1232 17.0005 10.1232C17.332 10.1232 17.6499 10.2549 17.8843 10.4893C18.1187 10.7237 18.2504 11.0416 18.2504 11.3731C18.2504 11.7046 18.1187 12.0225 17.8843 12.2569C17.6499 12.4913 17.332 12.623 17.0005 12.623C16.669 12.623 16.3511 12.4913 16.1167 12.2569C15.8823 12.0225 15.7506 11.7046 15.7506 11.3731Z" fill="black"/>
</svg>
