<svg width="24" height="24" viewBox="0 0 24 24" fill="none" xmlns="http://www.w3.org/2000/svg">
<path d="M1 7.11107C1 5.76281 2.09618 4.66663 3.44444 4.66663H13.2222C14.5705 4.66663 15.6667 5.76281 15.6667 7.11107V16.8888C15.6667 18.2371 14.5705 19.3333 13.2222 19.3333H3.44444C2.09618 19.3333 1 18.2371 1 16.8888V7.11107ZM22.3545 6.03399C22.7517 6.24788 23 6.66038 23 7.11107V16.8888C23 17.3395 22.7517 17.752 22.3545 17.9659C21.9573 18.1798 21.476 18.1569 21.0979 17.9048L17.4313 15.4604L16.8889 15.0975V14.4444V9.55551V8.90239L17.4313 8.53954L21.0979 6.0951C21.4722 5.84683 21.9535 5.8201 22.3545 6.03399Z" fill="black"/>
</svg>
