<svg width="24" height="24" viewBox="0 0 24 24" fill="none" xmlns="http://www.w3.org/2000/svg">
<path d="M1.45519 2.59136C1.06519 2.28387 0.498952 2.35511 0.191457 2.74511C-0.116037 3.1351 -0.0447884 3.70134 0.345205 4.00884L22.5448 21.4085C22.9348 21.716 23.501 21.6448 23.8085 21.2548C24.116 20.8648 24.0448 20.2985 23.6548 19.9911L20.4149 17.4523L20.9323 17.7973C21.2998 18.0411 21.7723 18.0673 22.1661 17.8573C22.5598 17.6473 22.7998 17.2424 22.7998 16.7999V7.20003C22.7998 6.75754 22.5561 6.35254 22.1661 6.14255C21.7761 5.93255 21.3036 5.95505 20.9323 6.20255L17.3324 8.6025L16.7999 8.95875V9.59999V14.3999V14.6174L15.5999 13.6762V7.20003C15.5999 5.8763 14.5237 4.80007 13.2 4.80007H4.27139L1.45519 2.59136ZM15.2624 18.0261L1.21144 6.95628C1.20394 7.03503 1.20019 7.11753 1.20019 7.20003V16.7999C1.20019 18.1236 2.27642 19.1998 3.60015 19.1998H13.2C14.0775 19.1998 14.8462 18.7273 15.2624 18.0261Z" fill="black"/>
</svg>
