<svg width="24" height="24" viewBox="0 0 24 24" fill="none" xmlns="http://www.w3.org/2000/svg">
<path d="M23.5605 13.0595C24.1465 12.4735 24.1465 11.5219 23.5605 10.9359L17.5602 4.93562C16.9743 4.34965 16.0227 4.34965 15.4367 4.93562C14.8507 5.52158 14.8507 6.47319 15.4367 7.05916L18.8775 10.5H9.00044C8.17071 10.5 7.50037 11.1703 7.50037 12C7.50037 12.8298 8.17071 13.5001 9.00044 13.5001H18.8775L15.4367 16.9409C14.8507 17.5269 14.8507 18.4785 15.4367 19.0644C16.0227 19.6504 16.9743 19.6504 17.5602 19.0644L23.5605 13.0641V13.0595ZM7.50037 4.49966C8.33009 4.49966 9.00044 3.82931 9.00044 2.99958C9.00044 2.16986 8.33009 1.49951 7.50037 1.49951H4.50022C2.01572 1.49951 0 3.51524 0 5.99973V18.0003C0 20.4848 2.01572 22.5005 4.50022 22.5005H7.50037C8.33009 22.5005 9.00044 21.8302 9.00044 21.0005C9.00044 20.1707 8.33009 19.5004 7.50037 19.5004H4.50022C3.67049 19.5004 3.00015 18.83 3.00015 18.0003V5.99973C3.00015 5.17 3.67049 4.49966 4.50022 4.49966H7.50037Z" fill="black"/>
</svg>
