<svg width="24" height="24" viewBox="0 0 24 24" fill="none" xmlns="http://www.w3.org/2000/svg">
<path d="M10.6957 2H2.43478C2.19565 2 2 2.19565 2 2.43478V10.6957C2 10.9348 2.19565 11.1304 2.43478 11.1304H10.6957C10.9348 11.1304 11.1304 10.9348 11.1304 10.6957V2.43478C11.1304 2.19565 10.9348 2 10.6957 2ZM9.28261 9.28261H3.84783V3.84783H9.28261V9.28261ZM21.5652 2H13.3043C13.0652 2 12.8696 2.19565 12.8696 2.43478V10.6957C12.8696 10.9348 13.0652 11.1304 13.3043 11.1304H21.5652C21.8043 11.1304 22 10.9348 22 10.6957V2.43478C22 2.19565 21.8043 2 21.5652 2ZM20.1522 9.28261H14.7174V3.84783H20.1522V9.28261ZM10.6957 12.8696H2.43478C2.19565 12.8696 2 13.0652 2 13.3043V21.5652C2 21.8043 2.19565 22 2.43478 22H10.6957C10.9348 22 11.1304 21.8043 11.1304 21.5652V13.3043C11.1304 13.0652 10.9348 12.8696 10.6957 12.8696ZM9.28261 20.1522H3.84783V14.7174H9.28261V20.1522ZM21.5652 12.8696H13.3043C13.0652 12.8696 12.8696 13.0652 12.8696 13.3043V21.5652C12.8696 21.8043 13.0652 22 13.3043 22H21.5652C21.8043 22 22 21.8043 22 21.5652V13.3043C22 13.0652 21.8043 12.8696 21.5652 12.8696ZM20.1522 20.1522H14.7174V14.7174H20.1522V20.1522Z" fill="black"/>
</svg>
