<svg width="24" height="24" viewBox="0 0 24 24" fill="none" xmlns="http://www.w3.org/2000/svg">
<path d="M22.3172 12.4646C24.5609 10.2209 24.5609 6.58724 22.3172 4.34351C20.3316 2.35791 17.2023 2.09978 14.9188 3.73195L14.8553 3.77563C14.2834 4.18466 14.1524 4.9789 14.5614 5.54679C14.9705 6.11467 15.7647 6.24969 16.3326 5.84066L16.3961 5.79697C17.6709 4.88757 19.4142 5.03053 20.5182 6.1385C21.7692 7.38943 21.7692 9.41475 20.5182 10.6657L16.0625 15.1293C14.8116 16.3802 12.7863 16.3802 11.5354 15.1293C10.4274 14.0213 10.2844 12.278 11.1938 11.0072L11.2375 10.9437C11.6466 10.3718 11.5115 9.57757 10.9437 9.1725C10.3758 8.76744 9.57756 8.89849 9.1725 9.46637L9.12882 9.52991C7.49268 11.8094 7.75081 14.9387 9.73641 16.9243C11.9801 19.168 15.6138 19.168 17.8575 16.9243L22.3172 12.4646ZM1.6828 11.5354C-0.560933 13.7791 -0.560933 17.4128 1.6828 19.6565C3.6684 21.6421 6.79772 21.9002 9.08116 20.2681L9.1447 20.2244C9.71656 19.8153 9.84761 19.0211 9.43857 18.4532C9.02954 17.8853 8.23529 17.7503 7.66741 18.1593L7.60387 18.203C6.32911 19.1124 4.58575 18.9695 3.48176 17.8615C2.23083 16.6066 2.23083 14.5813 3.48176 13.3304L7.93745 8.87069C9.18838 7.61976 11.2137 7.61976 12.4646 8.87069C13.5726 9.97866 13.7156 11.722 12.8062 12.9968L12.7625 13.0603C12.3534 13.6322 12.4885 14.4264 13.0563 14.8315C13.6242 15.2365 14.4224 15.1055 14.8275 14.5376L14.8712 14.4741C16.5073 12.1906 16.2492 9.06131 14.2636 7.0757C12.0199 4.83197 8.3862 4.83197 6.14247 7.0757L1.6828 11.5354Z" fill="black"/>
</svg>
