<svg width="22" height="22" viewBox="0 0 22 22" fill="none" xmlns="http://www.w3.org/2000/svg">
<path fill-rule="evenodd" clip-rule="evenodd" d="M11 20.1663C8.56896 20.1663 6.23747 19.2006 4.51846 17.4816C2.79944 15.7626 1.83371 13.4311 1.83371 11C1.83371 8.56899 2.79944 6.2375 4.51846 4.51849C6.23747 2.79947 8.56896 1.83374 11 1.83374C13.4311 1.83374 15.7625 2.79947 17.4816 4.51849C19.2006 6.2375 20.1663 8.56899 20.1663 11C20.1663 13.4311 19.2006 15.7626 17.4816 17.4816C15.7625 19.2006 13.4311 20.1663 11 20.1663ZM11 18.3337C12.945 18.3337 14.8104 17.5611 16.1857 16.1857C17.5611 14.8104 18.3337 12.9451 18.3337 11C18.3337 9.05502 17.5611 7.18967 16.1857 5.81433C14.8104 4.439 12.945 3.66634 11 3.66634C9.05499 3.66634 7.18964 4.439 5.8143 5.81433C4.43896 7.18967 3.66631 9.05502 3.66631 11C3.66631 12.9451 4.43896 14.8104 5.8143 16.1857C7.18964 17.5611 9.05499 18.3337 11 18.3337ZM10.0837 11C10.0837 10.7569 10.1803 10.5237 10.3522 10.3517C10.5242 10.1798 10.7574 10.0832 11.0006 10.0832C11.2437 10.0832 11.4769 10.1798 11.6489 10.3517C11.8208 10.5237 11.9174 10.7569 11.9174 11V14.6663C11.9174 14.9095 11.8208 15.1427 11.6489 15.3147C11.4769 15.4866 11.2437 15.5832 11.0006 15.5832C10.7574 15.5832 10.5242 15.4866 10.3522 15.3147C10.1803 15.1427 10.0837 14.9095 10.0837 14.6663V11ZM11 6.41634C10.7568 6.41634 10.5236 6.51294 10.3517 6.68488C10.1798 6.85682 10.0832 7.09003 10.0832 7.33319C10.0832 7.57635 10.1798 7.80956 10.3517 7.9815C10.5236 8.15344 10.7568 8.25004 11 8.25004C11.2432 8.25004 11.4764 8.15344 11.6483 7.9815C11.8203 7.80956 11.9169 7.57635 11.9169 7.33319C11.9169 7.09003 11.8203 6.85682 11.6483 6.68488C11.4764 6.51294 11.2432 6.41634 11 6.41634Z" fill="black"/>
</svg>
