<svg width="24" height="24" viewBox="0 0 24 24" fill="none" xmlns="http://www.w3.org/2000/svg">
<path d="M1.45519 2.59136C1.06519 2.28387 0.498952 2.35511 0.191457 2.74511C-0.116037 3.1351 -0.0447884 3.70134 0.345205 4.00884L22.5448 21.4085C22.9348 21.716 23.501 21.6448 23.8085 21.2548C24.116 20.8648 24.0448 20.2985 23.6548 19.9911L17.7037 15.3261C18.2736 14.3512 18.5999 13.2149 18.5999 11.9999V10.5C18.5999 10.0012 18.1986 9.59999 17.6999 9.59999C17.2012 9.59999 16.7999 10.0012 16.7999 10.5V11.9999C16.7999 12.7949 16.6087 13.5412 16.2674 14.2012L15.5999 13.6799V6.00005C15.5999 4.01258 13.9875 2.40011 12 2.40011C10.0125 2.40011 8.40006 4.01258 8.40006 6.00005V8.03626L1.45519 2.59136ZM12.9 18.5398C13.665 18.4348 14.3887 18.1986 15.0487 17.8573L13.4325 16.5861C12.9787 16.7249 12.4987 16.7999 12 16.7999C9.3488 16.7999 7.20008 14.6511 7.20008 11.9999V11.6737L5.42637 10.275C5.40762 10.3462 5.40012 10.4212 5.40012 10.5V11.9999C5.40012 15.3411 7.88257 18.1011 11.1 18.5398V19.7998H9.30005C8.80131 19.7998 8.40006 20.2011 8.40006 20.6998C8.40006 21.1985 8.80131 21.5998 9.30005 21.5998H12H14.7C15.1987 21.5998 15.5999 21.1985 15.5999 20.6998C15.5999 20.2011 15.1987 19.7998 14.7 19.7998H12.9V18.5398Z" fill="black"/>
</svg>
