<svg width="24" height="24" viewBox="0 0 24 24" fill="none" xmlns="http://www.w3.org/2000/svg">
<path fill-rule="evenodd" clip-rule="evenodd" d="M6.46199 3.77195C4.67199 2.94595 2.76199 4.65695 3.38499 6.52595L5.12999 11.7629C5.18123 11.9168 5.18123 12.0831 5.12999 12.2369L3.38499 17.4739C2.76199 19.3439 4.67299 21.0539 6.46199 20.2279L21.339 13.3619C22.501 12.8259 22.501 11.1739 21.339 10.6379L6.46199 3.77195ZM4.80799 6.05195C4.76172 5.9131 4.75709 5.76375 4.79466 5.62231C4.83223 5.48086 4.91036 5.35349 5.01943 5.25591C5.1285 5.15832 5.26373 5.09478 5.40847 5.07311C5.55321 5.05144 5.70113 5.07258 5.83399 5.13395L20.71 11.9999L5.83399 18.8659C5.70113 18.9273 5.55321 18.9485 5.40847 18.9268C5.26373 18.9051 5.1285 18.8416 5.01943 18.744C4.91036 18.6464 4.83223 18.519 4.79466 18.3776C4.75709 18.2361 4.76172 18.0868 4.80799 17.9479L6.53999 12.7499H15C15.1989 12.7499 15.3897 12.6709 15.5303 12.5303C15.671 12.3896 15.75 12.1989 15.75 11.9999C15.75 11.801 15.671 11.6103 15.5303 11.4696C15.3897 11.329 15.1989 11.2499 15 11.2499H6.53999L4.80799 6.05195Z" fill="black"/>
</svg>
