<svg width="24" height="24" viewBox="0 0 24 24" fill="none" xmlns="http://www.w3.org/2000/svg">
<g clip-path="url(#clip0_370_2844)">
<path d="M23.2499 16.1891C23.3999 15.7812 23.2733 15.3264 22.9498 15.0357L20.9197 13.1885C20.9713 12.7994 20.9994 12.4009 20.9994 11.9977C20.9994 11.5945 20.9713 11.1959 20.9197 10.8068L22.9498 8.95956C23.2733 8.66888 23.3999 8.2141 23.2499 7.80621C23.0436 7.24829 22.7951 6.71381 22.5091 6.19809L22.2887 5.81832C21.9793 5.3026 21.6323 4.815 21.2526 4.35554C20.976 4.01797 20.5165 3.90545 20.1039 4.03673L17.4925 4.86658C16.8642 4.38367 16.1703 3.98047 15.4296 3.67572L14.8435 0.998632C14.7498 0.571987 14.4216 0.234421 13.9902 0.164095C13.3432 0.0562614 12.6775 4.38895e-07 11.9977 4.38895e-07C11.3178 4.38895e-07 10.6521 0.0562614 10.0051 0.164095C9.57374 0.234421 9.24555 0.571987 9.15178 0.998632L8.56573 3.67572C7.82496 3.98047 7.13108 4.38367 6.50283 4.86658L3.89607 4.03204C3.48349 3.90076 3.02403 4.01797 2.74741 4.35085C2.36765 4.81031 2.0207 5.29791 1.71127 5.81364L1.49091 6.1934C1.20492 6.70912 0.956434 7.2436 0.750143 7.80152C0.600114 8.20942 0.726701 8.66419 1.0502 8.95487L3.08029 10.8021C3.02871 11.1959 3.00058 11.5945 3.00058 11.9977C3.00058 12.4009 3.02871 12.7994 3.08029 13.1885L1.0502 15.0357C0.726701 15.3264 0.600114 15.7812 0.750143 16.1891C0.956434 16.747 1.20492 17.2815 1.49091 17.7972L1.71127 18.177C2.0207 18.6927 2.36765 19.1803 2.74741 19.6398C3.02403 19.9773 3.48349 20.0899 3.89607 19.9586L6.50752 19.1287C7.13577 19.6116 7.82965 20.0148 8.57042 20.3196L9.15647 22.9967C9.25024 23.4233 9.57843 23.7609 10.0098 23.8312C10.6568 23.9437 11.3225 24 12.0023 24C12.6822 24 13.3479 23.9437 13.9949 23.8359C14.4263 23.7656 14.7544 23.428 14.8482 23.0014L15.4343 20.3243C16.175 20.0195 16.8689 19.6163 17.4972 19.1334L20.1086 19.9633C20.5212 20.0945 20.9807 19.9773 21.2573 19.6445C21.637 19.185 21.984 18.6974 22.2934 18.1817L22.5138 17.8019C22.7998 17.2862 23.0483 16.7517 23.2545 16.1938L23.2499 16.1891ZM12.0023 8.24692C12.9971 8.24692 13.9511 8.64209 14.6545 9.34549C15.3579 10.0489 15.7531 11.0029 15.7531 11.9977C15.7531 12.9924 15.3579 13.9464 14.6545 14.6498C13.9511 15.3532 12.9971 15.7484 12.0023 15.7484C11.0076 15.7484 10.0536 15.3532 9.35017 14.6498C8.64677 13.9464 8.25161 12.9924 8.25161 11.9977C8.25161 11.0029 8.64677 10.0489 9.35017 9.34549C10.0536 8.64209 11.0076 8.24692 12.0023 8.24692Z" fill="black"/>
</g>
<defs>
<clipPath id="clip0_370_2844">
<rect width="24" height="24" fill="white" transform="matrix(1 0 0 -1 0 24)"/>
</clipPath>
</defs>
</svg>
