<svg width="25" height="25" viewBox="0 0 25 25" fill="none" xmlns="http://www.w3.org/2000/svg">
<path d="M16.996 15.496C17.245 15.745 17.283 16.14 17.054 16.407C16.4913 17.0643 15.7928 17.5917 15.0066 17.9531C14.2204 18.3144 13.3652 18.501 12.5 18.5C11.6348 18.501 10.7796 18.3144 9.9934 17.9531C9.20722 17.5917 8.50871 17.0643 7.946 16.407C7.716 16.14 7.756 15.745 8.004 15.496C8.337 15.163 8.894 15.233 9.216 15.576C9.63637 16.026 10.1449 16.3847 10.7099 16.6296C11.2748 16.8746 11.8842 17.0007 12.5 17C13.1158 17.0007 13.7252 16.8746 14.2901 16.6296C14.8551 16.3847 15.3636 16.026 15.784 15.576C16.106 15.233 16.663 15.163 16.996 15.496ZM10.25 10.25C10.25 10.6478 10.092 11.0294 9.81066 11.3107C9.52936 11.592 9.14782 11.75 8.75 11.75C8.35218 11.75 7.97064 11.592 7.68934 11.3107C7.40804 11.0294 7.25 10.6478 7.25 10.25C7.25 9.85218 7.40804 9.47064 7.68934 9.18934C7.97064 8.90804 8.35218 8.75 8.75 8.75C9.14782 8.75 9.52936 8.90804 9.81066 9.18934C10.092 9.47064 10.25 9.85218 10.25 10.25ZM16.25 11.75C16.6478 11.75 17.0294 11.592 17.3107 11.3107C17.592 11.0294 17.75 10.6478 17.75 10.25C17.75 9.85218 17.592 9.47064 17.3107 9.18934C17.0294 8.90804 16.6478 8.75 16.25 8.75C15.8522 8.75 15.4706 8.90804 15.1893 9.18934C14.908 9.47064 14.75 9.85218 14.75 10.25C14.75 10.6478 14.908 11.0294 15.1893 11.3107C15.4706 11.592 15.8522 11.75 16.25 11.75Z" fill="black"/>
<path fill-rule="evenodd" clip-rule="evenodd" d="M23 12.5C23 18.299 18.299 23 12.5 23C6.701 23 2 18.299 2 12.5C2 6.701 6.701 2 12.5 2C18.299 2 23 6.701 23 12.5ZM21.5 12.5C21.5 13.6819 21.2672 14.8522 20.8149 15.9442C20.3626 17.0361 19.6997 18.0282 18.864 18.864C18.0282 19.6997 17.0361 20.3626 15.9442 20.8149C14.8522 21.2672 13.6819 21.5 12.5 21.5C11.3181 21.5 10.1478 21.2672 9.05585 20.8149C7.96392 20.3626 6.97177 19.6997 6.13604 18.864C5.30031 18.0282 4.63738 17.0361 4.18508 15.9442C3.73279 14.8522 3.5 13.6819 3.5 12.5C3.5 10.1131 4.44821 7.82387 6.13604 6.13604C7.82387 4.44821 10.1131 3.5 12.5 3.5C14.8869 3.5 17.1761 4.44821 18.864 6.13604C20.5518 7.82387 21.5 10.1131 21.5 12.5Z" fill="black"/>
</svg>
