<svg width="24" height="24" viewBox="0 0 24 24" fill="none" xmlns="http://www.w3.org/2000/svg">
<path d="M2 8V6C2 5.46957 2.21071 4.96086 2.58579 4.58579C2.96086 4.21071 3.46957 4 4.00001 4H20.0001C20.5305 4 21.0392 4.21071 21.4143 4.58579C21.7893 4.96086 22.0001 5.46957 22.0001 6V18C22.0001 18.5304 21.7893 19.0391 21.4143 19.4142C21.0392 19.7893 20.5305 20 20.0001 20H14" stroke="black" stroke-width="2" stroke-linecap="round" stroke-linejoin="round"/>
<path d="M1.99997 11.9999C4.04735 12.2171 5.95835 13.1298 7.4142 14.5857C8.87005 16.0415 9.78273 17.9525 9.99999 19.9999" stroke="black" stroke-width="2" stroke-linecap="round" stroke-linejoin="round"/>
<path d="M1.99997 16C2.99263 16.1849 3.90605 16.666 4.62004 17.3799C5.33402 18.0939 5.81511 19.0073 5.99998 20" stroke="black" stroke-width="2" stroke-linecap="round" stroke-linejoin="round"/>
<path d="M1.99997 19.9999H2.01108" stroke="black" stroke-width="2" stroke-linecap="round" stroke-linejoin="round"/>
</svg>
