<svg width="24" height="24" viewBox="0 0 24 24" fill="none" xmlns="http://www.w3.org/2000/svg">
<path d="M14.75 6.19134C15.1212 6.19134 15.465 6.34366 15.7262 6.59291C15.9875 6.856 16.125 7.20218 16.125 7.57605V10.3455C16.125 10.7194 16.2762 11.0656 16.5237 11.3286C16.785 11.5917 17.1287 11.7302 17.5 11.7302H22.0237C22.2162 11.7302 22.4087 11.7856 22.56 11.8964C22.725 12.0072 22.8487 12.1595 22.9175 12.3395C22.9862 12.5195 23.0137 12.7134 22.9725 12.9072C22.9312 13.1011 22.8487 13.2672 22.7112 13.4057L13.1687 23.0156C13.0175 23.1679 12.825 23.2925 12.6325 23.3756C12.4262 23.4587 12.22 23.5002 12 23.5002C11.78 23.5002 11.56 23.4587 11.3675 23.3756C11.1612 23.2925 10.9825 23.1679 10.8313 23.0156L1.28876 13.3919C1.15126 13.2534 1.05501 13.0872 1.02751 12.8934C0.986264 12.6995 1.01376 12.5056 1.08251 12.3256C1.15126 12.1456 1.27501 11.9933 1.44001 11.8825C1.60501 11.7718 1.78376 11.7164 1.97626 11.7164H6.50001C6.87126 11.7164 7.21501 11.564 7.47626 11.3148C7.73751 11.0517 7.87501 10.7055 7.87501 10.3316V7.5622C7.87501 7.18833 8.02626 6.84215 8.27376 6.57906C8.53501 6.31597 8.87876 6.17749 9.25001 6.17749H14.75V6.19134Z" fill="black"/>
<path d="M15.2303 2.57682H8.78157C8.21782 2.57682 7.75032 2.10602 7.75032 1.53829C7.75032 0.970557 8.21782 0.499756 8.78157 0.499756H15.2303C15.7941 0.499756 16.2616 0.970557 16.2616 1.53829C16.2616 2.10602 15.7941 2.57682 15.2303 2.57682Z" fill="black"/>
</svg>
