<svg width="24" height="24" viewBox="0 0 24 24" fill="none" xmlns="http://www.w3.org/2000/svg">
<g clip-path="url(#clip0_362_2758)">
<path d="M12 24C10.341 24 8.78565 23.689 7.334 23.0668C5.89033 22.4447 4.61815 21.5832 3.51745 20.4826C2.41675 19.3739 1.55533 18.0977 0.933201 16.654C0.311067 15.2024 0 13.6511 0 12C0 10.349 0.311067 8.7976 0.933201 7.34596C1.55533 5.89431 2.41675 4.61815 3.51745 3.51745C4.61815 2.41675 5.89033 1.55533 7.334 0.933201C8.78565 0.311067 10.341 0 12 0C13.6511 0 15.2024 0.311067 16.654 0.933201C18.1057 1.55533 19.3778 2.41675 20.4706 3.51745C21.5713 4.61815 22.4327 5.89431 23.0548 7.34596C23.6849 8.7976 24 10.349 24 12C24 13.6511 23.6849 15.2024 23.0548 16.654C22.4327 18.0977 21.5713 19.3739 20.4706 20.4826C19.3778 21.5832 18.1057 22.4447 16.654 23.0668C15.2024 23.689 13.6511 24 12 24ZM11.988 22.6003C12.977 22.6003 13.9342 22.4686 14.8594 22.2053C15.7927 21.9422 16.6581 21.5673 17.4556 21.0807C18.2532 20.6021 18.9512 20.0438 19.5493 19.4057C19.1186 18.7039 18.5164 18.1017 17.7428 17.5992C16.9771 17.0888 16.0997 16.6979 15.1106 16.4267C14.1296 16.1555 13.0887 16.0199 11.988 16.0199C10.8794 16.0199 9.83051 16.1555 8.84148 16.4267C7.85244 16.6979 6.97508 17.0888 6.20937 17.5992C5.45164 18.1017 4.85344 18.7039 4.41476 19.4057C5.01296 20.0438 5.71087 20.6021 6.50847 21.0807C7.31405 21.5673 8.17946 21.9422 9.10468 22.2053C10.0379 22.4686 10.999 22.6003 11.988 22.6003ZM11.988 13.9741C12.7537 13.9741 13.4437 13.7786 14.0578 13.3879C14.672 12.989 15.1585 12.4507 15.5174 11.7727C15.8844 11.0867 16.0678 10.317 16.0678 9.46362C16.0678 8.66601 15.8844 7.93221 15.5174 7.26221C15.1585 6.59222 14.668 6.05783 14.0459 5.65903C13.4317 5.25225 12.7457 5.04886 11.988 5.04886C11.2303 5.04886 10.5404 5.25225 9.91824 5.65903C9.30409 6.05783 8.81356 6.59222 8.44666 7.26221C8.07976 7.93221 7.9003 8.66601 7.90827 9.46362C7.90827 10.317 8.08774 11.0828 8.44666 11.7608C8.80558 12.4387 9.29212 12.977 9.90628 13.3759C10.5204 13.7667 11.2143 13.9661 11.988 13.9741Z" fill="black"/>
</g>
<defs>
<clipPath id="clip0_362_2758">
<rect width="24" height="24" fill="white"/>
</clipPath>
</defs>
</svg>
